<?xml version="1.0" encoding="UTF-8" standalone="no"?>
<!DOCTYPE svg PUBLIC "-//W3C//DTD SVG 1.1//EN"
 "http://www.w3.org/Graphics/SVG/1.1/DTD/svg11.dtd">
<!-- Generated by graphviz version 2.40.1 (20161225.0304)
 -->
<!-- Title: largeRelationshipsDiagram Pages: 1 -->
<svg width="455pt" height="1143pt"
 viewBox="0.00 0.00 455.00 1143.20" xmlns="http://www.w3.org/2000/svg" xmlns:xlink="http://www.w3.org/1999/xlink">
<g id="graph0" class="graph" transform="scale(1 1) rotate(0) translate(4 1139.2)">
<title>largeRelationshipsDiagram</title>
<polygon fill="#ffffff" stroke="transparent" points="-4,4 -4,-1139.2 451,-1139.2 451,4 -4,4"/>
<text text-anchor="middle" x="72.4936" y="-7.3" font-family="Helvetica,sans-Serif" font-size="11.00" fill="#000000">Generated by SchemaSpy</text>
<!-- cor_uaa_user_password -->
<g id="node1" class="node">
<title>cor_uaa_user_password</title>
<g id="a_node1"><a xlink:href="../../tables/cor_uaa_user_password.html" xlink:title="cor_uaa_user_password" target="_top">
<polygon fill="#ffffff" stroke="transparent" points="242,-428.2 242,-668.2 439,-668.2 439,-428.2 242,-428.2"/>
<polygon fill="#f5f5f5" stroke="transparent" points="242.5,-645.2 242.5,-668.2 439.5,-668.2 439.5,-645.2 242.5,-645.2"/>
<polygon fill="none" stroke="#000000" points="242.5,-645.2 242.5,-668.2 439.5,-668.2 439.5,-645.2 242.5,-645.2"/>
<text text-anchor="start" x="247.5" y="-653.8" font-family="Helvetica,sans-Serif" font-weight="bold" font-size="11.00" fill="#000000">cor_uaa_user_password</text>
<text text-anchor="start" x="405.0219" y="-653.3" font-family="Helvetica,sans-Serif" font-size="11.00" fill="#000000">[table]</text>
<polygon fill="none" stroke="#000000" points="242.5,-623.2 242.5,-645.2 439.5,-645.2 439.5,-623.2 242.5,-623.2"/>
<image xlink:href="../../images/primaryKeys.png" width="11px" height="12px" preserveAspectRatio="xMinYMin meet" x="247.5" y="-640.2"/>
<text text-anchor="start" x="271.5" y="-630.3" font-family="Helvetica,sans-Serif" font-size="11.00" fill="#000000">c_pk</text>
<polygon fill="none" stroke="#000000" points="242.5,-601.2 242.5,-623.2 439.5,-623.2 439.5,-601.2 242.5,-601.2"/>
<text text-anchor="start" x="271.5" y="-608.3" font-family="Helvetica,sans-Serif" font-size="11.00" fill="#000000">c_created</text>
<polygon fill="none" stroke="#000000" points="242.5,-579.2 242.5,-601.2 439.5,-601.2 439.5,-579.2 242.5,-579.2"/>
<text text-anchor="start" x="271.5" y="-586.3" font-family="Helvetica,sans-Serif" font-size="11.00" fill="#000000">c_created_by</text>
<polygon fill="none" stroke="#000000" points="242.5,-557.2 242.5,-579.2 439.5,-579.2 439.5,-557.2 242.5,-557.2"/>
<text text-anchor="start" x="271.5" y="-564.3" font-family="Helvetica,sans-Serif" font-size="11.00" fill="#000000">c_updated_by</text>
<polygon fill="none" stroke="#000000" points="242.5,-535.2 242.5,-557.2 439.5,-557.2 439.5,-535.2 242.5,-535.2"/>
<text text-anchor="start" x="271.5" y="-542.3" font-family="Helvetica,sans-Serif" font-size="11.00" fill="#000000">c_updated</text>
<polygon fill="none" stroke="#000000" points="242.5,-513.2 242.5,-535.2 439.5,-535.2 439.5,-513.2 242.5,-513.2"/>
<text text-anchor="start" x="271.5" y="-520.3" font-family="Helvetica,sans-Serif" font-size="11.00" fill="#000000">c_ol</text>
<polygon fill="none" stroke="#000000" points="242.5,-491.2 242.5,-513.2 439.5,-513.2 439.5,-491.2 242.5,-491.2"/>
<text text-anchor="start" x="271.5" y="-498.3" font-family="Helvetica,sans-Serif" font-size="11.00" fill="#000000">c_password</text>
<polygon fill="none" stroke="#000000" points="242.5,-469.2 242.5,-491.2 439.5,-491.2 439.5,-469.2 242.5,-469.2"/>
<text text-anchor="start" x="271.5" y="-476.3" font-family="Helvetica,sans-Serif" font-size="11.00" fill="#000000">c_password_changed</text>
<polygon fill="none" stroke="#000000" points="242.5,-447.2 242.5,-469.2 439.5,-469.2 439.5,-447.2 242.5,-447.2"/>
<image xlink:href="../../images/foreignKeys.png" width="11px" height="12px" preserveAspectRatio="xMinYMin meet" x="247.5" y="-464.2"/>
<text text-anchor="start" x="271.5" y="-454.3" font-family="Helvetica,sans-Serif" font-size="11.00" fill="#000000">c_username</text>
<polygon fill="#ffffff" stroke="transparent" points="242.5,-428.2 242.5,-447.2 339.5,-447.2 339.5,-428.2 242.5,-428.2"/>
<polygon fill="none" stroke="#000000" points="242.5,-428.2 242.5,-447.2 339.5,-447.2 339.5,-428.2 242.5,-428.2"/>
<text text-anchor="start" x="245.5" y="-434.3" font-family="Helvetica,sans-Serif" font-size="11.00" fill="#000000">&lt; 1</text>
<polygon fill="#ffffff" stroke="transparent" points="339.5,-428.2 339.5,-447.2 389.5,-447.2 389.5,-428.2 339.5,-428.2"/>
<polygon fill="none" stroke="#000000" points="339.5,-428.2 339.5,-447.2 389.5,-447.2 389.5,-428.2 339.5,-428.2"/>
<text text-anchor="start" x="380.3862" y="-434.3" font-family="Helvetica,sans-Serif" font-size="11.00" fill="#000000"> &#160;</text>
<polygon fill="#ffffff" stroke="transparent" points="389.5,-428.2 389.5,-447.2 439.5,-447.2 439.5,-428.2 389.5,-428.2"/>
<polygon fill="none" stroke="#000000" points="389.5,-428.2 389.5,-447.2 439.5,-447.2 439.5,-428.2 389.5,-428.2"/>
<text text-anchor="start" x="430.3862" y="-434.3" font-family="Helvetica,sans-Serif" font-size="11.00" fill="#000000"> &#160;</text>
</a>
</g>
</g>
<!-- cor_uaa_user -->
<g id="node5" class="node">
<title>cor_uaa_user</title>
<g id="a_node5"><a xlink:href="../../tables/cor_uaa_user.html" xlink:title="cor_uaa_user" target="_top">
<polygon fill="#ffffff" stroke="transparent" points="8,-385.2 8,-955.2 193,-955.2 193,-385.2 8,-385.2"/>
<polygon fill="#f5f5f5" stroke="transparent" points="8.5,-932.2 8.5,-955.2 193.5,-955.2 193.5,-932.2 8.5,-932.2"/>
<polygon fill="none" stroke="#000000" points="8.5,-932.2 8.5,-955.2 193.5,-955.2 193.5,-932.2 8.5,-932.2"/>
<text text-anchor="start" x="13.5" y="-940.8" font-family="Helvetica,sans-Serif" font-weight="bold" font-size="11.00" fill="#000000">cor_uaa_user</text>
<text text-anchor="start" x="158.5437" y="-940.3" font-family="Helvetica,sans-Serif" font-size="11.00" fill="#000000">[table]</text>
<polygon fill="none" stroke="#000000" points="8.5,-910.2 8.5,-932.2 193.5,-932.2 193.5,-910.2 8.5,-910.2"/>
<text text-anchor="start" x="28.5" y="-917.3" font-family="Helvetica,sans-Serif" font-size="11.00" fill="#000000">c_type</text>
<polygon fill="none" stroke="#000000" points="8.5,-888.2 8.5,-910.2 193.5,-910.2 193.5,-888.2 8.5,-888.2"/>
<image xlink:href="../../images/primaryKeys.png" width="11px" height="12px" preserveAspectRatio="xMinYMin meet" x="13.5" y="-905.2"/>
<text text-anchor="start" x="28.5" y="-895.3" font-family="Helvetica,sans-Serif" font-size="11.00" fill="#000000">c_pk</text>
<polygon fill="none" stroke="#000000" points="8.5,-866.2 8.5,-888.2 193.5,-888.2 193.5,-866.2 8.5,-866.2"/>
<text text-anchor="start" x="28.5" y="-873.3" font-family="Helvetica,sans-Serif" font-size="11.00" fill="#000000">c_created</text>
<polygon fill="none" stroke="#000000" points="8.5,-844.2 8.5,-866.2 193.5,-866.2 193.5,-844.2 8.5,-844.2"/>
<text text-anchor="start" x="28.5" y="-851.3" font-family="Helvetica,sans-Serif" font-size="11.00" fill="#000000">c_created_by</text>
<polygon fill="none" stroke="#000000" points="8.5,-822.2 8.5,-844.2 193.5,-844.2 193.5,-822.2 8.5,-822.2"/>
<text text-anchor="start" x="28.5" y="-829.3" font-family="Helvetica,sans-Serif" font-size="11.00" fill="#000000">c_updated_by</text>
<polygon fill="none" stroke="#000000" points="8.5,-800.2 8.5,-822.2 193.5,-822.2 193.5,-800.2 8.5,-800.2"/>
<text text-anchor="start" x="28.5" y="-807.3" font-family="Helvetica,sans-Serif" font-size="11.00" fill="#000000">c_updated</text>
<polygon fill="none" stroke="#000000" points="8.5,-778.2 8.5,-800.2 193.5,-800.2 193.5,-778.2 8.5,-778.2"/>
<text text-anchor="start" x="28.5" y="-785.3" font-family="Helvetica,sans-Serif" font-size="11.00" fill="#000000">c_ol</text>
<polygon fill="#ffffff" stroke="transparent" points="8.5,-756.2 8.5,-778.2 193.5,-778.2 193.5,-756.2 8.5,-756.2"/>
<polygon fill="none" stroke="#000000" points="8.5,-756.2 8.5,-778.2 193.5,-778.2 193.5,-756.2 8.5,-756.2"/>
<text text-anchor="start" x="28.5" y="-763.3" font-family="Helvetica,sans-Serif" font-size="11.00" fill="#000000">c_pid</text>
<polygon fill="none" stroke="#000000" points="8.5,-734.2 8.5,-756.2 193.5,-756.2 193.5,-734.2 8.5,-734.2"/>
<text text-anchor="start" x="28.5" y="-741.3" font-family="Helvetica,sans-Serif" font-size="11.00" fill="#000000">c_enabled</text>
<polygon fill="none" stroke="#000000" points="8.5,-712.2 8.5,-734.2 193.5,-734.2 193.5,-712.2 8.5,-712.2"/>
<text text-anchor="start" x="28.5" y="-719.3" font-family="Helvetica,sans-Serif" font-size="11.00" fill="#000000">c_expiration_date</text>
<polygon fill="none" stroke="#000000" points="8.5,-690.2 8.5,-712.2 193.5,-712.2 193.5,-690.2 8.5,-690.2"/>
<text text-anchor="start" x="28.5" y="-697.3" font-family="Helvetica,sans-Serif" font-size="11.00" fill="#000000">c_extern</text>
<polygon fill="none" stroke="#000000" points="8.5,-668.2 8.5,-690.2 193.5,-690.2 193.5,-668.2 8.5,-668.2"/>
<text text-anchor="start" x="28.5" y="-675.3" font-family="Helvetica,sans-Serif" font-size="11.00" fill="#000000">c_fullname</text>
<polygon fill="none" stroke="#000000" points="8.5,-646.2 8.5,-668.2 193.5,-668.2 193.5,-646.2 8.5,-646.2"/>
<text text-anchor="start" x="28.5" y="-653.3" font-family="Helvetica,sans-Serif" font-size="11.00" fill="#000000">c_last_password_change</text>
<polygon fill="none" stroke="#000000" points="8.5,-624.2 8.5,-646.2 193.5,-646.2 193.5,-624.2 8.5,-624.2"/>
<text text-anchor="start" x="28.5" y="-631.3" font-family="Helvetica,sans-Serif" font-size="11.00" fill="#000000">c_locked</text>
<polygon fill="none" stroke="#000000" points="8.5,-602.2 8.5,-624.2 193.5,-624.2 193.5,-602.2 8.5,-602.2"/>
<text text-anchor="start" x="28.5" y="-609.3" font-family="Helvetica,sans-Serif" font-size="11.00" fill="#000000">c_password</text>
<polygon fill="none" stroke="#000000" points="8.5,-580.2 8.5,-602.2 193.5,-602.2 193.5,-580.2 8.5,-580.2"/>
<text text-anchor="start" x="28.5" y="-587.3" font-family="Helvetica,sans-Serif" font-size="11.00" fill="#000000">c_comment</text>
<polygon fill="none" stroke="#000000" points="8.5,-558.2 8.5,-580.2 193.5,-580.2 193.5,-558.2 8.5,-558.2"/>
<text text-anchor="start" x="28.5" y="-565.3" font-family="Helvetica,sans-Serif" font-size="11.00" fill="#000000">c_department</text>
<polygon fill="none" stroke="#000000" points="8.5,-536.2 8.5,-558.2 193.5,-558.2 193.5,-536.2 8.5,-536.2"/>
<text text-anchor="start" x="28.5" y="-543.3" font-family="Helvetica,sans-Serif" font-size="11.00" fill="#000000">c_description</text>
<polygon fill="none" stroke="#000000" points="8.5,-514.2 8.5,-536.2 193.5,-536.2 193.5,-514.2 8.5,-514.2"/>
<text text-anchor="start" x="28.5" y="-521.3" font-family="Helvetica,sans-Serif" font-size="11.00" fill="#000000">c_gender</text>
<polygon fill="none" stroke="#000000" points="8.5,-492.2 8.5,-514.2 193.5,-514.2 193.5,-492.2 8.5,-492.2"/>
<text text-anchor="start" x="28.5" y="-499.3" font-family="Helvetica,sans-Serif" font-size="11.00" fill="#000000">c_im</text>
<polygon fill="none" stroke="#000000" points="8.5,-470.2 8.5,-492.2 193.5,-492.2 193.5,-470.2 8.5,-470.2"/>
<text text-anchor="start" x="28.5" y="-477.3" font-family="Helvetica,sans-Serif" font-size="11.00" fill="#000000">c_image</text>
<polygon fill="none" stroke="#000000" points="8.5,-448.2 8.5,-470.2 193.5,-470.2 193.5,-448.2 8.5,-448.2"/>
<text text-anchor="start" x="28.5" y="-455.3" font-family="Helvetica,sans-Serif" font-size="11.00" fill="#000000">c_office</text>
<polygon fill="none" stroke="#000000" points="8.5,-426.2 8.5,-448.2 193.5,-448.2 193.5,-426.2 8.5,-426.2"/>
<text text-anchor="start" x="28.5" y="-433.3" font-family="Helvetica,sans-Serif" font-size="11.00" fill="#000000">c_phone_no</text>
<polygon fill="#ffffff" stroke="transparent" points="8.5,-404.2 8.5,-426.2 193.5,-426.2 193.5,-404.2 8.5,-404.2"/>
<polygon fill="none" stroke="#000000" points="8.5,-404.2 8.5,-426.2 193.5,-426.2 193.5,-404.2 8.5,-404.2"/>
<text text-anchor="start" x="28.5" y="-411.3" font-family="Helvetica,sans-Serif" font-size="11.00" fill="#000000">c_username</text>
<polygon fill="#ffffff" stroke="transparent" points="8.5,-385.2 8.5,-404.2 90.5,-404.2 90.5,-385.2 8.5,-385.2"/>
<polygon fill="none" stroke="#000000" points="8.5,-385.2 8.5,-404.2 90.5,-404.2 90.5,-385.2 8.5,-385.2"/>
<text text-anchor="start" x="11.5" y="-391.3" font-family="Helvetica,sans-Serif" font-size="11.00" fill="#000000"> &#160;</text>
<polygon fill="#ffffff" stroke="transparent" points="90.5,-385.2 90.5,-404.2 137.5,-404.2 137.5,-385.2 90.5,-385.2"/>
<polygon fill="none" stroke="#000000" points="90.5,-385.2 90.5,-404.2 137.5,-404.2 137.5,-385.2 90.5,-385.2"/>
<text text-anchor="start" x="128.3862" y="-391.3" font-family="Helvetica,sans-Serif" font-size="11.00" fill="#000000"> &#160;</text>
<polygon fill="#ffffff" stroke="transparent" points="137.5,-385.2 137.5,-404.2 193.5,-404.2 193.5,-385.2 137.5,-385.2"/>
<polygon fill="none" stroke="#000000" points="137.5,-385.2 137.5,-404.2 193.5,-404.2 193.5,-385.2 137.5,-385.2"/>
<text text-anchor="start" x="174.9053" y="-391.3" font-family="Helvetica,sans-Serif" font-size="11.00" fill="#000000">3 &gt;</text>
</a>
</g>
</g>
<!-- cor_uaa_user_password&#45;&gt;cor_uaa_user -->
<g id="edge6" class="edge">
<title>cor_uaa_user_password:w&#45;&gt;cor_uaa_user:e</title>
<path fill="none" stroke="#000000" d="M228.515,-453.2674C215.6135,-441.9726 216.3625,-415.2 193.5,-415.2"/>
<polygon fill="#000000" stroke="#000000" points="234.9555,-455.539 241.3025,-461.595 238.7278,-456.8695 242.5,-458.2 242.5,-458.2 242.5,-458.2 238.7278,-456.8695 243.6975,-454.805 234.9555,-455.539 234.9555,-455.539"/>
<ellipse fill="none" stroke="#000000" cx="231.9377" cy="-454.4745" rx="3.2" ry="3.2"/>
</g>
<!-- cor_uaa_role_role -->
<g id="node2" class="node">
<title>cor_uaa_role_role</title>
<g id="a_node2"><a xlink:href="../../tables/cor_uaa_role_role.html" xlink:title="cor_uaa_role_role" target="_top">
<polygon fill="#ffffff" stroke="transparent" points="263,-214.2 263,-300.2 418,-300.2 418,-214.2 263,-214.2"/>
<polygon fill="#f5f5f5" stroke="transparent" points="263.5,-277.2 263.5,-300.2 418.5,-300.2 418.5,-277.2 263.5,-277.2"/>
<polygon fill="none" stroke="#000000" points="263.5,-277.2 263.5,-300.2 418.5,-300.2 418.5,-277.2 263.5,-277.2"/>
<text text-anchor="start" x="268.5" y="-285.8" font-family="Helvetica,sans-Serif" font-weight="bold" font-size="11.00" fill="#000000">cor_uaa_role_role</text>
<text text-anchor="start" x="384.0219" y="-285.3" font-family="Helvetica,sans-Serif" font-size="11.00" fill="#000000">[table]</text>
<polygon fill="none" stroke="#000000" points="263.5,-255.2 263.5,-277.2 418.5,-277.2 418.5,-255.2 263.5,-255.2"/>
<image xlink:href="../../images/primaryKeys.png" width="11px" height="12px" preserveAspectRatio="xMinYMin meet" x="268.5" y="-272.2"/>
<text text-anchor="start" x="292.5" y="-262.3" font-family="Helvetica,sans-Serif" font-size="11.00" fill="#000000">c_role_id</text>
<polygon fill="none" stroke="#000000" points="263.5,-233.2 263.5,-255.2 418.5,-255.2 418.5,-233.2 263.5,-233.2"/>
<image xlink:href="../../images/primaryKeys.png" width="11px" height="12px" preserveAspectRatio="xMinYMin meet" x="268.5" y="-250.2"/>
<text text-anchor="start" x="292.5" y="-240.3" font-family="Helvetica,sans-Serif" font-size="11.00" fill="#000000">c_grant_id</text>
<polygon fill="#ffffff" stroke="transparent" points="263.5,-214.2 263.5,-233.2 339.5,-233.2 339.5,-214.2 263.5,-214.2"/>
<polygon fill="none" stroke="#000000" points="263.5,-214.2 263.5,-233.2 339.5,-233.2 339.5,-214.2 263.5,-214.2"/>
<text text-anchor="start" x="266.5" y="-220.3" font-family="Helvetica,sans-Serif" font-size="11.00" fill="#000000">&lt; 2</text>
<polygon fill="#ffffff" stroke="transparent" points="339.5,-214.2 339.5,-233.2 378.5,-233.2 378.5,-214.2 339.5,-214.2"/>
<polygon fill="none" stroke="#000000" points="339.5,-214.2 339.5,-233.2 378.5,-233.2 378.5,-214.2 339.5,-214.2"/>
<text text-anchor="start" x="369.3862" y="-220.3" font-family="Helvetica,sans-Serif" font-size="11.00" fill="#000000"> &#160;</text>
<polygon fill="#ffffff" stroke="transparent" points="378.5,-214.2 378.5,-233.2 418.5,-233.2 418.5,-214.2 378.5,-214.2"/>
<polygon fill="none" stroke="#000000" points="378.5,-214.2 378.5,-233.2 418.5,-233.2 418.5,-214.2 378.5,-214.2"/>
<text text-anchor="start" x="409.3862" y="-220.3" font-family="Helvetica,sans-Serif" font-size="11.00" fill="#000000"> &#160;</text>
</a>
</g>
</g>
<!-- cor_uaa_role -->
<g id="node3" class="node">
<title>cor_uaa_role</title>
<g id="a_node3"><a xlink:href="../../tables/cor_uaa_role.html" xlink:title="cor_uaa_role" target="_top">
<polygon fill="#ffffff" stroke="transparent" points="39,-38.2 39,-322.2 162,-322.2 162,-38.2 39,-38.2"/>
<polygon fill="#f5f5f5" stroke="transparent" points="39.5,-299.2 39.5,-322.2 162.5,-322.2 162.5,-299.2 39.5,-299.2"/>
<polygon fill="none" stroke="#000000" points="39.5,-299.2 39.5,-322.2 162.5,-322.2 162.5,-299.2 39.5,-299.2"/>
<text text-anchor="start" x="44.5" y="-307.8" font-family="Helvetica,sans-Serif" font-weight="bold" font-size="11.00" fill="#000000">cor_uaa_role</text>
<text text-anchor="start" x="128.0219" y="-307.3" font-family="Helvetica,sans-Serif" font-size="11.00" fill="#000000">[table]</text>
<polygon fill="none" stroke="#000000" points="39.5,-277.2 39.5,-299.2 162.5,-299.2 162.5,-277.2 39.5,-277.2"/>
<text text-anchor="start" x="65.5" y="-284.3" font-family="Helvetica,sans-Serif" font-size="11.00" fill="#000000">c_type</text>
<polygon fill="none" stroke="#000000" points="39.5,-255.2 39.5,-277.2 162.5,-277.2 162.5,-255.2 39.5,-255.2"/>
<image xlink:href="../../images/primaryKeys.png" width="11px" height="12px" preserveAspectRatio="xMinYMin meet" x="44.5" y="-272.2"/>
<text text-anchor="start" x="65.5" y="-262.3" font-family="Helvetica,sans-Serif" font-size="11.00" fill="#000000">c_pk</text>
<polygon fill="none" stroke="#000000" points="39.5,-233.2 39.5,-255.2 162.5,-255.2 162.5,-233.2 39.5,-233.2"/>
<text text-anchor="start" x="65.5" y="-240.3" font-family="Helvetica,sans-Serif" font-size="11.00" fill="#000000">c_created</text>
<polygon fill="none" stroke="#000000" points="39.5,-211.2 39.5,-233.2 162.5,-233.2 162.5,-211.2 39.5,-211.2"/>
<text text-anchor="start" x="65.5" y="-218.3" font-family="Helvetica,sans-Serif" font-size="11.00" fill="#000000">c_created_by</text>
<polygon fill="none" stroke="#000000" points="39.5,-189.2 39.5,-211.2 162.5,-211.2 162.5,-189.2 39.5,-189.2"/>
<text text-anchor="start" x="65.5" y="-196.3" font-family="Helvetica,sans-Serif" font-size="11.00" fill="#000000">c_updated_by</text>
<polygon fill="none" stroke="#000000" points="39.5,-167.2 39.5,-189.2 162.5,-189.2 162.5,-167.2 39.5,-167.2"/>
<text text-anchor="start" x="65.5" y="-174.3" font-family="Helvetica,sans-Serif" font-size="11.00" fill="#000000">c_updated</text>
<polygon fill="none" stroke="#000000" points="39.5,-145.2 39.5,-167.2 162.5,-167.2 162.5,-145.2 39.5,-145.2"/>
<text text-anchor="start" x="65.5" y="-152.3" font-family="Helvetica,sans-Serif" font-size="11.00" fill="#000000">c_ol</text>
<polygon fill="#ffffff" stroke="transparent" points="39.5,-123.2 39.5,-145.2 162.5,-145.2 162.5,-123.2 39.5,-123.2"/>
<polygon fill="none" stroke="#000000" points="39.5,-123.2 39.5,-145.2 162.5,-145.2 162.5,-123.2 39.5,-123.2"/>
<text text-anchor="start" x="65.5" y="-130.3" font-family="Helvetica,sans-Serif" font-size="11.00" fill="#000000">c_pid</text>
<polygon fill="none" stroke="#000000" points="39.5,-101.2 39.5,-123.2 162.5,-123.2 162.5,-101.2 39.5,-101.2"/>
<text text-anchor="start" x="65.5" y="-108.3" font-family="Helvetica,sans-Serif" font-size="11.00" fill="#000000">c_description</text>
<polygon fill="#ffffff" stroke="transparent" points="39.5,-79.2 39.5,-101.2 162.5,-101.2 162.5,-79.2 39.5,-79.2"/>
<polygon fill="none" stroke="#000000" points="39.5,-79.2 39.5,-101.2 162.5,-101.2 162.5,-79.2 39.5,-79.2"/>
<text text-anchor="start" x="65.5" y="-86.3" font-family="Helvetica,sans-Serif" font-size="11.00" fill="#000000">c_name</text>
<polygon fill="none" stroke="#000000" points="39.5,-57.2 39.5,-79.2 162.5,-79.2 162.5,-57.2 39.5,-57.2"/>
<text text-anchor="start" x="65.5" y="-64.3" font-family="Helvetica,sans-Serif" font-size="11.00" fill="#000000">c_immutable</text>
<polygon fill="#ffffff" stroke="transparent" points="39.5,-38.2 39.5,-57.2 90.5,-57.2 90.5,-38.2 39.5,-38.2"/>
<polygon fill="none" stroke="#000000" points="39.5,-38.2 39.5,-57.2 90.5,-57.2 90.5,-38.2 39.5,-38.2"/>
<text text-anchor="start" x="42.5" y="-44.3" font-family="Helvetica,sans-Serif" font-size="11.00" fill="#000000"> &#160;</text>
<polygon fill="#ffffff" stroke="transparent" points="90.5,-38.2 90.5,-57.2 121.5,-57.2 121.5,-38.2 90.5,-38.2"/>
<polygon fill="none" stroke="#000000" points="90.5,-38.2 90.5,-57.2 121.5,-57.2 121.5,-38.2 90.5,-38.2"/>
<text text-anchor="start" x="112.3862" y="-44.3" font-family="Helvetica,sans-Serif" font-size="11.00" fill="#000000"> &#160;</text>
<polygon fill="#ffffff" stroke="transparent" points="121.5,-38.2 121.5,-57.2 162.5,-57.2 162.5,-38.2 121.5,-38.2"/>
<polygon fill="none" stroke="#000000" points="121.5,-38.2 121.5,-57.2 162.5,-57.2 162.5,-38.2 121.5,-38.2"/>
<text text-anchor="start" x="143.9053" y="-44.3" font-family="Helvetica,sans-Serif" font-size="11.00" fill="#000000">3 &gt;</text>
</a>
</g>
</g>
<!-- cor_uaa_role_role&#45;&gt;cor_uaa_role -->
<g id="edge2" class="edge">
<title>cor_uaa_role_role:w&#45;&gt;cor_uaa_role:e</title>
<path fill="none" stroke="#000000" d="M248.7473,-245.0356C214.916,-249.0541 203.0577,-266.2 162.5,-266.2"/>
<polygon fill="#000000" stroke="#000000" points="255.5128,-244.6524 263.7036,-247.7942 259.5064,-244.4262 263.5,-244.2 263.5,-244.2 263.5,-244.2 259.5064,-244.4262 263.2964,-240.6058 255.5128,-244.6524 255.5128,-244.6524"/>
<ellipse fill="none" stroke="#000000" cx="252.3179" cy="-244.8334" rx="3.2" ry="3.2"/>
</g>
<!-- cor_uaa_role_role&#45;&gt;cor_uaa_role -->
<g id="edge3" class="edge">
<title>cor_uaa_role_role:w&#45;&gt;cor_uaa_role:e</title>
<path fill="none" stroke="#000000" d="M248.9974,-266.2C215.5186,-266.2 202.1285,-266.2 162.5,-266.2"/>
<polygon fill="#000000" stroke="#000000" points="255.5,-266.2001 263.5,-269.8 259.5,-266.2 263.5,-266.2 263.5,-266.2 263.5,-266.2 259.5,-266.2 263.5,-262.6 255.5,-266.2001 255.5,-266.2001"/>
<ellipse fill="none" stroke="#000000" cx="252.3" cy="-266.2001" rx="3.2" ry="3.2"/>
</g>
<!-- cor_uaa_email -->
<g id="node4" class="node">
<title>cor_uaa_email</title>
<g id="a_node4"><a xlink:href="../../tables/cor_uaa_email.html" xlink:title="cor_uaa_email" target="_top">
<polygon fill="#ffffff" stroke="transparent" points="274,-869.2 274,-1131.2 407,-1131.2 407,-869.2 274,-869.2"/>
<polygon fill="#f5f5f5" stroke="transparent" points="274.5,-1108.2 274.5,-1131.2 407.5,-1131.2 407.5,-1108.2 274.5,-1108.2"/>
<polygon fill="none" stroke="#000000" points="274.5,-1108.2 274.5,-1131.2 407.5,-1131.2 407.5,-1108.2 274.5,-1108.2"/>
<text text-anchor="start" x="279.5" y="-1116.8" font-family="Helvetica,sans-Serif" font-weight="bold" font-size="11.00" fill="#000000">cor_uaa_email</text>
<text text-anchor="start" x="373.0219" y="-1116.3" font-family="Helvetica,sans-Serif" font-size="11.00" fill="#000000">[table]</text>
<polygon fill="none" stroke="#000000" points="274.5,-1086.2 274.5,-1108.2 407.5,-1108.2 407.5,-1086.2 274.5,-1086.2"/>
<image xlink:href="../../images/primaryKeys.png" width="11px" height="12px" preserveAspectRatio="xMinYMin meet" x="279.5" y="-1103.2"/>
<text text-anchor="start" x="303.5" y="-1093.3" font-family="Helvetica,sans-Serif" font-size="11.00" fill="#000000">c_pk</text>
<polygon fill="none" stroke="#000000" points="274.5,-1064.2 274.5,-1086.2 407.5,-1086.2 407.5,-1064.2 274.5,-1064.2"/>
<text text-anchor="start" x="303.5" y="-1071.3" font-family="Helvetica,sans-Serif" font-size="11.00" fill="#000000">c_created</text>
<polygon fill="none" stroke="#000000" points="274.5,-1042.2 274.5,-1064.2 407.5,-1064.2 407.5,-1042.2 274.5,-1042.2"/>
<text text-anchor="start" x="303.5" y="-1049.3" font-family="Helvetica,sans-Serif" font-size="11.00" fill="#000000">c_created_by</text>
<polygon fill="none" stroke="#000000" points="274.5,-1020.2 274.5,-1042.2 407.5,-1042.2 407.5,-1020.2 274.5,-1020.2"/>
<text text-anchor="start" x="303.5" y="-1027.3" font-family="Helvetica,sans-Serif" font-size="11.00" fill="#000000">c_updated_by</text>
<polygon fill="none" stroke="#000000" points="274.5,-998.2 274.5,-1020.2 407.5,-1020.2 407.5,-998.2 274.5,-998.2"/>
<text text-anchor="start" x="303.5" y="-1005.3" font-family="Helvetica,sans-Serif" font-size="11.00" fill="#000000">c_updated</text>
<polygon fill="none" stroke="#000000" points="274.5,-976.2 274.5,-998.2 407.5,-998.2 407.5,-976.2 274.5,-976.2"/>
<text text-anchor="start" x="303.5" y="-983.3" font-family="Helvetica,sans-Serif" font-size="11.00" fill="#000000">c_ol</text>
<polygon fill="#ffffff" stroke="transparent" points="274.5,-954.2 274.5,-976.2 407.5,-976.2 407.5,-954.2 274.5,-954.2"/>
<polygon fill="none" stroke="#000000" points="274.5,-954.2 274.5,-976.2 407.5,-976.2 407.5,-954.2 274.5,-954.2"/>
<text text-anchor="start" x="303.5" y="-961.3" font-family="Helvetica,sans-Serif" font-size="11.00" fill="#000000">c_address</text>
<polygon fill="none" stroke="#000000" points="274.5,-932.2 274.5,-954.2 407.5,-954.2 407.5,-932.2 274.5,-932.2"/>
<text text-anchor="start" x="303.5" y="-939.3" font-family="Helvetica,sans-Serif" font-size="11.00" fill="#000000">c_full_name</text>
<polygon fill="none" stroke="#000000" points="274.5,-910.2 274.5,-932.2 407.5,-932.2 407.5,-910.2 274.5,-910.2"/>
<text text-anchor="start" x="303.5" y="-917.3" font-family="Helvetica,sans-Serif" font-size="11.00" fill="#000000">c_primary</text>
<polygon fill="#ffffff" stroke="transparent" points="274.5,-888.2 274.5,-910.2 407.5,-910.2 407.5,-888.2 274.5,-888.2"/>
<polygon fill="none" stroke="#000000" points="274.5,-888.2 274.5,-910.2 407.5,-910.2 407.5,-888.2 274.5,-888.2"/>
<image xlink:href="../../images/foreignKeys.png" width="11px" height="12px" preserveAspectRatio="xMinYMin meet" x="279.5" y="-905.2"/>
<text text-anchor="start" x="303.5" y="-895.3" font-family="Helvetica,sans-Serif" font-size="11.00" fill="#000000">c_user_pk</text>
<polygon fill="#ffffff" stroke="transparent" points="274.5,-869.2 274.5,-888.2 339.5,-888.2 339.5,-869.2 274.5,-869.2"/>
<polygon fill="none" stroke="#000000" points="274.5,-869.2 274.5,-888.2 339.5,-888.2 339.5,-869.2 274.5,-869.2"/>
<text text-anchor="start" x="277.5" y="-875.3" font-family="Helvetica,sans-Serif" font-size="11.00" fill="#000000">&lt; 1</text>
<polygon fill="#ffffff" stroke="transparent" points="339.5,-869.2 339.5,-888.2 373.5,-888.2 373.5,-869.2 339.5,-869.2"/>
<polygon fill="none" stroke="#000000" points="339.5,-869.2 339.5,-888.2 373.5,-888.2 373.5,-869.2 339.5,-869.2"/>
<text text-anchor="start" x="364.3862" y="-875.3" font-family="Helvetica,sans-Serif" font-size="11.00" fill="#000000"> &#160;</text>
<polygon fill="#ffffff" stroke="transparent" points="373.5,-869.2 373.5,-888.2 407.5,-888.2 407.5,-869.2 373.5,-869.2"/>
<polygon fill="none" stroke="#000000" points="373.5,-869.2 373.5,-888.2 407.5,-888.2 407.5,-869.2 373.5,-869.2"/>
<text text-anchor="start" x="398.3862" y="-875.3" font-family="Helvetica,sans-Serif" font-size="11.00" fill="#000000"> &#160;</text>
</a>
</g>
</g>
<!-- cor_uaa_email&#45;&gt;cor_uaa_user -->
<g id="edge1" class="edge">
<title>cor_uaa_email:w&#45;&gt;cor_uaa_user:e</title>
<path fill="none" stroke="#000000" d="M260.0769,-899.2C235.2332,-899.2 224.1563,-899.2 193.5,-899.2"/>
<polygon fill="#000000" stroke="#000000" points="266.5,-899.2001 274.5,-902.8 270.5,-899.2 274.5,-899.2 274.5,-899.2 274.5,-899.2 270.5,-899.2 274.5,-895.6 266.5,-899.2001 266.5,-899.2001"/>
<ellipse fill="none" stroke="#000000" cx="263.3" cy="-899.2001" rx="3.2" ry="3.2"/>
</g>
<!-- cor_uaa_role_user -->
<g id="node6" class="node">
<title>cor_uaa_role_user</title>
<g id="a_node6"><a xlink:href="../../tables/cor_uaa_role_user.html" xlink:title="cor_uaa_role_user" target="_top">
<polygon fill="#ffffff" stroke="transparent" points="261,-321.2 261,-407.2 420,-407.2 420,-321.2 261,-321.2"/>
<polygon fill="#f5f5f5" stroke="transparent" points="261.5,-384.2 261.5,-407.2 420.5,-407.2 420.5,-384.2 261.5,-384.2"/>
<polygon fill="none" stroke="#000000" points="261.5,-384.2 261.5,-407.2 420.5,-407.2 420.5,-384.2 261.5,-384.2"/>
<text text-anchor="start" x="266.5" y="-392.8" font-family="Helvetica,sans-Serif" font-weight="bold" font-size="11.00" fill="#000000">cor_uaa_role_user</text>
<text text-anchor="start" x="386.0219" y="-392.3" font-family="Helvetica,sans-Serif" font-size="11.00" fill="#000000">[table]</text>
<polygon fill="none" stroke="#000000" points="261.5,-362.2 261.5,-384.2 420.5,-384.2 420.5,-362.2 261.5,-362.2"/>
<image xlink:href="../../images/primaryKeys.png" width="11px" height="12px" preserveAspectRatio="xMinYMin meet" x="266.5" y="-379.2"/>
<text text-anchor="start" x="290.5" y="-369.3" font-family="Helvetica,sans-Serif" font-size="11.00" fill="#000000">c_role_id</text>
<polygon fill="none" stroke="#000000" points="261.5,-340.2 261.5,-362.2 420.5,-362.2 420.5,-340.2 261.5,-340.2"/>
<image xlink:href="../../images/primaryKeys.png" width="11px" height="12px" preserveAspectRatio="xMinYMin meet" x="266.5" y="-357.2"/>
<text text-anchor="start" x="290.5" y="-347.3" font-family="Helvetica,sans-Serif" font-size="11.00" fill="#000000">c_user_id</text>
<polygon fill="#ffffff" stroke="transparent" points="261.5,-321.2 261.5,-340.2 339.5,-340.2 339.5,-321.2 261.5,-321.2"/>
<polygon fill="none" stroke="#000000" points="261.5,-321.2 261.5,-340.2 339.5,-340.2 339.5,-321.2 261.5,-321.2"/>
<text text-anchor="start" x="264.5" y="-327.3" font-family="Helvetica,sans-Serif" font-size="11.00" fill="#000000">&lt; 2</text>
<polygon fill="#ffffff" stroke="transparent" points="339.5,-321.2 339.5,-340.2 379.5,-340.2 379.5,-321.2 339.5,-321.2"/>
<polygon fill="none" stroke="#000000" points="339.5,-321.2 339.5,-340.2 379.5,-340.2 379.5,-321.2 339.5,-321.2"/>
<text text-anchor="start" x="370.3862" y="-327.3" font-family="Helvetica,sans-Serif" font-size="11.00" fill="#000000"> &#160;</text>
<polygon fill="#ffffff" stroke="transparent" points="379.5,-321.2 379.5,-340.2 420.5,-340.2 420.5,-321.2 379.5,-321.2"/>
<polygon fill="none" stroke="#000000" points="379.5,-321.2 379.5,-340.2 420.5,-340.2 420.5,-321.2 379.5,-321.2"/>
<text text-anchor="start" x="411.3862" y="-327.3" font-family="Helvetica,sans-Serif" font-size="11.00" fill="#000000"> &#160;</text>
</a>
</g>
</g>
<!-- cor_uaa_role_user&#45;&gt;cor_uaa_role -->
<g id="edge4" class="edge">
<title>cor_uaa_role_user:w&#45;&gt;cor_uaa_role:e</title>
<path fill="none" stroke="#000000" d="M247.0813,-371.0626C201.1749,-355.9821 221.8471,-266.2 162.5,-266.2"/>
<polygon fill="#000000" stroke="#000000" points="253.5865,-372.0269 260.9721,-376.7611 257.5432,-372.6134 261.5,-373.2 261.5,-373.2 261.5,-373.2 257.5432,-372.6134 262.0279,-369.6389 253.5865,-372.0269 253.5865,-372.0269"/>
<ellipse fill="none" stroke="#000000" cx="250.4211" cy="-371.5576" rx="3.2" ry="3.2"/>
</g>
<!-- cor_uaa_role_user&#45;&gt;cor_uaa_user -->
<g id="edge5" class="edge">
<title>cor_uaa_role_user:w&#45;&gt;cor_uaa_user:e</title>
<path fill="none" stroke="#000000" d="M247.2453,-354.9876C233.3371,-364.9804 240.0749,-393.0208 234,-418.2 221.421,-470.3376 247.1336,-899.2 193.5,-899.2"/>
<polygon fill="#000000" stroke="#000000" points="253.7683,-353.2544 262.4245,-354.6793 257.6341,-352.2272 261.5,-351.2 261.5,-351.2 261.5,-351.2 257.6341,-352.2272 260.5755,-347.7207 253.7683,-353.2544 253.7683,-353.2544"/>
<ellipse fill="none" stroke="#000000" cx="250.6756" cy="-354.0762" rx="3.2" ry="3.2"/>
</g>
</g>
</svg>
