<?xml version="1.0" encoding="UTF-8" standalone="no"?>
<!DOCTYPE svg PUBLIC "-//W3C//DTD SVG 1.1//EN"
 "http://www.w3.org/Graphics/SVG/1.1/DTD/svg11.dtd">
<!-- Generated by graphviz version 2.40.1 (20161225.0304)
 -->
<!-- Title: compactRelationshipsDiagram Pages: 1 -->
<svg width="455pt" height="558pt"
 viewBox="0.00 0.00 455.00 558.20" xmlns="http://www.w3.org/2000/svg" xmlns:xlink="http://www.w3.org/1999/xlink">
<g id="graph0" class="graph" transform="scale(1 1) rotate(0) translate(4 554.2)">
<title>compactRelationshipsDiagram</title>
<polygon fill="#ffffff" stroke="transparent" points="-4,4 -4,-554.2 451,-554.2 451,4 -4,4"/>
<text text-anchor="middle" x="72.4936" y="-7.3" font-family="Helvetica,sans-Serif" font-size="11.00" fill="#000000">Generated by SchemaSpy</text>
<!-- cor_uaa_user_password -->
<g id="node1" class="node">
<title>cor_uaa_user_password</title>
<g id="a_node1"><a xlink:href="../../tables/cor_uaa_user_password.html" xlink:title="cor_uaa_user_password" target="_top">
<polygon fill="#ffffff" stroke="transparent" points="242,-293.2 242,-398.2 439,-398.2 439,-293.2 242,-293.2"/>
<polygon fill="#f5f5f5" stroke="transparent" points="242.5,-374.7 242.5,-397.7 439.5,-397.7 439.5,-374.7 242.5,-374.7"/>
<polygon fill="none" stroke="#000000" points="242.5,-374.7 242.5,-397.7 439.5,-397.7 439.5,-374.7 242.5,-374.7"/>
<text text-anchor="start" x="247.5" y="-383.3" font-family="Helvetica,sans-Serif" font-weight="bold" font-size="11.00" fill="#000000">cor_uaa_user_password</text>
<text text-anchor="start" x="405.0219" y="-382.8" font-family="Helvetica,sans-Serif" font-size="11.00" fill="#000000">[table]</text>
<polygon fill="none" stroke="#000000" points="242.5,-352.7 242.5,-374.7 439.5,-374.7 439.5,-352.7 242.5,-352.7"/>
<image xlink:href="../../images/primaryKeys.png" width="11px" height="12px" preserveAspectRatio="xMinYMin meet" x="247.5" y="-369.7"/>
<text text-anchor="start" x="271.5" y="-359.8" font-family="Helvetica,sans-Serif" font-size="11.00" fill="#000000">c_pk</text>
<polygon fill="none" stroke="#000000" points="242.5,-330.7 242.5,-352.7 439.5,-352.7 439.5,-330.7 242.5,-330.7"/>
<image xlink:href="../../images/foreignKeys.png" width="11px" height="12px" preserveAspectRatio="xMinYMin meet" x="247.5" y="-347.7"/>
<text text-anchor="start" x="271.5" y="-337.8" font-family="Helvetica,sans-Serif" font-size="11.00" fill="#000000">c_username</text>
<polygon fill="none" stroke="#000000" points="242.5,-311.7 242.5,-330.7 439.5,-330.7 439.5,-311.7 242.5,-311.7"/>
<text text-anchor="start" x="245.5" y="-317.8" font-family="Helvetica,sans-Serif" font-size="11.00" fill="#000000">...</text>
<polygon fill="#ffffff" stroke="transparent" points="242.5,-292.7 242.5,-311.7 339.5,-311.7 339.5,-292.7 242.5,-292.7"/>
<polygon fill="none" stroke="#000000" points="242.5,-292.7 242.5,-311.7 339.5,-311.7 339.5,-292.7 242.5,-292.7"/>
<text text-anchor="start" x="245.5" y="-298.8" font-family="Helvetica,sans-Serif" font-size="11.00" fill="#000000">&lt; 1</text>
<polygon fill="#ffffff" stroke="transparent" points="339.5,-292.7 339.5,-311.7 389.5,-311.7 389.5,-292.7 339.5,-292.7"/>
<polygon fill="none" stroke="#000000" points="339.5,-292.7 339.5,-311.7 389.5,-311.7 389.5,-292.7 339.5,-292.7"/>
<text text-anchor="start" x="380.3862" y="-298.8" font-family="Helvetica,sans-Serif" font-size="11.00" fill="#000000"> &#160;</text>
<polygon fill="#ffffff" stroke="transparent" points="389.5,-292.7 389.5,-311.7 439.5,-311.7 439.5,-292.7 389.5,-292.7"/>
<polygon fill="none" stroke="#000000" points="389.5,-292.7 389.5,-311.7 439.5,-311.7 439.5,-292.7 389.5,-292.7"/>
<text text-anchor="start" x="430.3862" y="-298.8" font-family="Helvetica,sans-Serif" font-size="11.00" fill="#000000"> &#160;</text>
</a>
</g>
</g>
<!-- cor_uaa_user -->
<g id="node5" class="node">
<title>cor_uaa_user</title>
<g id="a_node5"><a xlink:href="../../tables/cor_uaa_user.html" xlink:title="cor_uaa_user" target="_top">
<polygon fill="#ffffff" stroke="transparent" points="8,-293.2 8,-420.2 193,-420.2 193,-293.2 8,-293.2"/>
<polygon fill="#f5f5f5" stroke="transparent" points="8.5,-396.7 8.5,-419.7 193.5,-419.7 193.5,-396.7 8.5,-396.7"/>
<polygon fill="none" stroke="#000000" points="8.5,-396.7 8.5,-419.7 193.5,-419.7 193.5,-396.7 8.5,-396.7"/>
<text text-anchor="start" x="13.5" y="-405.3" font-family="Helvetica,sans-Serif" font-weight="bold" font-size="11.00" fill="#000000">cor_uaa_user</text>
<text text-anchor="start" x="158.5437" y="-404.8" font-family="Helvetica,sans-Serif" font-size="11.00" fill="#000000">[table]</text>
<polygon fill="none" stroke="#000000" points="8.5,-374.7 8.5,-396.7 193.5,-396.7 193.5,-374.7 8.5,-374.7"/>
<image xlink:href="../../images/primaryKeys.png" width="11px" height="12px" preserveAspectRatio="xMinYMin meet" x="13.5" y="-391.7"/>
<text text-anchor="start" x="28.5" y="-381.8" font-family="Helvetica,sans-Serif" font-size="11.00" fill="#000000">c_pk</text>
<polygon fill="#ffffff" stroke="transparent" points="8.5,-352.7 8.5,-374.7 193.5,-374.7 193.5,-352.7 8.5,-352.7"/>
<polygon fill="none" stroke="#000000" points="8.5,-352.7 8.5,-374.7 193.5,-374.7 193.5,-352.7 8.5,-352.7"/>
<text text-anchor="start" x="28.5" y="-359.8" font-family="Helvetica,sans-Serif" font-size="11.00" fill="#000000">c_pid</text>
<polygon fill="#ffffff" stroke="transparent" points="8.5,-330.7 8.5,-352.7 193.5,-352.7 193.5,-330.7 8.5,-330.7"/>
<polygon fill="none" stroke="#000000" points="8.5,-330.7 8.5,-352.7 193.5,-352.7 193.5,-330.7 8.5,-330.7"/>
<text text-anchor="start" x="28.5" y="-337.8" font-family="Helvetica,sans-Serif" font-size="11.00" fill="#000000">c_username</text>
<polygon fill="none" stroke="#000000" points="8.5,-311.7 8.5,-330.7 193.5,-330.7 193.5,-311.7 8.5,-311.7"/>
<text text-anchor="start" x="11.5" y="-317.8" font-family="Helvetica,sans-Serif" font-size="11.00" fill="#000000">...</text>
<polygon fill="#ffffff" stroke="transparent" points="8.5,-292.7 8.5,-311.7 90.5,-311.7 90.5,-292.7 8.5,-292.7"/>
<polygon fill="none" stroke="#000000" points="8.5,-292.7 8.5,-311.7 90.5,-311.7 90.5,-292.7 8.5,-292.7"/>
<text text-anchor="start" x="11.5" y="-298.8" font-family="Helvetica,sans-Serif" font-size="11.00" fill="#000000"> &#160;</text>
<polygon fill="#ffffff" stroke="transparent" points="90.5,-292.7 90.5,-311.7 137.5,-311.7 137.5,-292.7 90.5,-292.7"/>
<polygon fill="none" stroke="#000000" points="90.5,-292.7 90.5,-311.7 137.5,-311.7 137.5,-292.7 90.5,-292.7"/>
<text text-anchor="start" x="128.3862" y="-298.8" font-family="Helvetica,sans-Serif" font-size="11.00" fill="#000000"> &#160;</text>
<polygon fill="#ffffff" stroke="transparent" points="137.5,-292.7 137.5,-311.7 193.5,-311.7 193.5,-292.7 137.5,-292.7"/>
<polygon fill="none" stroke="#000000" points="137.5,-292.7 137.5,-311.7 193.5,-311.7 193.5,-292.7 137.5,-292.7"/>
<text text-anchor="start" x="174.9053" y="-298.8" font-family="Helvetica,sans-Serif" font-size="11.00" fill="#000000">3 &gt;</text>
</a>
</g>
</g>
<!-- cor_uaa_user_password&#45;&gt;cor_uaa_user -->
<g id="edge6" class="edge">
<title>cor_uaa_user_password:w&#45;&gt;cor_uaa_user:e</title>
<path fill="none" stroke="#000000" d="M227.9909,-341.7C216.6774,-341.7 209.4931,-341.7 193.5,-341.7"/>
<polygon fill="#000000" stroke="#000000" points="234.5,-341.7001 242.5,-345.3 238.5,-341.7 242.5,-341.7 242.5,-341.7 242.5,-341.7 238.5,-341.7 242.5,-338.1 234.5,-341.7001 234.5,-341.7001"/>
<ellipse fill="none" stroke="#000000" cx="231.3" cy="-341.7001" rx="3.2" ry="3.2"/>
</g>
<!-- cor_uaa_role_role -->
<g id="node2" class="node">
<title>cor_uaa_role_role</title>
<g id="a_node2"><a xlink:href="../../tables/cor_uaa_role_role.html" xlink:title="cor_uaa_role_role" target="_top">
<polygon fill="#ffffff" stroke="transparent" points="263,-78.7 263,-164.7 418,-164.7 418,-78.7 263,-78.7"/>
<polygon fill="#f5f5f5" stroke="transparent" points="263.5,-141.7 263.5,-164.7 418.5,-164.7 418.5,-141.7 263.5,-141.7"/>
<polygon fill="none" stroke="#000000" points="263.5,-141.7 263.5,-164.7 418.5,-164.7 418.5,-141.7 263.5,-141.7"/>
<text text-anchor="start" x="268.5" y="-150.3" font-family="Helvetica,sans-Serif" font-weight="bold" font-size="11.00" fill="#000000">cor_uaa_role_role</text>
<text text-anchor="start" x="384.0219" y="-149.8" font-family="Helvetica,sans-Serif" font-size="11.00" fill="#000000">[table]</text>
<polygon fill="none" stroke="#000000" points="263.5,-119.7 263.5,-141.7 418.5,-141.7 418.5,-119.7 263.5,-119.7"/>
<image xlink:href="../../images/primaryKeys.png" width="11px" height="12px" preserveAspectRatio="xMinYMin meet" x="268.5" y="-136.7"/>
<text text-anchor="start" x="292.5" y="-126.8" font-family="Helvetica,sans-Serif" font-size="11.00" fill="#000000">c_role_id</text>
<polygon fill="none" stroke="#000000" points="263.5,-97.7 263.5,-119.7 418.5,-119.7 418.5,-97.7 263.5,-97.7"/>
<image xlink:href="../../images/primaryKeys.png" width="11px" height="12px" preserveAspectRatio="xMinYMin meet" x="268.5" y="-114.7"/>
<text text-anchor="start" x="292.5" y="-104.8" font-family="Helvetica,sans-Serif" font-size="11.00" fill="#000000">c_grant_id</text>
<polygon fill="#ffffff" stroke="transparent" points="263.5,-78.7 263.5,-97.7 339.5,-97.7 339.5,-78.7 263.5,-78.7"/>
<polygon fill="none" stroke="#000000" points="263.5,-78.7 263.5,-97.7 339.5,-97.7 339.5,-78.7 263.5,-78.7"/>
<text text-anchor="start" x="266.5" y="-84.8" font-family="Helvetica,sans-Serif" font-size="11.00" fill="#000000">&lt; 2</text>
<polygon fill="#ffffff" stroke="transparent" points="339.5,-78.7 339.5,-97.7 378.5,-97.7 378.5,-78.7 339.5,-78.7"/>
<polygon fill="none" stroke="#000000" points="339.5,-78.7 339.5,-97.7 378.5,-97.7 378.5,-78.7 339.5,-78.7"/>
<text text-anchor="start" x="369.3862" y="-84.8" font-family="Helvetica,sans-Serif" font-size="11.00" fill="#000000"> &#160;</text>
<polygon fill="#ffffff" stroke="transparent" points="378.5,-78.7 378.5,-97.7 418.5,-97.7 418.5,-78.7 378.5,-78.7"/>
<polygon fill="none" stroke="#000000" points="378.5,-78.7 378.5,-97.7 418.5,-97.7 418.5,-78.7 378.5,-78.7"/>
<text text-anchor="start" x="409.3862" y="-84.8" font-family="Helvetica,sans-Serif" font-size="11.00" fill="#000000"> &#160;</text>
</a>
</g>
</g>
<!-- cor_uaa_role -->
<g id="node3" class="node">
<title>cor_uaa_role</title>
<g id="a_node3"><a xlink:href="../../tables/cor_uaa_role.html" xlink:title="cor_uaa_role" target="_top">
<polygon fill="#ffffff" stroke="transparent" points="39,-38.2 39,-165.2 162,-165.2 162,-38.2 39,-38.2"/>
<polygon fill="#f5f5f5" stroke="transparent" points="39.5,-141.7 39.5,-164.7 162.5,-164.7 162.5,-141.7 39.5,-141.7"/>
<polygon fill="none" stroke="#000000" points="39.5,-141.7 39.5,-164.7 162.5,-164.7 162.5,-141.7 39.5,-141.7"/>
<text text-anchor="start" x="44.5" y="-150.3" font-family="Helvetica,sans-Serif" font-weight="bold" font-size="11.00" fill="#000000">cor_uaa_role</text>
<text text-anchor="start" x="128.0219" y="-149.8" font-family="Helvetica,sans-Serif" font-size="11.00" fill="#000000">[table]</text>
<polygon fill="none" stroke="#000000" points="39.5,-119.7 39.5,-141.7 162.5,-141.7 162.5,-119.7 39.5,-119.7"/>
<image xlink:href="../../images/primaryKeys.png" width="11px" height="12px" preserveAspectRatio="xMinYMin meet" x="44.5" y="-136.7"/>
<text text-anchor="start" x="65.5" y="-126.8" font-family="Helvetica,sans-Serif" font-size="11.00" fill="#000000">c_pk</text>
<polygon fill="#ffffff" stroke="transparent" points="39.5,-97.7 39.5,-119.7 162.5,-119.7 162.5,-97.7 39.5,-97.7"/>
<polygon fill="none" stroke="#000000" points="39.5,-97.7 39.5,-119.7 162.5,-119.7 162.5,-97.7 39.5,-97.7"/>
<text text-anchor="start" x="65.5" y="-104.8" font-family="Helvetica,sans-Serif" font-size="11.00" fill="#000000">c_pid</text>
<polygon fill="#ffffff" stroke="transparent" points="39.5,-75.7 39.5,-97.7 162.5,-97.7 162.5,-75.7 39.5,-75.7"/>
<polygon fill="none" stroke="#000000" points="39.5,-75.7 39.5,-97.7 162.5,-97.7 162.5,-75.7 39.5,-75.7"/>
<text text-anchor="start" x="65.5" y="-82.8" font-family="Helvetica,sans-Serif" font-size="11.00" fill="#000000">c_name</text>
<polygon fill="none" stroke="#000000" points="39.5,-56.7 39.5,-75.7 162.5,-75.7 162.5,-56.7 39.5,-56.7"/>
<text text-anchor="start" x="42.5" y="-62.8" font-family="Helvetica,sans-Serif" font-size="11.00" fill="#000000">...</text>
<polygon fill="#ffffff" stroke="transparent" points="39.5,-37.7 39.5,-56.7 90.5,-56.7 90.5,-37.7 39.5,-37.7"/>
<polygon fill="none" stroke="#000000" points="39.5,-37.7 39.5,-56.7 90.5,-56.7 90.5,-37.7 39.5,-37.7"/>
<text text-anchor="start" x="42.5" y="-43.8" font-family="Helvetica,sans-Serif" font-size="11.00" fill="#000000"> &#160;</text>
<polygon fill="#ffffff" stroke="transparent" points="90.5,-37.7 90.5,-56.7 121.5,-56.7 121.5,-37.7 90.5,-37.7"/>
<polygon fill="none" stroke="#000000" points="90.5,-37.7 90.5,-56.7 121.5,-56.7 121.5,-37.7 90.5,-37.7"/>
<text text-anchor="start" x="112.3862" y="-43.8" font-family="Helvetica,sans-Serif" font-size="11.00" fill="#000000"> &#160;</text>
<polygon fill="#ffffff" stroke="transparent" points="121.5,-37.7 121.5,-56.7 162.5,-56.7 162.5,-37.7 121.5,-37.7"/>
<polygon fill="none" stroke="#000000" points="121.5,-37.7 121.5,-56.7 162.5,-56.7 162.5,-37.7 121.5,-37.7"/>
<text text-anchor="start" x="143.9053" y="-43.8" font-family="Helvetica,sans-Serif" font-size="11.00" fill="#000000">3 &gt;</text>
</a>
</g>
</g>
<!-- cor_uaa_role_role&#45;&gt;cor_uaa_role -->
<g id="edge2" class="edge">
<title>cor_uaa_role_role:w&#45;&gt;cor_uaa_role:e</title>
<path fill="none" stroke="#000000" d="M248.7473,-109.5356C214.916,-113.5541 203.0577,-130.7 162.5,-130.7"/>
<polygon fill="#000000" stroke="#000000" points="255.5128,-109.1524 263.7036,-112.2942 259.5064,-108.9262 263.5,-108.7 263.5,-108.7 263.5,-108.7 259.5064,-108.9262 263.2964,-105.1058 255.5128,-109.1524 255.5128,-109.1524"/>
<ellipse fill="none" stroke="#000000" cx="252.3179" cy="-109.3334" rx="3.2" ry="3.2"/>
</g>
<!-- cor_uaa_role_role&#45;&gt;cor_uaa_role -->
<g id="edge3" class="edge">
<title>cor_uaa_role_role:w&#45;&gt;cor_uaa_role:e</title>
<path fill="none" stroke="#000000" d="M248.9974,-130.7C215.5186,-130.7 202.1285,-130.7 162.5,-130.7"/>
<polygon fill="#000000" stroke="#000000" points="255.5,-130.7001 263.5,-134.3 259.5,-130.7 263.5,-130.7 263.5,-130.7 263.5,-130.7 259.5,-130.7 263.5,-127.1 255.5,-130.7001 255.5,-130.7001"/>
<ellipse fill="none" stroke="#000000" cx="252.3" cy="-130.7001" rx="3.2" ry="3.2"/>
</g>
<!-- cor_uaa_email -->
<g id="node4" class="node">
<title>cor_uaa_email</title>
<g id="a_node4"><a xlink:href="../../tables/cor_uaa_email.html" xlink:title="cor_uaa_email" target="_top">
<polygon fill="#ffffff" stroke="transparent" points="274,-419.2 274,-546.2 407,-546.2 407,-419.2 274,-419.2"/>
<polygon fill="#f5f5f5" stroke="transparent" points="274.5,-522.7 274.5,-545.7 407.5,-545.7 407.5,-522.7 274.5,-522.7"/>
<polygon fill="none" stroke="#000000" points="274.5,-522.7 274.5,-545.7 407.5,-545.7 407.5,-522.7 274.5,-522.7"/>
<text text-anchor="start" x="279.5" y="-531.3" font-family="Helvetica,sans-Serif" font-weight="bold" font-size="11.00" fill="#000000">cor_uaa_email</text>
<text text-anchor="start" x="373.0219" y="-530.8" font-family="Helvetica,sans-Serif" font-size="11.00" fill="#000000">[table]</text>
<polygon fill="none" stroke="#000000" points="274.5,-500.7 274.5,-522.7 407.5,-522.7 407.5,-500.7 274.5,-500.7"/>
<image xlink:href="../../images/primaryKeys.png" width="11px" height="12px" preserveAspectRatio="xMinYMin meet" x="279.5" y="-517.7"/>
<text text-anchor="start" x="303.5" y="-507.8" font-family="Helvetica,sans-Serif" font-size="11.00" fill="#000000">c_pk</text>
<polygon fill="#ffffff" stroke="transparent" points="274.5,-478.7 274.5,-500.7 407.5,-500.7 407.5,-478.7 274.5,-478.7"/>
<polygon fill="none" stroke="#000000" points="274.5,-478.7 274.5,-500.7 407.5,-500.7 407.5,-478.7 274.5,-478.7"/>
<text text-anchor="start" x="303.5" y="-485.8" font-family="Helvetica,sans-Serif" font-size="11.00" fill="#000000">c_address</text>
<polygon fill="#ffffff" stroke="transparent" points="274.5,-456.7 274.5,-478.7 407.5,-478.7 407.5,-456.7 274.5,-456.7"/>
<polygon fill="none" stroke="#000000" points="274.5,-456.7 274.5,-478.7 407.5,-478.7 407.5,-456.7 274.5,-456.7"/>
<image xlink:href="../../images/foreignKeys.png" width="11px" height="12px" preserveAspectRatio="xMinYMin meet" x="279.5" y="-473.7"/>
<text text-anchor="start" x="303.5" y="-463.8" font-family="Helvetica,sans-Serif" font-size="11.00" fill="#000000">c_user_pk</text>
<polygon fill="none" stroke="#000000" points="274.5,-437.7 274.5,-456.7 407.5,-456.7 407.5,-437.7 274.5,-437.7"/>
<text text-anchor="start" x="277.5" y="-443.8" font-family="Helvetica,sans-Serif" font-size="11.00" fill="#000000">...</text>
<polygon fill="#ffffff" stroke="transparent" points="274.5,-418.7 274.5,-437.7 339.5,-437.7 339.5,-418.7 274.5,-418.7"/>
<polygon fill="none" stroke="#000000" points="274.5,-418.7 274.5,-437.7 339.5,-437.7 339.5,-418.7 274.5,-418.7"/>
<text text-anchor="start" x="277.5" y="-424.8" font-family="Helvetica,sans-Serif" font-size="11.00" fill="#000000">&lt; 1</text>
<polygon fill="#ffffff" stroke="transparent" points="339.5,-418.7 339.5,-437.7 373.5,-437.7 373.5,-418.7 339.5,-418.7"/>
<polygon fill="none" stroke="#000000" points="339.5,-418.7 339.5,-437.7 373.5,-437.7 373.5,-418.7 339.5,-418.7"/>
<text text-anchor="start" x="364.3862" y="-424.8" font-family="Helvetica,sans-Serif" font-size="11.00" fill="#000000"> &#160;</text>
<polygon fill="#ffffff" stroke="transparent" points="373.5,-418.7 373.5,-437.7 407.5,-437.7 407.5,-418.7 373.5,-418.7"/>
<polygon fill="none" stroke="#000000" points="373.5,-418.7 373.5,-437.7 407.5,-437.7 407.5,-418.7 373.5,-418.7"/>
<text text-anchor="start" x="398.3862" y="-424.8" font-family="Helvetica,sans-Serif" font-size="11.00" fill="#000000"> &#160;</text>
</a>
</g>
</g>
<!-- cor_uaa_email&#45;&gt;cor_uaa_user -->
<g id="edge1" class="edge">
<title>cor_uaa_email:w&#45;&gt;cor_uaa_user:e</title>
<path fill="none" stroke="#000000" d="M260.1094,-464.9717C227.0966,-450.7435 239.124,-385.7 193.5,-385.7"/>
<polygon fill="#000000" stroke="#000000" points="266.64,-466.2098 273.8294,-471.237 270.57,-466.9549 274.5,-467.7 274.5,-467.7 274.5,-467.7 270.57,-466.9549 275.1706,-464.163 266.64,-466.2098 266.64,-466.2098"/>
<ellipse fill="none" stroke="#000000" cx="263.496" cy="-465.6137" rx="3.2" ry="3.2"/>
</g>
<!-- cor_uaa_role_user -->
<g id="node6" class="node">
<title>cor_uaa_role_user</title>
<g id="a_node6"><a xlink:href="../../tables/cor_uaa_role_user.html" xlink:title="cor_uaa_role_user" target="_top">
<polygon fill="#ffffff" stroke="transparent" points="261,-185.7 261,-271.7 420,-271.7 420,-185.7 261,-185.7"/>
<polygon fill="#f5f5f5" stroke="transparent" points="261.5,-248.7 261.5,-271.7 420.5,-271.7 420.5,-248.7 261.5,-248.7"/>
<polygon fill="none" stroke="#000000" points="261.5,-248.7 261.5,-271.7 420.5,-271.7 420.5,-248.7 261.5,-248.7"/>
<text text-anchor="start" x="266.5" y="-257.3" font-family="Helvetica,sans-Serif" font-weight="bold" font-size="11.00" fill="#000000">cor_uaa_role_user</text>
<text text-anchor="start" x="386.0219" y="-256.8" font-family="Helvetica,sans-Serif" font-size="11.00" fill="#000000">[table]</text>
<polygon fill="none" stroke="#000000" points="261.5,-226.7 261.5,-248.7 420.5,-248.7 420.5,-226.7 261.5,-226.7"/>
<image xlink:href="../../images/primaryKeys.png" width="11px" height="12px" preserveAspectRatio="xMinYMin meet" x="266.5" y="-243.7"/>
<text text-anchor="start" x="290.5" y="-233.8" font-family="Helvetica,sans-Serif" font-size="11.00" fill="#000000">c_role_id</text>
<polygon fill="none" stroke="#000000" points="261.5,-204.7 261.5,-226.7 420.5,-226.7 420.5,-204.7 261.5,-204.7"/>
<image xlink:href="../../images/primaryKeys.png" width="11px" height="12px" preserveAspectRatio="xMinYMin meet" x="266.5" y="-221.7"/>
<text text-anchor="start" x="290.5" y="-211.8" font-family="Helvetica,sans-Serif" font-size="11.00" fill="#000000">c_user_id</text>
<polygon fill="#ffffff" stroke="transparent" points="261.5,-185.7 261.5,-204.7 339.5,-204.7 339.5,-185.7 261.5,-185.7"/>
<polygon fill="none" stroke="#000000" points="261.5,-185.7 261.5,-204.7 339.5,-204.7 339.5,-185.7 261.5,-185.7"/>
<text text-anchor="start" x="264.5" y="-191.8" font-family="Helvetica,sans-Serif" font-size="11.00" fill="#000000">&lt; 2</text>
<polygon fill="#ffffff" stroke="transparent" points="339.5,-185.7 339.5,-204.7 379.5,-204.7 379.5,-185.7 339.5,-185.7"/>
<polygon fill="none" stroke="#000000" points="339.5,-185.7 339.5,-204.7 379.5,-204.7 379.5,-185.7 339.5,-185.7"/>
<text text-anchor="start" x="370.3862" y="-191.8" font-family="Helvetica,sans-Serif" font-size="11.00" fill="#000000"> &#160;</text>
<polygon fill="#ffffff" stroke="transparent" points="379.5,-185.7 379.5,-204.7 420.5,-204.7 420.5,-185.7 379.5,-185.7"/>
<polygon fill="none" stroke="#000000" points="379.5,-185.7 379.5,-204.7 420.5,-204.7 420.5,-185.7 379.5,-185.7"/>
<text text-anchor="start" x="411.3862" y="-191.8" font-family="Helvetica,sans-Serif" font-size="11.00" fill="#000000"> &#160;</text>
</a>
</g>
</g>
<!-- cor_uaa_role_user&#45;&gt;cor_uaa_role -->
<g id="edge4" class="edge">
<title>cor_uaa_role_user:w&#45;&gt;cor_uaa_role:e</title>
<path fill="none" stroke="#000000" d="M247.0813,-235.5626C201.1749,-220.4821 221.8471,-130.7 162.5,-130.7"/>
<polygon fill="#000000" stroke="#000000" points="253.5865,-236.5269 260.9721,-241.2611 257.5432,-237.1134 261.5,-237.7 261.5,-237.7 261.5,-237.7 257.5432,-237.1134 262.0279,-234.1389 253.5865,-236.5269 253.5865,-236.5269"/>
<ellipse fill="none" stroke="#000000" cx="250.4211" cy="-236.0576" rx="3.2" ry="3.2"/>
</g>
<!-- cor_uaa_role_user&#45;&gt;cor_uaa_user -->
<g id="edge5" class="edge">
<title>cor_uaa_role_user:w&#45;&gt;cor_uaa_user:e</title>
<path fill="none" stroke="#000000" d="M247.1682,-217.9746C192.2555,-238.1478 269.313,-385.7 193.5,-385.7"/>
<polygon fill="#000000" stroke="#000000" points="253.5989,-216.954 262.0643,-219.2555 257.5494,-216.327 261.5,-215.7 261.5,-215.7 261.5,-215.7 257.5494,-216.327 260.9357,-212.1445 253.5989,-216.954 253.5989,-216.954"/>
<ellipse fill="none" stroke="#000000" cx="250.4384" cy="-217.4557" rx="3.2" ry="3.2"/>
</g>
</g>
</svg>
