<?xml version="1.0" encoding="UTF-8" standalone="no"?>
<!DOCTYPE svg PUBLIC "-//W3C//DTD SVG 1.1//EN"
 "http://www.w3.org/Graphics/SVG/1.1/DTD/svg11.dtd">
<!-- Generated by graphviz version 2.40.1 (20161225.0304)
 -->
<!-- Title: oneDegreeRelationshipsDiagram Pages: 1 -->
<svg width="461pt" height="377pt"
 viewBox="0.00 0.00 461.00 376.70" xmlns="http://www.w3.org/2000/svg" xmlns:xlink="http://www.w3.org/1999/xlink">
<g id="graph0" class="graph" transform="scale(1 1) rotate(0) translate(4 372.7)">
<title>oneDegreeRelationshipsDiagram</title>
<polygon fill="#ffffff" stroke="transparent" points="-4,4 -4,-372.7 457,-372.7 457,4 -4,4"/>
<text text-anchor="middle" x="72.4936" y="-7.3" font-family="Helvetica,sans-Serif" font-size="11.00" fill="#000000">Generated by SchemaSpy</text>
<!-- cor_uaa_email -->
<g id="node1" class="node">
<title>cor_uaa_email</title>
<g id="a_node1"><a xlink:href="../../tables/cor_uaa_email.html" xlink:title="cor_uaa_email" target="_top">
<polygon fill="#ffffff" stroke="transparent" points="242,-98.7 242,-364.7 445,-364.7 445,-98.7 242,-98.7"/>
<polygon fill="#f5f5f5" stroke="transparent" points="244.5,-339.7 244.5,-362.7 443.5,-362.7 443.5,-339.7 244.5,-339.7"/>
<polygon fill="none" stroke="#000000" points="244.5,-339.7 244.5,-362.7 443.5,-362.7 443.5,-339.7 244.5,-339.7"/>
<text text-anchor="start" x="249.5" y="-348.3" font-family="Helvetica,sans-Serif" font-weight="bold" font-size="11.00" fill="#000000">cor_uaa_email</text>
<text text-anchor="start" x="408.5437" y="-347.8" font-family="Helvetica,sans-Serif" font-size="11.00" fill="#000000">[table]</text>
<polygon fill="none" stroke="#000000" points="244.5,-317.7 244.5,-339.7 359.5,-339.7 359.5,-317.7 244.5,-317.7"/>
<image xlink:href="../../images/primaryKeys.png" width="11px" height="12px" preserveAspectRatio="xMinYMin meet" x="249.5" y="-334.7"/>
<text text-anchor="start" x="264.5" y="-324.8" font-family="Helvetica,sans-Serif" font-size="11.00" fill="#000000">c_pk</text>
<polygon fill="none" stroke="#000000" points="359.5,-317.7 359.5,-339.7 443.5,-339.7 443.5,-317.7 359.5,-317.7"/>
<text text-anchor="start" x="362.5" y="-325.4" font-family="Helvetica,sans-Serif" font-size="11.00" fill="#000000">int8[19]</text>
<polygon fill="none" stroke="#000000" points="244.5,-295.7 244.5,-317.7 359.5,-317.7 359.5,-295.7 244.5,-295.7"/>
<text text-anchor="start" x="264.5" y="-302.8" font-family="Helvetica,sans-Serif" font-size="11.00" fill="#000000">c_created</text>
<polygon fill="none" stroke="#000000" points="359.5,-295.7 359.5,-317.7 443.5,-317.7 443.5,-295.7 359.5,-295.7"/>
<text text-anchor="start" x="362.3807" y="-303.4" font-family="Helvetica,sans-Serif" font-size="11.00" fill="#000000">timestamp[29,6]</text>
<polygon fill="none" stroke="#000000" points="244.5,-273.7 244.5,-295.7 359.5,-295.7 359.5,-273.7 244.5,-273.7"/>
<text text-anchor="start" x="264.5" y="-280.8" font-family="Helvetica,sans-Serif" font-size="11.00" fill="#000000">c_created_by</text>
<polygon fill="none" stroke="#000000" points="359.5,-273.7 359.5,-295.7 443.5,-295.7 443.5,-273.7 359.5,-273.7"/>
<text text-anchor="start" x="362.5" y="-281.4" font-family="Helvetica,sans-Serif" font-size="11.00" fill="#000000">varchar[255]</text>
<polygon fill="none" stroke="#000000" points="244.5,-251.7 244.5,-273.7 359.5,-273.7 359.5,-251.7 244.5,-251.7"/>
<text text-anchor="start" x="264.5" y="-258.8" font-family="Helvetica,sans-Serif" font-size="11.00" fill="#000000">c_updated_by</text>
<polygon fill="none" stroke="#000000" points="359.5,-251.7 359.5,-273.7 443.5,-273.7 443.5,-251.7 359.5,-251.7"/>
<text text-anchor="start" x="362.5" y="-259.4" font-family="Helvetica,sans-Serif" font-size="11.00" fill="#000000">varchar[255]</text>
<polygon fill="none" stroke="#000000" points="244.5,-229.7 244.5,-251.7 359.5,-251.7 359.5,-229.7 244.5,-229.7"/>
<text text-anchor="start" x="264.5" y="-236.8" font-family="Helvetica,sans-Serif" font-size="11.00" fill="#000000">c_updated</text>
<polygon fill="none" stroke="#000000" points="359.5,-229.7 359.5,-251.7 443.5,-251.7 443.5,-229.7 359.5,-229.7"/>
<text text-anchor="start" x="362.3807" y="-237.4" font-family="Helvetica,sans-Serif" font-size="11.00" fill="#000000">timestamp[29,6]</text>
<polygon fill="none" stroke="#000000" points="244.5,-207.7 244.5,-229.7 359.5,-229.7 359.5,-207.7 244.5,-207.7"/>
<text text-anchor="start" x="264.5" y="-214.8" font-family="Helvetica,sans-Serif" font-size="11.00" fill="#000000">c_ol</text>
<polygon fill="none" stroke="#000000" points="359.5,-207.7 359.5,-229.7 443.5,-229.7 443.5,-207.7 359.5,-207.7"/>
<text text-anchor="start" x="362.5" y="-215.4" font-family="Helvetica,sans-Serif" font-size="11.00" fill="#000000">int8[19]</text>
<polygon fill="#ffffff" stroke="transparent" points="244.5,-185.7 244.5,-207.7 359.5,-207.7 359.5,-185.7 244.5,-185.7"/>
<polygon fill="none" stroke="#000000" points="244.5,-185.7 244.5,-207.7 359.5,-207.7 359.5,-185.7 244.5,-185.7"/>
<text text-anchor="start" x="264.5" y="-192.8" font-family="Helvetica,sans-Serif" font-size="11.00" fill="#000000">c_address</text>
<polygon fill="none" stroke="#000000" points="359.5,-185.7 359.5,-207.7 443.5,-207.7 443.5,-185.7 359.5,-185.7"/>
<text text-anchor="start" x="362.5" y="-193.4" font-family="Helvetica,sans-Serif" font-size="11.00" fill="#000000">varchar[255]</text>
<polygon fill="none" stroke="#000000" points="244.5,-163.7 244.5,-185.7 359.5,-185.7 359.5,-163.7 244.5,-163.7"/>
<text text-anchor="start" x="264.5" y="-170.8" font-family="Helvetica,sans-Serif" font-size="11.00" fill="#000000">c_full_name</text>
<polygon fill="none" stroke="#000000" points="359.5,-163.7 359.5,-185.7 443.5,-185.7 443.5,-163.7 359.5,-163.7"/>
<text text-anchor="start" x="362.5" y="-171.4" font-family="Helvetica,sans-Serif" font-size="11.00" fill="#000000">varchar[255]</text>
<polygon fill="none" stroke="#000000" points="244.5,-141.7 244.5,-163.7 359.5,-163.7 359.5,-141.7 244.5,-141.7"/>
<text text-anchor="start" x="264.5" y="-148.8" font-family="Helvetica,sans-Serif" font-size="11.00" fill="#000000">c_primary</text>
<polygon fill="none" stroke="#000000" points="359.5,-141.7 359.5,-163.7 443.5,-163.7 443.5,-141.7 359.5,-141.7"/>
<text text-anchor="start" x="362.5" y="-149.4" font-family="Helvetica,sans-Serif" font-size="11.00" fill="#000000">bool[1]</text>
<polygon fill="#ffffff" stroke="transparent" points="244.5,-119.7 244.5,-141.7 359.5,-141.7 359.5,-119.7 244.5,-119.7"/>
<polygon fill="none" stroke="#000000" points="244.5,-119.7 244.5,-141.7 359.5,-141.7 359.5,-119.7 244.5,-119.7"/>
<image xlink:href="../../images/foreignKeys.png" width="11px" height="12px" preserveAspectRatio="xMinYMin meet" x="249.5" y="-136.7"/>
<text text-anchor="start" x="264.5" y="-126.8" font-family="Helvetica,sans-Serif" font-size="11.00" fill="#000000">c_user_pk</text>
<polygon fill="none" stroke="#000000" points="359.5,-119.7 359.5,-141.7 443.5,-141.7 443.5,-119.7 359.5,-119.7"/>
<text text-anchor="start" x="362.5" y="-127.4" font-family="Helvetica,sans-Serif" font-size="11.00" fill="#000000">int8[19]</text>
<polygon fill="#ffffff" stroke="transparent" points="244.5,-100.7 244.5,-119.7 306.5,-119.7 306.5,-100.7 244.5,-100.7"/>
<polygon fill="none" stroke="#000000" points="244.5,-100.7 244.5,-119.7 306.5,-119.7 306.5,-100.7 244.5,-100.7"/>
<text text-anchor="start" x="247.5" y="-106.8" font-family="Helvetica,sans-Serif" font-size="11.00" fill="#000000">&lt; 1</text>
<polygon fill="#ffffff" stroke="transparent" points="306.5,-100.7 306.5,-119.7 359.5,-119.7 359.5,-100.7 306.5,-100.7"/>
<polygon fill="none" stroke="#000000" points="306.5,-100.7 306.5,-119.7 359.5,-119.7 359.5,-100.7 306.5,-100.7"/>
<text text-anchor="start" x="350.3862" y="-106.8" font-family="Helvetica,sans-Serif" font-size="11.00" fill="#000000"> &#160;</text>
<polygon fill="#ffffff" stroke="transparent" points="359.5,-100.7 359.5,-119.7 443.5,-119.7 443.5,-100.7 359.5,-100.7"/>
<polygon fill="none" stroke="#000000" points="359.5,-100.7 359.5,-119.7 443.5,-119.7 443.5,-100.7 359.5,-100.7"/>
<text text-anchor="start" x="424.9053" y="-106.8" font-family="Helvetica,sans-Serif" font-size="11.00" fill="#000000">0 &gt;</text>
<polygon fill="none" stroke="#000000" stroke-width="2" points="243,-99.7 243,-363.7 444,-363.7 444,-99.7 243,-99.7"/>
</a>
</g>
</g>
<!-- cor_uaa_user -->
<g id="node2" class="node">
<title>cor_uaa_user</title>
<g id="a_node2"><a xlink:href="../../tables/cor_uaa_user.html" xlink:title="cor_uaa_user" target="_top">
<polygon fill="#ffffff" stroke="transparent" points="8,-38.2 8,-165.2 193,-165.2 193,-38.2 8,-38.2"/>
<polygon fill="#f5f5f5" stroke="transparent" points="8.5,-141.7 8.5,-164.7 193.5,-164.7 193.5,-141.7 8.5,-141.7"/>
<polygon fill="none" stroke="#000000" points="8.5,-141.7 8.5,-164.7 193.5,-164.7 193.5,-141.7 8.5,-141.7"/>
<text text-anchor="start" x="13.5" y="-150.3" font-family="Helvetica,sans-Serif" font-weight="bold" font-size="11.00" fill="#000000">cor_uaa_user</text>
<text text-anchor="start" x="158.5437" y="-149.8" font-family="Helvetica,sans-Serif" font-size="11.00" fill="#000000">[table]</text>
<polygon fill="none" stroke="#000000" points="8.5,-119.7 8.5,-141.7 193.5,-141.7 193.5,-119.7 8.5,-119.7"/>
<image xlink:href="../../images/primaryKeys.png" width="11px" height="12px" preserveAspectRatio="xMinYMin meet" x="13.5" y="-136.7"/>
<text text-anchor="start" x="28.5" y="-126.8" font-family="Helvetica,sans-Serif" font-size="11.00" fill="#000000">c_pk</text>
<polygon fill="#ffffff" stroke="transparent" points="8.5,-97.7 8.5,-119.7 193.5,-119.7 193.5,-97.7 8.5,-97.7"/>
<polygon fill="none" stroke="#000000" points="8.5,-97.7 8.5,-119.7 193.5,-119.7 193.5,-97.7 8.5,-97.7"/>
<text text-anchor="start" x="28.5" y="-104.8" font-family="Helvetica,sans-Serif" font-size="11.00" fill="#000000">c_pid</text>
<polygon fill="#ffffff" stroke="transparent" points="8.5,-75.7 8.5,-97.7 193.5,-97.7 193.5,-75.7 8.5,-75.7"/>
<polygon fill="none" stroke="#000000" points="8.5,-75.7 8.5,-97.7 193.5,-97.7 193.5,-75.7 8.5,-75.7"/>
<text text-anchor="start" x="28.5" y="-82.8" font-family="Helvetica,sans-Serif" font-size="11.00" fill="#000000">c_username</text>
<polygon fill="none" stroke="#000000" points="8.5,-56.7 8.5,-75.7 193.5,-75.7 193.5,-56.7 8.5,-56.7"/>
<text text-anchor="start" x="11.5" y="-62.8" font-family="Helvetica,sans-Serif" font-size="11.00" fill="#000000">...</text>
<polygon fill="#ffffff" stroke="transparent" points="8.5,-37.7 8.5,-56.7 90.5,-56.7 90.5,-37.7 8.5,-37.7"/>
<polygon fill="none" stroke="#000000" points="8.5,-37.7 8.5,-56.7 90.5,-56.7 90.5,-37.7 8.5,-37.7"/>
<text text-anchor="start" x="11.5" y="-43.8" font-family="Helvetica,sans-Serif" font-size="11.00" fill="#000000"> &#160;</text>
<polygon fill="#ffffff" stroke="transparent" points="90.5,-37.7 90.5,-56.7 137.5,-56.7 137.5,-37.7 90.5,-37.7"/>
<polygon fill="none" stroke="#000000" points="90.5,-37.7 90.5,-56.7 137.5,-56.7 137.5,-37.7 90.5,-37.7"/>
<text text-anchor="start" x="128.3862" y="-43.8" font-family="Helvetica,sans-Serif" font-size="11.00" fill="#000000"> &#160;</text>
<polygon fill="#ffffff" stroke="transparent" points="137.5,-37.7 137.5,-56.7 193.5,-56.7 193.5,-37.7 137.5,-37.7"/>
<polygon fill="none" stroke="#000000" points="137.5,-37.7 137.5,-56.7 193.5,-56.7 193.5,-37.7 137.5,-37.7"/>
<text text-anchor="start" x="174.9053" y="-43.8" font-family="Helvetica,sans-Serif" font-size="11.00" fill="#000000">3 &gt;</text>
</a>
</g>
</g>
<!-- cor_uaa_email&#45;&gt;cor_uaa_user -->
<g id="edge1" class="edge">
<title>cor_uaa_email:w&#45;&gt;cor_uaa_user:e</title>
<path fill="none" stroke="#000000" d="M229.776,-130.7C217.7815,-130.7 210.3229,-130.7 193.5,-130.7"/>
<polygon fill="#000000" stroke="#000000" points="236.5,-130.7001 244.5,-134.3 240.5,-130.7 244.5,-130.7 244.5,-130.7 244.5,-130.7 240.5,-130.7 244.5,-127.1 236.5,-130.7001 236.5,-130.7001"/>
<ellipse fill="none" stroke="#000000" cx="233.3" cy="-130.7001" rx="3.2" ry="3.2"/>
</g>
</g>
</svg>
