<?xml version="1.0" encoding="UTF-8" standalone="no"?>
<!DOCTYPE svg PUBLIC "-//W3C//DTD SVG 1.1//EN"
 "http://www.w3.org/Graphics/SVG/1.1/DTD/svg11.dtd">
<!-- Generated by graphviz version 2.40.1 (20161225.0304)
 -->
<!-- Title: oneDegreeRelationshipsDiagram Pages: 1 -->
<svg width="533pt" height="311pt"
 viewBox="0.00 0.00 533.00 310.70" xmlns="http://www.w3.org/2000/svg" xmlns:xlink="http://www.w3.org/1999/xlink">
<g id="graph0" class="graph" transform="scale(1 1) rotate(0) translate(4 306.7)">
<title>oneDegreeRelationshipsDiagram</title>
<polygon fill="#ffffff" stroke="transparent" points="-4,4 -4,-306.7 529,-306.7 529,4 -4,4"/>
<text text-anchor="middle" x="72.4936" y="-7.3" font-family="Helvetica,sans-Serif" font-size="11.00" fill="#000000">Generated by SchemaSpy</text>
<!-- cor_uaa_user_password -->
<g id="node1" class="node">
<title>cor_uaa_user_password</title>
<g id="a_node1"><a xlink:href="../../tables/cor_uaa_user_password.html" xlink:title="cor_uaa_user_password" target="_top">
<polygon fill="#ffffff" stroke="transparent" points="242,-54.7 242,-298.7 517,-298.7 517,-54.7 242,-54.7"/>
<polygon fill="#f5f5f5" stroke="transparent" points="244.5,-273.7 244.5,-296.7 515.5,-296.7 515.5,-273.7 244.5,-273.7"/>
<polygon fill="none" stroke="#000000" points="244.5,-273.7 244.5,-296.7 515.5,-296.7 515.5,-273.7 244.5,-273.7"/>
<text text-anchor="start" x="249.5" y="-282.3" font-family="Helvetica,sans-Serif" font-weight="bold" font-size="11.00" fill="#000000">cor_uaa_user_password</text>
<text text-anchor="start" x="480.5437" y="-281.8" font-family="Helvetica,sans-Serif" font-size="11.00" fill="#000000">[table]</text>
<polygon fill="none" stroke="#000000" points="244.5,-251.7 244.5,-273.7 423.5,-273.7 423.5,-251.7 244.5,-251.7"/>
<image xlink:href="../../images/primaryKeys.png" width="11px" height="12px" preserveAspectRatio="xMinYMin meet" x="249.5" y="-268.7"/>
<text text-anchor="start" x="264.5" y="-258.8" font-family="Helvetica,sans-Serif" font-size="11.00" fill="#000000">c_pk</text>
<polygon fill="none" stroke="#000000" points="423.5,-251.7 423.5,-273.7 515.5,-273.7 515.5,-251.7 423.5,-251.7"/>
<text text-anchor="start" x="426.5" y="-259.4" font-family="Helvetica,sans-Serif" font-size="11.00" fill="#000000">int8[19]</text>
<polygon fill="none" stroke="#000000" points="244.5,-229.7 244.5,-251.7 423.5,-251.7 423.5,-229.7 244.5,-229.7"/>
<text text-anchor="start" x="264.5" y="-236.8" font-family="Helvetica,sans-Serif" font-size="11.00" fill="#000000">c_created</text>
<polygon fill="none" stroke="#000000" points="423.5,-229.7 423.5,-251.7 515.5,-251.7 515.5,-229.7 423.5,-229.7"/>
<text text-anchor="start" x="426.5" y="-237.4" font-family="Helvetica,sans-Serif" font-size="11.00" fill="#000000">timestamp[29,6]</text>
<polygon fill="none" stroke="#000000" points="244.5,-207.7 244.5,-229.7 423.5,-229.7 423.5,-207.7 244.5,-207.7"/>
<text text-anchor="start" x="264.5" y="-214.8" font-family="Helvetica,sans-Serif" font-size="11.00" fill="#000000">c_created_by</text>
<polygon fill="none" stroke="#000000" points="423.5,-207.7 423.5,-229.7 515.5,-229.7 515.5,-207.7 423.5,-207.7"/>
<text text-anchor="start" x="426.5" y="-215.4" font-family="Helvetica,sans-Serif" font-size="11.00" fill="#000000">varchar[255]</text>
<polygon fill="none" stroke="#000000" points="244.5,-185.7 244.5,-207.7 423.5,-207.7 423.5,-185.7 244.5,-185.7"/>
<text text-anchor="start" x="264.5" y="-192.8" font-family="Helvetica,sans-Serif" font-size="11.00" fill="#000000">c_updated_by</text>
<polygon fill="none" stroke="#000000" points="423.5,-185.7 423.5,-207.7 515.5,-207.7 515.5,-185.7 423.5,-185.7"/>
<text text-anchor="start" x="426.5" y="-193.4" font-family="Helvetica,sans-Serif" font-size="11.00" fill="#000000">varchar[255]</text>
<polygon fill="none" stroke="#000000" points="244.5,-163.7 244.5,-185.7 423.5,-185.7 423.5,-163.7 244.5,-163.7"/>
<text text-anchor="start" x="264.5" y="-170.8" font-family="Helvetica,sans-Serif" font-size="11.00" fill="#000000">c_updated</text>
<polygon fill="none" stroke="#000000" points="423.5,-163.7 423.5,-185.7 515.5,-185.7 515.5,-163.7 423.5,-163.7"/>
<text text-anchor="start" x="426.5" y="-171.4" font-family="Helvetica,sans-Serif" font-size="11.00" fill="#000000">timestamp[29,6]</text>
<polygon fill="none" stroke="#000000" points="244.5,-141.7 244.5,-163.7 423.5,-163.7 423.5,-141.7 244.5,-141.7"/>
<text text-anchor="start" x="264.5" y="-148.8" font-family="Helvetica,sans-Serif" font-size="11.00" fill="#000000">c_ol</text>
<polygon fill="none" stroke="#000000" points="423.5,-141.7 423.5,-163.7 515.5,-163.7 515.5,-141.7 423.5,-141.7"/>
<text text-anchor="start" x="426.5" y="-149.4" font-family="Helvetica,sans-Serif" font-size="11.00" fill="#000000">int8[19]</text>
<polygon fill="none" stroke="#000000" points="244.5,-119.7 244.5,-141.7 423.5,-141.7 423.5,-119.7 244.5,-119.7"/>
<text text-anchor="start" x="264.5" y="-126.8" font-family="Helvetica,sans-Serif" font-size="11.00" fill="#000000">c_password</text>
<polygon fill="none" stroke="#000000" points="423.5,-119.7 423.5,-141.7 515.5,-141.7 515.5,-119.7 423.5,-119.7"/>
<text text-anchor="start" x="426.5" y="-127.4" font-family="Helvetica,sans-Serif" font-size="11.00" fill="#000000">varchar[255]</text>
<polygon fill="none" stroke="#000000" points="244.5,-97.7 244.5,-119.7 423.5,-119.7 423.5,-97.7 244.5,-97.7"/>
<text text-anchor="start" x="264.5" y="-104.8" font-family="Helvetica,sans-Serif" font-size="11.00" fill="#000000">c_password_changed</text>
<polygon fill="none" stroke="#000000" points="423.5,-97.7 423.5,-119.7 515.5,-119.7 515.5,-97.7 423.5,-97.7"/>
<text text-anchor="start" x="426.1023" y="-105.4" font-family="Helvetica,sans-Serif" font-size="11.00" fill="#000000">timestamptz[35,6]</text>
<polygon fill="none" stroke="#000000" points="244.5,-75.7 244.5,-97.7 423.5,-97.7 423.5,-75.7 244.5,-75.7"/>
<image xlink:href="../../images/foreignKeys.png" width="11px" height="12px" preserveAspectRatio="xMinYMin meet" x="249.5" y="-92.7"/>
<text text-anchor="start" x="264.5" y="-82.8" font-family="Helvetica,sans-Serif" font-size="11.00" fill="#000000">c_username</text>
<polygon fill="none" stroke="#000000" points="423.5,-75.7 423.5,-97.7 515.5,-97.7 515.5,-75.7 423.5,-75.7"/>
<text text-anchor="start" x="426.5" y="-83.4" font-family="Helvetica,sans-Serif" font-size="11.00" fill="#000000">varchar[255]</text>
<polygon fill="#ffffff" stroke="transparent" points="244.5,-56.7 244.5,-75.7 338.5,-75.7 338.5,-56.7 244.5,-56.7"/>
<polygon fill="none" stroke="#000000" points="244.5,-56.7 244.5,-75.7 338.5,-75.7 338.5,-56.7 244.5,-56.7"/>
<text text-anchor="start" x="247.5" y="-62.8" font-family="Helvetica,sans-Serif" font-size="11.00" fill="#000000">&lt; 1</text>
<polygon fill="#ffffff" stroke="transparent" points="338.5,-56.7 338.5,-75.7 423.5,-75.7 423.5,-56.7 338.5,-56.7"/>
<polygon fill="none" stroke="#000000" points="338.5,-56.7 338.5,-75.7 423.5,-75.7 423.5,-56.7 338.5,-56.7"/>
<text text-anchor="start" x="414.3862" y="-62.8" font-family="Helvetica,sans-Serif" font-size="11.00" fill="#000000"> &#160;</text>
<polygon fill="#ffffff" stroke="transparent" points="423.5,-56.7 423.5,-75.7 515.5,-75.7 515.5,-56.7 423.5,-56.7"/>
<polygon fill="none" stroke="#000000" points="423.5,-56.7 423.5,-75.7 515.5,-75.7 515.5,-56.7 423.5,-56.7"/>
<text text-anchor="start" x="496.9053" y="-62.8" font-family="Helvetica,sans-Serif" font-size="11.00" fill="#000000">0 &gt;</text>
<polygon fill="none" stroke="#000000" stroke-width="2" points="243,-55.7 243,-297.7 516,-297.7 516,-55.7 243,-55.7"/>
</a>
</g>
</g>
<!-- cor_uaa_user -->
<g id="node2" class="node">
<title>cor_uaa_user</title>
<g id="a_node2"><a xlink:href="../../tables/cor_uaa_user.html" xlink:title="cor_uaa_user" target="_top">
<polygon fill="#ffffff" stroke="transparent" points="8,-38.2 8,-165.2 193,-165.2 193,-38.2 8,-38.2"/>
<polygon fill="#f5f5f5" stroke="transparent" points="8.5,-141.7 8.5,-164.7 193.5,-164.7 193.5,-141.7 8.5,-141.7"/>
<polygon fill="none" stroke="#000000" points="8.5,-141.7 8.5,-164.7 193.5,-164.7 193.5,-141.7 8.5,-141.7"/>
<text text-anchor="start" x="13.5" y="-150.3" font-family="Helvetica,sans-Serif" font-weight="bold" font-size="11.00" fill="#000000">cor_uaa_user</text>
<text text-anchor="start" x="158.5437" y="-149.8" font-family="Helvetica,sans-Serif" font-size="11.00" fill="#000000">[table]</text>
<polygon fill="none" stroke="#000000" points="8.5,-119.7 8.5,-141.7 193.5,-141.7 193.5,-119.7 8.5,-119.7"/>
<image xlink:href="../../images/primaryKeys.png" width="11px" height="12px" preserveAspectRatio="xMinYMin meet" x="13.5" y="-136.7"/>
<text text-anchor="start" x="28.5" y="-126.8" font-family="Helvetica,sans-Serif" font-size="11.00" fill="#000000">c_pk</text>
<polygon fill="#ffffff" stroke="transparent" points="8.5,-97.7 8.5,-119.7 193.5,-119.7 193.5,-97.7 8.5,-97.7"/>
<polygon fill="none" stroke="#000000" points="8.5,-97.7 8.5,-119.7 193.5,-119.7 193.5,-97.7 8.5,-97.7"/>
<text text-anchor="start" x="28.5" y="-104.8" font-family="Helvetica,sans-Serif" font-size="11.00" fill="#000000">c_pid</text>
<polygon fill="#ffffff" stroke="transparent" points="8.5,-75.7 8.5,-97.7 193.5,-97.7 193.5,-75.7 8.5,-75.7"/>
<polygon fill="none" stroke="#000000" points="8.5,-75.7 8.5,-97.7 193.5,-97.7 193.5,-75.7 8.5,-75.7"/>
<text text-anchor="start" x="28.5" y="-82.8" font-family="Helvetica,sans-Serif" font-size="11.00" fill="#000000">c_username</text>
<polygon fill="none" stroke="#000000" points="8.5,-56.7 8.5,-75.7 193.5,-75.7 193.5,-56.7 8.5,-56.7"/>
<text text-anchor="start" x="11.5" y="-62.8" font-family="Helvetica,sans-Serif" font-size="11.00" fill="#000000">...</text>
<polygon fill="#ffffff" stroke="transparent" points="8.5,-37.7 8.5,-56.7 90.5,-56.7 90.5,-37.7 8.5,-37.7"/>
<polygon fill="none" stroke="#000000" points="8.5,-37.7 8.5,-56.7 90.5,-56.7 90.5,-37.7 8.5,-37.7"/>
<text text-anchor="start" x="11.5" y="-43.8" font-family="Helvetica,sans-Serif" font-size="11.00" fill="#000000"> &#160;</text>
<polygon fill="#ffffff" stroke="transparent" points="90.5,-37.7 90.5,-56.7 137.5,-56.7 137.5,-37.7 90.5,-37.7"/>
<polygon fill="none" stroke="#000000" points="90.5,-37.7 90.5,-56.7 137.5,-56.7 137.5,-37.7 90.5,-37.7"/>
<text text-anchor="start" x="128.3862" y="-43.8" font-family="Helvetica,sans-Serif" font-size="11.00" fill="#000000"> &#160;</text>
<polygon fill="#ffffff" stroke="transparent" points="137.5,-37.7 137.5,-56.7 193.5,-56.7 193.5,-37.7 137.5,-37.7"/>
<polygon fill="none" stroke="#000000" points="137.5,-37.7 137.5,-56.7 193.5,-56.7 193.5,-37.7 137.5,-37.7"/>
<text text-anchor="start" x="174.9053" y="-43.8" font-family="Helvetica,sans-Serif" font-size="11.00" fill="#000000">3 &gt;</text>
</a>
</g>
</g>
<!-- cor_uaa_user_password&#45;&gt;cor_uaa_user -->
<g id="edge1" class="edge">
<title>cor_uaa_user_password:w&#45;&gt;cor_uaa_user:e</title>
<path fill="none" stroke="#000000" d="M229.776,-86.7C217.7815,-86.7 210.3229,-86.7 193.5,-86.7"/>
<polygon fill="#000000" stroke="#000000" points="236.5,-86.7001 244.5,-90.3 240.5,-86.7 244.5,-86.7 244.5,-86.7 244.5,-86.7 240.5,-86.7 244.5,-83.1 236.5,-86.7001 236.5,-86.7001"/>
<ellipse fill="none" stroke="#000000" cx="233.3" cy="-86.7001" rx="3.2" ry="3.2"/>
</g>
</g>
</svg>
