<?xml version="1.0" encoding="UTF-8" standalone="no"?>
<!DOCTYPE svg PUBLIC "-//W3C//DTD SVG 1.1//EN"
 "http://www.w3.org/Graphics/SVG/1.1/DTD/svg11.dtd">
<!-- Generated by graphviz version 2.40.1 (20161225.0304)
 -->
<!-- Title: twoDegreesRelationshipsDiagram Pages: 1 -->
<svg width="533pt" height="459pt"
 viewBox="0.00 0.00 533.00 458.70" xmlns="http://www.w3.org/2000/svg" xmlns:xlink="http://www.w3.org/1999/xlink">
<g id="graph0" class="graph" transform="scale(1 1) rotate(0) translate(4 454.7)">
<title>twoDegreesRelationshipsDiagram</title>
<polygon fill="#ffffff" stroke="transparent" points="-4,4 -4,-454.7 529,-454.7 529,4 -4,4"/>
<text text-anchor="middle" x="72.4936" y="-7.3" font-family="Helvetica,sans-Serif" font-size="11.00" fill="#000000">Generated by SchemaSpy</text>
<!-- cor_uaa_email -->
<g id="node1" class="node">
<title>cor_uaa_email</title>
<g id="a_node1"><a xlink:href="../../tables/cor_uaa_email.html" xlink:title="cor_uaa_email" target="_top">
<polygon fill="#ffffff" stroke="transparent" points="313,-385.7 313,-446.7 446,-446.7 446,-385.7 313,-385.7"/>
<polygon fill="#f5f5f5" stroke="transparent" points="313.5,-423.2 313.5,-446.2 446.5,-446.2 446.5,-423.2 313.5,-423.2"/>
<polygon fill="none" stroke="#000000" points="313.5,-423.2 313.5,-446.2 446.5,-446.2 446.5,-423.2 313.5,-423.2"/>
<text text-anchor="start" x="318.5" y="-431.8" font-family="Helvetica,sans-Serif" font-weight="bold" font-size="11.00" fill="#000000">cor_uaa_email</text>
<text text-anchor="start" x="412.0219" y="-431.3" font-family="Helvetica,sans-Serif" font-size="11.00" fill="#000000">[table]</text>
<polygon fill="none" stroke="#000000" points="313.5,-404.2 313.5,-423.2 446.5,-423.2 446.5,-404.2 313.5,-404.2"/>
<text text-anchor="start" x="316.5" y="-410.3" font-family="Helvetica,sans-Serif" font-size="11.00" fill="#000000">...</text>
<polygon fill="#ffffff" stroke="transparent" points="313.5,-385.2 313.5,-404.2 378.5,-404.2 378.5,-385.2 313.5,-385.2"/>
<polygon fill="none" stroke="#000000" points="313.5,-385.2 313.5,-404.2 378.5,-404.2 378.5,-385.2 313.5,-385.2"/>
<text text-anchor="start" x="316.5" y="-391.3" font-family="Helvetica,sans-Serif" font-size="11.00" fill="#000000">&lt; 1</text>
<polygon fill="#ffffff" stroke="transparent" points="378.5,-385.2 378.5,-404.2 412.5,-404.2 412.5,-385.2 378.5,-385.2"/>
<polygon fill="none" stroke="#000000" points="378.5,-385.2 378.5,-404.2 412.5,-404.2 412.5,-385.2 378.5,-385.2"/>
<text text-anchor="start" x="403.3862" y="-391.3" font-family="Helvetica,sans-Serif" font-size="11.00" fill="#000000"> &#160;</text>
<polygon fill="#ffffff" stroke="transparent" points="412.5,-385.2 412.5,-404.2 446.5,-404.2 446.5,-385.2 412.5,-385.2"/>
<polygon fill="none" stroke="#000000" points="412.5,-385.2 412.5,-404.2 446.5,-404.2 446.5,-385.2 412.5,-385.2"/>
<text text-anchor="start" x="437.3862" y="-391.3" font-family="Helvetica,sans-Serif" font-size="11.00" fill="#000000"> &#160;</text>
</a>
</g>
</g>
<!-- cor_uaa_user -->
<g id="node2" class="node">
<title>cor_uaa_user</title>
<g id="a_node2"><a xlink:href="../../tables/cor_uaa_user.html" xlink:title="cor_uaa_user" target="_top">
<polygon fill="#ffffff" stroke="transparent" points="8,-238.7 8,-365.7 193,-365.7 193,-238.7 8,-238.7"/>
<polygon fill="#f5f5f5" stroke="transparent" points="8.5,-342.2 8.5,-365.2 193.5,-365.2 193.5,-342.2 8.5,-342.2"/>
<polygon fill="none" stroke="#000000" points="8.5,-342.2 8.5,-365.2 193.5,-365.2 193.5,-342.2 8.5,-342.2"/>
<text text-anchor="start" x="13.5" y="-350.8" font-family="Helvetica,sans-Serif" font-weight="bold" font-size="11.00" fill="#000000">cor_uaa_user</text>
<text text-anchor="start" x="158.5437" y="-350.3" font-family="Helvetica,sans-Serif" font-size="11.00" fill="#000000">[table]</text>
<polygon fill="none" stroke="#000000" points="8.5,-320.2 8.5,-342.2 193.5,-342.2 193.5,-320.2 8.5,-320.2"/>
<image xlink:href="../../images/primaryKeys.png" width="11px" height="12px" preserveAspectRatio="xMinYMin meet" x="13.5" y="-337.2"/>
<text text-anchor="start" x="28.5" y="-327.3" font-family="Helvetica,sans-Serif" font-size="11.00" fill="#000000">c_pk</text>
<polygon fill="#ffffff" stroke="transparent" points="8.5,-298.2 8.5,-320.2 193.5,-320.2 193.5,-298.2 8.5,-298.2"/>
<polygon fill="none" stroke="#000000" points="8.5,-298.2 8.5,-320.2 193.5,-320.2 193.5,-298.2 8.5,-298.2"/>
<text text-anchor="start" x="28.5" y="-305.3" font-family="Helvetica,sans-Serif" font-size="11.00" fill="#000000">c_pid</text>
<polygon fill="#ffffff" stroke="transparent" points="8.5,-276.2 8.5,-298.2 193.5,-298.2 193.5,-276.2 8.5,-276.2"/>
<polygon fill="none" stroke="#000000" points="8.5,-276.2 8.5,-298.2 193.5,-298.2 193.5,-276.2 8.5,-276.2"/>
<text text-anchor="start" x="28.5" y="-283.3" font-family="Helvetica,sans-Serif" font-size="11.00" fill="#000000">c_username</text>
<polygon fill="none" stroke="#000000" points="8.5,-257.2 8.5,-276.2 193.5,-276.2 193.5,-257.2 8.5,-257.2"/>
<text text-anchor="start" x="11.5" y="-263.3" font-family="Helvetica,sans-Serif" font-size="11.00" fill="#000000">...</text>
<polygon fill="#ffffff" stroke="transparent" points="8.5,-238.2 8.5,-257.2 90.5,-257.2 90.5,-238.2 8.5,-238.2"/>
<polygon fill="none" stroke="#000000" points="8.5,-238.2 8.5,-257.2 90.5,-257.2 90.5,-238.2 8.5,-238.2"/>
<text text-anchor="start" x="11.5" y="-244.3" font-family="Helvetica,sans-Serif" font-size="11.00" fill="#000000"> &#160;</text>
<polygon fill="#ffffff" stroke="transparent" points="90.5,-238.2 90.5,-257.2 137.5,-257.2 137.5,-238.2 90.5,-238.2"/>
<polygon fill="none" stroke="#000000" points="90.5,-238.2 90.5,-257.2 137.5,-257.2 137.5,-238.2 90.5,-238.2"/>
<text text-anchor="start" x="128.3862" y="-244.3" font-family="Helvetica,sans-Serif" font-size="11.00" fill="#000000"> &#160;</text>
<polygon fill="#ffffff" stroke="transparent" points="137.5,-238.2 137.5,-257.2 193.5,-257.2 193.5,-238.2 137.5,-238.2"/>
<polygon fill="none" stroke="#000000" points="137.5,-238.2 137.5,-257.2 193.5,-257.2 193.5,-238.2 137.5,-238.2"/>
<text text-anchor="start" x="174.9053" y="-244.3" font-family="Helvetica,sans-Serif" font-size="11.00" fill="#000000">3 &gt;</text>
</a>
</g>
</g>
<!-- cor_uaa_email&#45;&gt;cor_uaa_user -->
<g id="edge1" class="edge">
<title>cor_uaa_email:w&#45;&gt;cor_uaa_user:e</title>
<path fill="none" stroke="#000000" d="M299.0023,-412.3899C271.497,-409.0132 261.191,-395.2906 234,-375.2 212.6235,-359.4056 220.0786,-331.2 193.5,-331.2"/>
<polygon fill="#000000" stroke="#000000" points="305.5125,-412.7536 313.2991,-416.7944 309.5062,-412.9768 313.5,-413.2 313.5,-413.2 313.5,-413.2 309.5062,-412.9768 313.7009,-409.6056 305.5125,-412.7536 305.5125,-412.7536"/>
<ellipse fill="none" stroke="#000000" cx="302.3174" cy="-412.5751" rx="3.2" ry="3.2"/>
</g>
<!-- cor_uaa_role_user -->
<g id="node3" class="node">
<title>cor_uaa_role_user</title>
<g id="a_node3"><a xlink:href="../../tables/cor_uaa_role_user.html" xlink:title="cor_uaa_role_user" target="_top">
<polygon fill="#ffffff" stroke="transparent" points="300,-303.7 300,-364.7 459,-364.7 459,-303.7 300,-303.7"/>
<polygon fill="#f5f5f5" stroke="transparent" points="300.5,-341.2 300.5,-364.2 459.5,-364.2 459.5,-341.2 300.5,-341.2"/>
<polygon fill="none" stroke="#000000" points="300.5,-341.2 300.5,-364.2 459.5,-364.2 459.5,-341.2 300.5,-341.2"/>
<text text-anchor="start" x="305.5" y="-349.8" font-family="Helvetica,sans-Serif" font-weight="bold" font-size="11.00" fill="#000000">cor_uaa_role_user</text>
<text text-anchor="start" x="425.0219" y="-349.3" font-family="Helvetica,sans-Serif" font-size="11.00" fill="#000000">[table]</text>
<polygon fill="none" stroke="#000000" points="300.5,-322.2 300.5,-341.2 459.5,-341.2 459.5,-322.2 300.5,-322.2"/>
<text text-anchor="start" x="303.5" y="-328.3" font-family="Helvetica,sans-Serif" font-size="11.00" fill="#000000">...</text>
<polygon fill="#ffffff" stroke="transparent" points="300.5,-303.2 300.5,-322.2 378.5,-322.2 378.5,-303.2 300.5,-303.2"/>
<polygon fill="none" stroke="#000000" points="300.5,-303.2 300.5,-322.2 378.5,-322.2 378.5,-303.2 300.5,-303.2"/>
<text text-anchor="start" x="303.5" y="-309.3" font-family="Helvetica,sans-Serif" font-size="11.00" fill="#000000">&lt; 2</text>
<polygon fill="#ffffff" stroke="transparent" points="378.5,-303.2 378.5,-322.2 418.5,-322.2 418.5,-303.2 378.5,-303.2"/>
<polygon fill="none" stroke="#000000" points="378.5,-303.2 378.5,-322.2 418.5,-322.2 418.5,-303.2 378.5,-303.2"/>
<text text-anchor="start" x="409.3862" y="-309.3" font-family="Helvetica,sans-Serif" font-size="11.00" fill="#000000"> &#160;</text>
<polygon fill="#ffffff" stroke="transparent" points="418.5,-303.2 418.5,-322.2 459.5,-322.2 459.5,-303.2 418.5,-303.2"/>
<polygon fill="none" stroke="#000000" points="418.5,-303.2 418.5,-322.2 459.5,-322.2 459.5,-303.2 418.5,-303.2"/>
<text text-anchor="start" x="450.3862" y="-309.3" font-family="Helvetica,sans-Serif" font-size="11.00" fill="#000000"> &#160;</text>
</a>
</g>
</g>
<!-- cor_uaa_role_user&#45;&gt;cor_uaa_user -->
<g id="edge2" class="edge">
<title>cor_uaa_role_user:w&#45;&gt;cor_uaa_user:e</title>
<path fill="none" stroke="#000000" d="M286.0825,-331.2C249.9171,-331.2 235.8542,-331.2 193.5,-331.2"/>
<polygon fill="#000000" stroke="#000000" points="292.5,-331.2001 300.5,-334.8 296.5,-331.2 300.5,-331.2 300.5,-331.2 300.5,-331.2 296.5,-331.2 300.5,-327.6 292.5,-331.2001 292.5,-331.2001"/>
<ellipse fill="none" stroke="#000000" cx="289.3" cy="-331.2001" rx="3.2" ry="3.2"/>
</g>
<!-- cor_uaa_user_password -->
<g id="node4" class="node">
<title>cor_uaa_user_password</title>
<g id="a_node4"><a xlink:href="../../tables/cor_uaa_user_password.html" xlink:title="cor_uaa_user_password" target="_top">
<polygon fill="#ffffff" stroke="transparent" points="242,-38.2 242,-282.2 517,-282.2 517,-38.2 242,-38.2"/>
<polygon fill="#f5f5f5" stroke="transparent" points="244.5,-257.2 244.5,-280.2 515.5,-280.2 515.5,-257.2 244.5,-257.2"/>
<polygon fill="none" stroke="#000000" points="244.5,-257.2 244.5,-280.2 515.5,-280.2 515.5,-257.2 244.5,-257.2"/>
<text text-anchor="start" x="249.5" y="-265.8" font-family="Helvetica,sans-Serif" font-weight="bold" font-size="11.00" fill="#000000">cor_uaa_user_password</text>
<text text-anchor="start" x="480.5437" y="-265.3" font-family="Helvetica,sans-Serif" font-size="11.00" fill="#000000">[table]</text>
<polygon fill="none" stroke="#000000" points="244.5,-235.2 244.5,-257.2 423.5,-257.2 423.5,-235.2 244.5,-235.2"/>
<image xlink:href="../../images/primaryKeys.png" width="11px" height="12px" preserveAspectRatio="xMinYMin meet" x="249.5" y="-252.2"/>
<text text-anchor="start" x="264.5" y="-242.3" font-family="Helvetica,sans-Serif" font-size="11.00" fill="#000000">c_pk</text>
<polygon fill="none" stroke="#000000" points="423.5,-235.2 423.5,-257.2 515.5,-257.2 515.5,-235.2 423.5,-235.2"/>
<text text-anchor="start" x="426.5" y="-242.9" font-family="Helvetica,sans-Serif" font-size="11.00" fill="#000000">int8[19]</text>
<polygon fill="none" stroke="#000000" points="244.5,-213.2 244.5,-235.2 423.5,-235.2 423.5,-213.2 244.5,-213.2"/>
<text text-anchor="start" x="264.5" y="-220.3" font-family="Helvetica,sans-Serif" font-size="11.00" fill="#000000">c_created</text>
<polygon fill="none" stroke="#000000" points="423.5,-213.2 423.5,-235.2 515.5,-235.2 515.5,-213.2 423.5,-213.2"/>
<text text-anchor="start" x="426.5" y="-220.9" font-family="Helvetica,sans-Serif" font-size="11.00" fill="#000000">timestamp[29,6]</text>
<polygon fill="none" stroke="#000000" points="244.5,-191.2 244.5,-213.2 423.5,-213.2 423.5,-191.2 244.5,-191.2"/>
<text text-anchor="start" x="264.5" y="-198.3" font-family="Helvetica,sans-Serif" font-size="11.00" fill="#000000">c_created_by</text>
<polygon fill="none" stroke="#000000" points="423.5,-191.2 423.5,-213.2 515.5,-213.2 515.5,-191.2 423.5,-191.2"/>
<text text-anchor="start" x="426.5" y="-198.9" font-family="Helvetica,sans-Serif" font-size="11.00" fill="#000000">varchar[255]</text>
<polygon fill="none" stroke="#000000" points="244.5,-169.2 244.5,-191.2 423.5,-191.2 423.5,-169.2 244.5,-169.2"/>
<text text-anchor="start" x="264.5" y="-176.3" font-family="Helvetica,sans-Serif" font-size="11.00" fill="#000000">c_updated_by</text>
<polygon fill="none" stroke="#000000" points="423.5,-169.2 423.5,-191.2 515.5,-191.2 515.5,-169.2 423.5,-169.2"/>
<text text-anchor="start" x="426.5" y="-176.9" font-family="Helvetica,sans-Serif" font-size="11.00" fill="#000000">varchar[255]</text>
<polygon fill="none" stroke="#000000" points="244.5,-147.2 244.5,-169.2 423.5,-169.2 423.5,-147.2 244.5,-147.2"/>
<text text-anchor="start" x="264.5" y="-154.3" font-family="Helvetica,sans-Serif" font-size="11.00" fill="#000000">c_updated</text>
<polygon fill="none" stroke="#000000" points="423.5,-147.2 423.5,-169.2 515.5,-169.2 515.5,-147.2 423.5,-147.2"/>
<text text-anchor="start" x="426.5" y="-154.9" font-family="Helvetica,sans-Serif" font-size="11.00" fill="#000000">timestamp[29,6]</text>
<polygon fill="none" stroke="#000000" points="244.5,-125.2 244.5,-147.2 423.5,-147.2 423.5,-125.2 244.5,-125.2"/>
<text text-anchor="start" x="264.5" y="-132.3" font-family="Helvetica,sans-Serif" font-size="11.00" fill="#000000">c_ol</text>
<polygon fill="none" stroke="#000000" points="423.5,-125.2 423.5,-147.2 515.5,-147.2 515.5,-125.2 423.5,-125.2"/>
<text text-anchor="start" x="426.5" y="-132.9" font-family="Helvetica,sans-Serif" font-size="11.00" fill="#000000">int8[19]</text>
<polygon fill="none" stroke="#000000" points="244.5,-103.2 244.5,-125.2 423.5,-125.2 423.5,-103.2 244.5,-103.2"/>
<text text-anchor="start" x="264.5" y="-110.3" font-family="Helvetica,sans-Serif" font-size="11.00" fill="#000000">c_password</text>
<polygon fill="none" stroke="#000000" points="423.5,-103.2 423.5,-125.2 515.5,-125.2 515.5,-103.2 423.5,-103.2"/>
<text text-anchor="start" x="426.5" y="-110.9" font-family="Helvetica,sans-Serif" font-size="11.00" fill="#000000">varchar[255]</text>
<polygon fill="none" stroke="#000000" points="244.5,-81.2 244.5,-103.2 423.5,-103.2 423.5,-81.2 244.5,-81.2"/>
<text text-anchor="start" x="264.5" y="-88.3" font-family="Helvetica,sans-Serif" font-size="11.00" fill="#000000">c_password_changed</text>
<polygon fill="none" stroke="#000000" points="423.5,-81.2 423.5,-103.2 515.5,-103.2 515.5,-81.2 423.5,-81.2"/>
<text text-anchor="start" x="426.1023" y="-88.9" font-family="Helvetica,sans-Serif" font-size="11.00" fill="#000000">timestamptz[35,6]</text>
<polygon fill="none" stroke="#000000" points="244.5,-59.2 244.5,-81.2 423.5,-81.2 423.5,-59.2 244.5,-59.2"/>
<image xlink:href="../../images/foreignKeys.png" width="11px" height="12px" preserveAspectRatio="xMinYMin meet" x="249.5" y="-76.2"/>
<text text-anchor="start" x="264.5" y="-66.3" font-family="Helvetica,sans-Serif" font-size="11.00" fill="#000000">c_username</text>
<polygon fill="none" stroke="#000000" points="423.5,-59.2 423.5,-81.2 515.5,-81.2 515.5,-59.2 423.5,-59.2"/>
<text text-anchor="start" x="426.5" y="-66.9" font-family="Helvetica,sans-Serif" font-size="11.00" fill="#000000">varchar[255]</text>
<polygon fill="#ffffff" stroke="transparent" points="244.5,-40.2 244.5,-59.2 338.5,-59.2 338.5,-40.2 244.5,-40.2"/>
<polygon fill="none" stroke="#000000" points="244.5,-40.2 244.5,-59.2 338.5,-59.2 338.5,-40.2 244.5,-40.2"/>
<text text-anchor="start" x="247.5" y="-46.3" font-family="Helvetica,sans-Serif" font-size="11.00" fill="#000000">&lt; 1</text>
<polygon fill="#ffffff" stroke="transparent" points="338.5,-40.2 338.5,-59.2 423.5,-59.2 423.5,-40.2 338.5,-40.2"/>
<polygon fill="none" stroke="#000000" points="338.5,-40.2 338.5,-59.2 423.5,-59.2 423.5,-40.2 338.5,-40.2"/>
<text text-anchor="start" x="414.3862" y="-46.3" font-family="Helvetica,sans-Serif" font-size="11.00" fill="#000000"> &#160;</text>
<polygon fill="#ffffff" stroke="transparent" points="423.5,-40.2 423.5,-59.2 515.5,-59.2 515.5,-40.2 423.5,-40.2"/>
<polygon fill="none" stroke="#000000" points="423.5,-40.2 423.5,-59.2 515.5,-59.2 515.5,-40.2 423.5,-40.2"/>
<text text-anchor="start" x="496.9053" y="-46.3" font-family="Helvetica,sans-Serif" font-size="11.00" fill="#000000">0 &gt;</text>
<polygon fill="none" stroke="#000000" stroke-width="2" points="243,-39.2 243,-281.2 516,-281.2 516,-39.2 243,-39.2"/>
</a>
</g>
</g>
<!-- cor_uaa_user_password&#45;&gt;cor_uaa_user -->
<g id="edge3" class="edge">
<title>cor_uaa_user_password:w&#45;&gt;cor_uaa_user:e</title>
<path fill="none" stroke="#000000" d="M229.9457,-72.2096C161.3066,-94.0859 286.9607,-287.2 193.5,-287.2"/>
<polygon fill="#000000" stroke="#000000" points="236.5752,-71.2943 244.9924,-73.7662 240.5376,-70.7471 244.5,-70.2 244.5,-70.2 244.5,-70.2 240.5376,-70.7471 244.0076,-66.6338 236.5752,-71.2943 236.5752,-71.2943"/>
<ellipse fill="none" stroke="#000000" cx="233.4053" cy="-71.732" rx="3.2" ry="3.2"/>
</g>
</g>
</svg>
