<?xml version="1.0" encoding="UTF-8" standalone="no"?>
<!DOCTYPE svg PUBLIC "-//W3C//DTD SVG 1.1//EN"
 "http://www.w3.org/Graphics/SVG/1.1/DTD/svg11.dtd">
<!-- Generated by graphviz version 2.40.1 (20161225.0304)
 -->
<!-- Title: oneDegreeRelationshipsDiagram Pages: 1 -->
<svg width="551pt" height="724pt"
 viewBox="0.00 0.00 551.00 724.20" xmlns="http://www.w3.org/2000/svg" xmlns:xlink="http://www.w3.org/1999/xlink">
<g id="graph0" class="graph" transform="scale(1 1) rotate(0) translate(4 720.2)">
<title>oneDegreeRelationshipsDiagram</title>
<polygon fill="#ffffff" stroke="transparent" points="-4,4 -4,-720.2 547,-720.2 547,4 -4,4"/>
<text text-anchor="middle" x="72.4936" y="-7.3" font-family="Helvetica,sans-Serif" font-size="11.00" fill="#000000">Generated by SchemaSpy</text>
<!-- cor_uaa_email -->
<g id="node1" class="node">
<title>cor_uaa_email</title>
<g id="a_node1"><a xlink:href="../../tables/cor_uaa_email.html" xlink:title="cor_uaa_email" target="_top">
<polygon fill="#ffffff" stroke="transparent" points="370,-585.2 370,-712.2 503,-712.2 503,-585.2 370,-585.2"/>
<polygon fill="#f5f5f5" stroke="transparent" points="370.5,-688.7 370.5,-711.7 503.5,-711.7 503.5,-688.7 370.5,-688.7"/>
<polygon fill="none" stroke="#000000" points="370.5,-688.7 370.5,-711.7 503.5,-711.7 503.5,-688.7 370.5,-688.7"/>
<text text-anchor="start" x="375.5" y="-697.3" font-family="Helvetica,sans-Serif" font-weight="bold" font-size="11.00" fill="#000000">cor_uaa_email</text>
<text text-anchor="start" x="469.0219" y="-696.8" font-family="Helvetica,sans-Serif" font-size="11.00" fill="#000000">[table]</text>
<polygon fill="none" stroke="#000000" points="370.5,-666.7 370.5,-688.7 503.5,-688.7 503.5,-666.7 370.5,-666.7"/>
<image xlink:href="../../images/primaryKeys.png" width="11px" height="12px" preserveAspectRatio="xMinYMin meet" x="375.5" y="-683.7"/>
<text text-anchor="start" x="399.5" y="-673.8" font-family="Helvetica,sans-Serif" font-size="11.00" fill="#000000">c_pk</text>
<polygon fill="#ffffff" stroke="transparent" points="370.5,-644.7 370.5,-666.7 503.5,-666.7 503.5,-644.7 370.5,-644.7"/>
<polygon fill="none" stroke="#000000" points="370.5,-644.7 370.5,-666.7 503.5,-666.7 503.5,-644.7 370.5,-644.7"/>
<text text-anchor="start" x="399.5" y="-651.8" font-family="Helvetica,sans-Serif" font-size="11.00" fill="#000000">c_address</text>
<polygon fill="#ffffff" stroke="transparent" points="370.5,-622.7 370.5,-644.7 503.5,-644.7 503.5,-622.7 370.5,-622.7"/>
<polygon fill="none" stroke="#000000" points="370.5,-622.7 370.5,-644.7 503.5,-644.7 503.5,-622.7 370.5,-622.7"/>
<image xlink:href="../../images/foreignKeys.png" width="11px" height="12px" preserveAspectRatio="xMinYMin meet" x="375.5" y="-639.7"/>
<text text-anchor="start" x="399.5" y="-629.8" font-family="Helvetica,sans-Serif" font-size="11.00" fill="#000000">c_user_pk</text>
<polygon fill="none" stroke="#000000" points="370.5,-603.7 370.5,-622.7 503.5,-622.7 503.5,-603.7 370.5,-603.7"/>
<text text-anchor="start" x="373.5" y="-609.8" font-family="Helvetica,sans-Serif" font-size="11.00" fill="#000000">...</text>
<polygon fill="#ffffff" stroke="transparent" points="370.5,-584.7 370.5,-603.7 435.5,-603.7 435.5,-584.7 370.5,-584.7"/>
<polygon fill="none" stroke="#000000" points="370.5,-584.7 370.5,-603.7 435.5,-603.7 435.5,-584.7 370.5,-584.7"/>
<text text-anchor="start" x="373.5" y="-590.8" font-family="Helvetica,sans-Serif" font-size="11.00" fill="#000000">&lt; 1</text>
<polygon fill="#ffffff" stroke="transparent" points="435.5,-584.7 435.5,-603.7 469.5,-603.7 469.5,-584.7 435.5,-584.7"/>
<polygon fill="none" stroke="#000000" points="435.5,-584.7 435.5,-603.7 469.5,-603.7 469.5,-584.7 435.5,-584.7"/>
<text text-anchor="start" x="460.3862" y="-590.8" font-family="Helvetica,sans-Serif" font-size="11.00" fill="#000000"> &#160;</text>
<polygon fill="#ffffff" stroke="transparent" points="469.5,-584.7 469.5,-603.7 503.5,-603.7 503.5,-584.7 469.5,-584.7"/>
<polygon fill="none" stroke="#000000" points="469.5,-584.7 469.5,-603.7 503.5,-603.7 503.5,-584.7 469.5,-584.7"/>
<text text-anchor="start" x="494.3862" y="-590.8" font-family="Helvetica,sans-Serif" font-size="11.00" fill="#000000"> &#160;</text>
</a>
</g>
</g>
<!-- cor_uaa_user -->
<g id="node2" class="node">
<title>cor_uaa_user</title>
<g id="a_node2"><a xlink:href="../../tables/cor_uaa_user.html" xlink:title="cor_uaa_user" target="_top">
<polygon fill="#ffffff" stroke="transparent" points="8,-54.7 8,-628.7 289,-628.7 289,-54.7 8,-54.7"/>
<polygon fill="#f5f5f5" stroke="transparent" points="10.5,-603.7 10.5,-626.7 287.5,-626.7 287.5,-603.7 10.5,-603.7"/>
<polygon fill="none" stroke="#000000" points="10.5,-603.7 10.5,-626.7 287.5,-626.7 287.5,-603.7 10.5,-603.7"/>
<text text-anchor="start" x="15.5" y="-612.3" font-family="Helvetica,sans-Serif" font-weight="bold" font-size="11.00" fill="#000000">cor_uaa_user</text>
<text text-anchor="start" x="252.5437" y="-611.8" font-family="Helvetica,sans-Serif" font-size="11.00" fill="#000000">[table]</text>
<polygon fill="none" stroke="#000000" points="10.5,-581.7 10.5,-603.7 195.5,-603.7 195.5,-581.7 10.5,-581.7"/>
<text text-anchor="start" x="30.5" y="-588.8" font-family="Helvetica,sans-Serif" font-size="11.00" fill="#000000">c_type</text>
<polygon fill="none" stroke="#000000" points="195.5,-581.7 195.5,-603.7 287.5,-603.7 287.5,-581.7 195.5,-581.7"/>
<text text-anchor="start" x="198.5" y="-589.4" font-family="Helvetica,sans-Serif" font-size="11.00" fill="#000000">varchar[31]</text>
<polygon fill="none" stroke="#000000" points="10.5,-559.7 10.5,-581.7 195.5,-581.7 195.5,-559.7 10.5,-559.7"/>
<image xlink:href="../../images/primaryKeys.png" width="11px" height="12px" preserveAspectRatio="xMinYMin meet" x="15.5" y="-576.7"/>
<text text-anchor="start" x="30.5" y="-566.8" font-family="Helvetica,sans-Serif" font-size="11.00" fill="#000000">c_pk</text>
<polygon fill="none" stroke="#000000" points="195.5,-559.7 195.5,-581.7 287.5,-581.7 287.5,-559.7 195.5,-559.7"/>
<text text-anchor="start" x="198.5" y="-567.4" font-family="Helvetica,sans-Serif" font-size="11.00" fill="#000000">int8[19]</text>
<polygon fill="none" stroke="#000000" points="10.5,-537.7 10.5,-559.7 195.5,-559.7 195.5,-537.7 10.5,-537.7"/>
<text text-anchor="start" x="30.5" y="-544.8" font-family="Helvetica,sans-Serif" font-size="11.00" fill="#000000">c_created</text>
<polygon fill="none" stroke="#000000" points="195.5,-537.7 195.5,-559.7 287.5,-559.7 287.5,-537.7 195.5,-537.7"/>
<text text-anchor="start" x="198.5" y="-545.4" font-family="Helvetica,sans-Serif" font-size="11.00" fill="#000000">timestamp[29,6]</text>
<polygon fill="none" stroke="#000000" points="10.5,-515.7 10.5,-537.7 195.5,-537.7 195.5,-515.7 10.5,-515.7"/>
<text text-anchor="start" x="30.5" y="-522.8" font-family="Helvetica,sans-Serif" font-size="11.00" fill="#000000">c_created_by</text>
<polygon fill="none" stroke="#000000" points="195.5,-515.7 195.5,-537.7 287.5,-537.7 287.5,-515.7 195.5,-515.7"/>
<text text-anchor="start" x="198.5" y="-523.4" font-family="Helvetica,sans-Serif" font-size="11.00" fill="#000000">varchar[255]</text>
<polygon fill="none" stroke="#000000" points="10.5,-493.7 10.5,-515.7 195.5,-515.7 195.5,-493.7 10.5,-493.7"/>
<text text-anchor="start" x="30.5" y="-500.8" font-family="Helvetica,sans-Serif" font-size="11.00" fill="#000000">c_updated_by</text>
<polygon fill="none" stroke="#000000" points="195.5,-493.7 195.5,-515.7 287.5,-515.7 287.5,-493.7 195.5,-493.7"/>
<text text-anchor="start" x="198.5" y="-501.4" font-family="Helvetica,sans-Serif" font-size="11.00" fill="#000000">varchar[255]</text>
<polygon fill="none" stroke="#000000" points="10.5,-471.7 10.5,-493.7 195.5,-493.7 195.5,-471.7 10.5,-471.7"/>
<text text-anchor="start" x="30.5" y="-478.8" font-family="Helvetica,sans-Serif" font-size="11.00" fill="#000000">c_updated</text>
<polygon fill="none" stroke="#000000" points="195.5,-471.7 195.5,-493.7 287.5,-493.7 287.5,-471.7 195.5,-471.7"/>
<text text-anchor="start" x="198.5" y="-479.4" font-family="Helvetica,sans-Serif" font-size="11.00" fill="#000000">timestamp[29,6]</text>
<polygon fill="none" stroke="#000000" points="10.5,-449.7 10.5,-471.7 195.5,-471.7 195.5,-449.7 10.5,-449.7"/>
<text text-anchor="start" x="30.5" y="-456.8" font-family="Helvetica,sans-Serif" font-size="11.00" fill="#000000">c_ol</text>
<polygon fill="none" stroke="#000000" points="195.5,-449.7 195.5,-471.7 287.5,-471.7 287.5,-449.7 195.5,-449.7"/>
<text text-anchor="start" x="198.5" y="-457.4" font-family="Helvetica,sans-Serif" font-size="11.00" fill="#000000">int8[19]</text>
<polygon fill="#ffffff" stroke="transparent" points="10.5,-427.7 10.5,-449.7 195.5,-449.7 195.5,-427.7 10.5,-427.7"/>
<polygon fill="none" stroke="#000000" points="10.5,-427.7 10.5,-449.7 195.5,-449.7 195.5,-427.7 10.5,-427.7"/>
<text text-anchor="start" x="30.5" y="-434.8" font-family="Helvetica,sans-Serif" font-size="11.00" fill="#000000">c_pid</text>
<polygon fill="none" stroke="#000000" points="195.5,-427.7 195.5,-449.7 287.5,-449.7 287.5,-427.7 195.5,-427.7"/>
<text text-anchor="start" x="198.5" y="-435.4" font-family="Helvetica,sans-Serif" font-size="11.00" fill="#000000">varchar[255]</text>
<polygon fill="none" stroke="#000000" points="10.5,-405.7 10.5,-427.7 195.5,-427.7 195.5,-405.7 10.5,-405.7"/>
<text text-anchor="start" x="30.5" y="-412.8" font-family="Helvetica,sans-Serif" font-size="11.00" fill="#000000">c_enabled</text>
<polygon fill="none" stroke="#000000" points="195.5,-405.7 195.5,-427.7 287.5,-427.7 287.5,-405.7 195.5,-405.7"/>
<text text-anchor="start" x="198.5" y="-413.4" font-family="Helvetica,sans-Serif" font-size="11.00" fill="#000000">bool[1]</text>
<polygon fill="none" stroke="#000000" points="10.5,-383.7 10.5,-405.7 195.5,-405.7 195.5,-383.7 10.5,-383.7"/>
<text text-anchor="start" x="30.5" y="-390.8" font-family="Helvetica,sans-Serif" font-size="11.00" fill="#000000">c_expiration_date</text>
<polygon fill="none" stroke="#000000" points="195.5,-383.7 195.5,-405.7 287.5,-405.7 287.5,-383.7 195.5,-383.7"/>
<text text-anchor="start" x="198.1023" y="-391.4" font-family="Helvetica,sans-Serif" font-size="11.00" fill="#000000">timestamptz[35,6]</text>
<polygon fill="none" stroke="#000000" points="10.5,-361.7 10.5,-383.7 195.5,-383.7 195.5,-361.7 10.5,-361.7"/>
<text text-anchor="start" x="30.5" y="-368.8" font-family="Helvetica,sans-Serif" font-size="11.00" fill="#000000">c_extern</text>
<polygon fill="none" stroke="#000000" points="195.5,-361.7 195.5,-383.7 287.5,-383.7 287.5,-361.7 195.5,-361.7"/>
<text text-anchor="start" x="198.5" y="-369.4" font-family="Helvetica,sans-Serif" font-size="11.00" fill="#000000">bool[1]</text>
<polygon fill="none" stroke="#000000" points="10.5,-339.7 10.5,-361.7 195.5,-361.7 195.5,-339.7 10.5,-339.7"/>
<text text-anchor="start" x="30.5" y="-346.8" font-family="Helvetica,sans-Serif" font-size="11.00" fill="#000000">c_fullname</text>
<polygon fill="none" stroke="#000000" points="195.5,-339.7 195.5,-361.7 287.5,-361.7 287.5,-339.7 195.5,-339.7"/>
<text text-anchor="start" x="198.5" y="-347.4" font-family="Helvetica,sans-Serif" font-size="11.00" fill="#000000">varchar[255]</text>
<polygon fill="none" stroke="#000000" points="10.5,-317.7 10.5,-339.7 195.5,-339.7 195.5,-317.7 10.5,-317.7"/>
<text text-anchor="start" x="30.5" y="-324.8" font-family="Helvetica,sans-Serif" font-size="11.00" fill="#000000">c_last_password_change</text>
<polygon fill="none" stroke="#000000" points="195.5,-317.7 195.5,-339.7 287.5,-339.7 287.5,-317.7 195.5,-317.7"/>
<text text-anchor="start" x="198.1023" y="-325.4" font-family="Helvetica,sans-Serif" font-size="11.00" fill="#000000">timestamptz[35,6]</text>
<polygon fill="none" stroke="#000000" points="10.5,-295.7 10.5,-317.7 195.5,-317.7 195.5,-295.7 10.5,-295.7"/>
<text text-anchor="start" x="30.5" y="-302.8" font-family="Helvetica,sans-Serif" font-size="11.00" fill="#000000">c_locked</text>
<polygon fill="none" stroke="#000000" points="195.5,-295.7 195.5,-317.7 287.5,-317.7 287.5,-295.7 195.5,-295.7"/>
<text text-anchor="start" x="198.5" y="-303.4" font-family="Helvetica,sans-Serif" font-size="11.00" fill="#000000">bool[1]</text>
<polygon fill="none" stroke="#000000" points="10.5,-273.7 10.5,-295.7 195.5,-295.7 195.5,-273.7 10.5,-273.7"/>
<text text-anchor="start" x="30.5" y="-280.8" font-family="Helvetica,sans-Serif" font-size="11.00" fill="#000000">c_password</text>
<polygon fill="none" stroke="#000000" points="195.5,-273.7 195.5,-295.7 287.5,-295.7 287.5,-273.7 195.5,-273.7"/>
<text text-anchor="start" x="198.5" y="-281.4" font-family="Helvetica,sans-Serif" font-size="11.00" fill="#000000">varchar[255]</text>
<polygon fill="none" stroke="#000000" points="10.5,-251.7 10.5,-273.7 195.5,-273.7 195.5,-251.7 10.5,-251.7"/>
<text text-anchor="start" x="30.5" y="-258.8" font-family="Helvetica,sans-Serif" font-size="11.00" fill="#000000">c_comment</text>
<polygon fill="none" stroke="#000000" points="195.5,-251.7 195.5,-273.7 287.5,-273.7 287.5,-251.7 195.5,-251.7"/>
<text text-anchor="start" x="198.5" y="-259.4" font-family="Helvetica,sans-Serif" font-size="11.00" fill="#000000">varchar[255]</text>
<polygon fill="none" stroke="#000000" points="10.5,-229.7 10.5,-251.7 195.5,-251.7 195.5,-229.7 10.5,-229.7"/>
<text text-anchor="start" x="30.5" y="-236.8" font-family="Helvetica,sans-Serif" font-size="11.00" fill="#000000">c_department</text>
<polygon fill="none" stroke="#000000" points="195.5,-229.7 195.5,-251.7 287.5,-251.7 287.5,-229.7 195.5,-229.7"/>
<text text-anchor="start" x="198.5" y="-237.4" font-family="Helvetica,sans-Serif" font-size="11.00" fill="#000000">varchar[255]</text>
<polygon fill="none" stroke="#000000" points="10.5,-207.7 10.5,-229.7 195.5,-229.7 195.5,-207.7 10.5,-207.7"/>
<text text-anchor="start" x="30.5" y="-214.8" font-family="Helvetica,sans-Serif" font-size="11.00" fill="#000000">c_description</text>
<polygon fill="none" stroke="#000000" points="195.5,-207.7 195.5,-229.7 287.5,-229.7 287.5,-207.7 195.5,-207.7"/>
<text text-anchor="start" x="198.5" y="-215.4" font-family="Helvetica,sans-Serif" font-size="11.00" fill="#000000">varchar[1024]</text>
<polygon fill="none" stroke="#000000" points="10.5,-185.7 10.5,-207.7 195.5,-207.7 195.5,-185.7 10.5,-185.7"/>
<text text-anchor="start" x="30.5" y="-192.8" font-family="Helvetica,sans-Serif" font-size="11.00" fill="#000000">c_gender</text>
<polygon fill="none" stroke="#000000" points="195.5,-185.7 195.5,-207.7 287.5,-207.7 287.5,-185.7 195.5,-185.7"/>
<text text-anchor="start" x="198.5" y="-193.4" font-family="Helvetica,sans-Serif" font-size="11.00" fill="#000000">varchar[255]</text>
<polygon fill="none" stroke="#000000" points="10.5,-163.7 10.5,-185.7 195.5,-185.7 195.5,-163.7 10.5,-163.7"/>
<text text-anchor="start" x="30.5" y="-170.8" font-family="Helvetica,sans-Serif" font-size="11.00" fill="#000000">c_im</text>
<polygon fill="none" stroke="#000000" points="195.5,-163.7 195.5,-185.7 287.5,-185.7 287.5,-163.7 195.5,-163.7"/>
<text text-anchor="start" x="198.5" y="-171.4" font-family="Helvetica,sans-Serif" font-size="11.00" fill="#000000">varchar[255]</text>
<polygon fill="none" stroke="#000000" points="10.5,-141.7 10.5,-163.7 195.5,-163.7 195.5,-141.7 10.5,-141.7"/>
<text text-anchor="start" x="30.5" y="-148.8" font-family="Helvetica,sans-Serif" font-size="11.00" fill="#000000">c_image</text>
<polygon fill="none" stroke="#000000" points="195.5,-141.7 195.5,-163.7 287.5,-163.7 287.5,-141.7 195.5,-141.7"/>
<text text-anchor="start" x="198.5" y="-149.4" font-family="Helvetica,sans-Serif" font-size="11.00" fill="#000000">oid[10]</text>
<polygon fill="none" stroke="#000000" points="10.5,-119.7 10.5,-141.7 195.5,-141.7 195.5,-119.7 10.5,-119.7"/>
<text text-anchor="start" x="30.5" y="-126.8" font-family="Helvetica,sans-Serif" font-size="11.00" fill="#000000">c_office</text>
<polygon fill="none" stroke="#000000" points="195.5,-119.7 195.5,-141.7 287.5,-141.7 287.5,-119.7 195.5,-119.7"/>
<text text-anchor="start" x="198.5" y="-127.4" font-family="Helvetica,sans-Serif" font-size="11.00" fill="#000000">varchar[255]</text>
<polygon fill="none" stroke="#000000" points="10.5,-97.7 10.5,-119.7 195.5,-119.7 195.5,-97.7 10.5,-97.7"/>
<text text-anchor="start" x="30.5" y="-104.8" font-family="Helvetica,sans-Serif" font-size="11.00" fill="#000000">c_phone_no</text>
<polygon fill="none" stroke="#000000" points="195.5,-97.7 195.5,-119.7 287.5,-119.7 287.5,-97.7 195.5,-97.7"/>
<text text-anchor="start" x="198.5" y="-105.4" font-family="Helvetica,sans-Serif" font-size="11.00" fill="#000000">varchar[255]</text>
<polygon fill="#ffffff" stroke="transparent" points="10.5,-75.7 10.5,-97.7 195.5,-97.7 195.5,-75.7 10.5,-75.7"/>
<polygon fill="none" stroke="#000000" points="10.5,-75.7 10.5,-97.7 195.5,-97.7 195.5,-75.7 10.5,-75.7"/>
<text text-anchor="start" x="30.5" y="-82.8" font-family="Helvetica,sans-Serif" font-size="11.00" fill="#000000">c_username</text>
<polygon fill="none" stroke="#000000" points="195.5,-75.7 195.5,-97.7 287.5,-97.7 287.5,-75.7 195.5,-75.7"/>
<text text-anchor="start" x="198.5" y="-83.4" font-family="Helvetica,sans-Serif" font-size="11.00" fill="#000000">varchar[255]</text>
<polygon fill="#ffffff" stroke="transparent" points="10.5,-56.7 10.5,-75.7 107.5,-75.7 107.5,-56.7 10.5,-56.7"/>
<polygon fill="none" stroke="#000000" points="10.5,-56.7 10.5,-75.7 107.5,-75.7 107.5,-56.7 10.5,-56.7"/>
<text text-anchor="start" x="13.5" y="-62.8" font-family="Helvetica,sans-Serif" font-size="11.00" fill="#000000">&lt; 0</text>
<polygon fill="#ffffff" stroke="transparent" points="107.5,-56.7 107.5,-75.7 195.5,-75.7 195.5,-56.7 107.5,-56.7"/>
<polygon fill="none" stroke="#000000" points="107.5,-56.7 107.5,-75.7 195.5,-75.7 195.5,-56.7 107.5,-56.7"/>
<text text-anchor="start" x="186.3862" y="-62.8" font-family="Helvetica,sans-Serif" font-size="11.00" fill="#000000"> &#160;</text>
<polygon fill="#ffffff" stroke="transparent" points="195.5,-56.7 195.5,-75.7 287.5,-75.7 287.5,-56.7 195.5,-56.7"/>
<polygon fill="none" stroke="#000000" points="195.5,-56.7 195.5,-75.7 287.5,-75.7 287.5,-56.7 195.5,-56.7"/>
<text text-anchor="start" x="268.9053" y="-62.8" font-family="Helvetica,sans-Serif" font-size="11.00" fill="#000000">3 &gt;</text>
<polygon fill="none" stroke="#000000" stroke-width="2" points="9,-55.7 9,-627.7 288,-627.7 288,-55.7 9,-55.7"/>
</a>
</g>
</g>
<!-- cor_uaa_email&#45;&gt;cor_uaa_user -->
<g id="edge1" class="edge">
<title>cor_uaa_email:w&#45;&gt;cor_uaa_user:e</title>
<path fill="none" stroke="#000000" d="M355.9378,-631.1523C325.6987,-619.366 328.2038,-570.7 287.5,-570.7"/>
<polygon fill="#000000" stroke="#000000" points="362.6197,-632.3213 369.8796,-637.2461 366.5598,-633.0106 370.5,-633.7 370.5,-633.7 370.5,-633.7 366.5598,-633.0106 371.1204,-630.1539 362.6197,-632.3213 362.6197,-632.3213"/>
<ellipse fill="none" stroke="#000000" cx="359.4676" cy="-631.7698" rx="3.2" ry="3.2"/>
</g>
<!-- cor_uaa_role_user -->
<g id="node3" class="node">
<title>cor_uaa_role_user</title>
<g id="a_node3"><a xlink:href="../../tables/cor_uaa_role_user.html" xlink:title="cor_uaa_role_user" target="_top">
<polygon fill="#ffffff" stroke="transparent" points="357,-477.7 357,-563.7 516,-563.7 516,-477.7 357,-477.7"/>
<polygon fill="#f5f5f5" stroke="transparent" points="357.5,-540.7 357.5,-563.7 516.5,-563.7 516.5,-540.7 357.5,-540.7"/>
<polygon fill="none" stroke="#000000" points="357.5,-540.7 357.5,-563.7 516.5,-563.7 516.5,-540.7 357.5,-540.7"/>
<text text-anchor="start" x="362.5" y="-549.3" font-family="Helvetica,sans-Serif" font-weight="bold" font-size="11.00" fill="#000000">cor_uaa_role_user</text>
<text text-anchor="start" x="482.0219" y="-548.8" font-family="Helvetica,sans-Serif" font-size="11.00" fill="#000000">[table]</text>
<polygon fill="none" stroke="#000000" points="357.5,-518.7 357.5,-540.7 516.5,-540.7 516.5,-518.7 357.5,-518.7"/>
<image xlink:href="../../images/primaryKeys.png" width="11px" height="12px" preserveAspectRatio="xMinYMin meet" x="362.5" y="-535.7"/>
<text text-anchor="start" x="386.5" y="-525.8" font-family="Helvetica,sans-Serif" font-size="11.00" fill="#000000">c_role_id</text>
<polygon fill="none" stroke="#000000" points="357.5,-496.7 357.5,-518.7 516.5,-518.7 516.5,-496.7 357.5,-496.7"/>
<image xlink:href="../../images/primaryKeys.png" width="11px" height="12px" preserveAspectRatio="xMinYMin meet" x="362.5" y="-513.7"/>
<text text-anchor="start" x="386.5" y="-503.8" font-family="Helvetica,sans-Serif" font-size="11.00" fill="#000000">c_user_id</text>
<polygon fill="#ffffff" stroke="transparent" points="357.5,-477.7 357.5,-496.7 435.5,-496.7 435.5,-477.7 357.5,-477.7"/>
<polygon fill="none" stroke="#000000" points="357.5,-477.7 357.5,-496.7 435.5,-496.7 435.5,-477.7 357.5,-477.7"/>
<text text-anchor="start" x="360.5" y="-483.8" font-family="Helvetica,sans-Serif" font-size="11.00" fill="#000000">&lt; 2</text>
<polygon fill="#ffffff" stroke="transparent" points="435.5,-477.7 435.5,-496.7 475.5,-496.7 475.5,-477.7 435.5,-477.7"/>
<polygon fill="none" stroke="#000000" points="435.5,-477.7 435.5,-496.7 475.5,-496.7 475.5,-477.7 435.5,-477.7"/>
<text text-anchor="start" x="466.3862" y="-483.8" font-family="Helvetica,sans-Serif" font-size="11.00" fill="#000000"> &#160;</text>
<polygon fill="#ffffff" stroke="transparent" points="475.5,-477.7 475.5,-496.7 516.5,-496.7 516.5,-477.7 475.5,-477.7"/>
<polygon fill="none" stroke="#000000" points="475.5,-477.7 475.5,-496.7 516.5,-496.7 516.5,-477.7 475.5,-477.7"/>
<text text-anchor="start" x="507.3862" y="-483.8" font-family="Helvetica,sans-Serif" font-size="11.00" fill="#000000"> &#160;</text>
</a>
</g>
</g>
<!-- cor_uaa_role_user&#45;&gt;cor_uaa_user -->
<g id="edge2" class="edge">
<title>cor_uaa_role_user:w&#45;&gt;cor_uaa_user:e</title>
<path fill="none" stroke="#000000" d="M343.1646,-510.9108C318.3548,-523.749 323.6333,-570.7 287.5,-570.7"/>
<polygon fill="#000000" stroke="#000000" points="349.6934,-509.4485 358.2868,-511.213 353.5967,-508.5743 357.5,-507.7 357.5,-507.7 357.5,-507.7 353.5967,-508.5743 356.7132,-504.187 349.6934,-509.4485 349.6934,-509.4485"/>
<ellipse fill="none" stroke="#000000" cx="346.5708" cy="-510.1479" rx="3.2" ry="3.2"/>
</g>
<!-- cor_uaa_user_password -->
<g id="node4" class="node">
<title>cor_uaa_user_password</title>
<g id="a_node4"><a xlink:href="../../tables/cor_uaa_user_password.html" xlink:title="cor_uaa_user_password" target="_top">
<polygon fill="#ffffff" stroke="transparent" points="338,-38.2 338,-143.2 535,-143.2 535,-38.2 338,-38.2"/>
<polygon fill="#f5f5f5" stroke="transparent" points="338.5,-119.7 338.5,-142.7 535.5,-142.7 535.5,-119.7 338.5,-119.7"/>
<polygon fill="none" stroke="#000000" points="338.5,-119.7 338.5,-142.7 535.5,-142.7 535.5,-119.7 338.5,-119.7"/>
<text text-anchor="start" x="343.5" y="-128.3" font-family="Helvetica,sans-Serif" font-weight="bold" font-size="11.00" fill="#000000">cor_uaa_user_password</text>
<text text-anchor="start" x="501.0219" y="-127.8" font-family="Helvetica,sans-Serif" font-size="11.00" fill="#000000">[table]</text>
<polygon fill="none" stroke="#000000" points="338.5,-97.7 338.5,-119.7 535.5,-119.7 535.5,-97.7 338.5,-97.7"/>
<image xlink:href="../../images/primaryKeys.png" width="11px" height="12px" preserveAspectRatio="xMinYMin meet" x="343.5" y="-114.7"/>
<text text-anchor="start" x="367.5" y="-104.8" font-family="Helvetica,sans-Serif" font-size="11.00" fill="#000000">c_pk</text>
<polygon fill="none" stroke="#000000" points="338.5,-75.7 338.5,-97.7 535.5,-97.7 535.5,-75.7 338.5,-75.7"/>
<image xlink:href="../../images/foreignKeys.png" width="11px" height="12px" preserveAspectRatio="xMinYMin meet" x="343.5" y="-92.7"/>
<text text-anchor="start" x="367.5" y="-82.8" font-family="Helvetica,sans-Serif" font-size="11.00" fill="#000000">c_username</text>
<polygon fill="none" stroke="#000000" points="338.5,-56.7 338.5,-75.7 535.5,-75.7 535.5,-56.7 338.5,-56.7"/>
<text text-anchor="start" x="341.5" y="-62.8" font-family="Helvetica,sans-Serif" font-size="11.00" fill="#000000">...</text>
<polygon fill="#ffffff" stroke="transparent" points="338.5,-37.7 338.5,-56.7 435.5,-56.7 435.5,-37.7 338.5,-37.7"/>
<polygon fill="none" stroke="#000000" points="338.5,-37.7 338.5,-56.7 435.5,-56.7 435.5,-37.7 338.5,-37.7"/>
<text text-anchor="start" x="341.5" y="-43.8" font-family="Helvetica,sans-Serif" font-size="11.00" fill="#000000">&lt; 1</text>
<polygon fill="#ffffff" stroke="transparent" points="435.5,-37.7 435.5,-56.7 485.5,-56.7 485.5,-37.7 435.5,-37.7"/>
<polygon fill="none" stroke="#000000" points="435.5,-37.7 435.5,-56.7 485.5,-56.7 485.5,-37.7 435.5,-37.7"/>
<text text-anchor="start" x="476.3862" y="-43.8" font-family="Helvetica,sans-Serif" font-size="11.00" fill="#000000"> &#160;</text>
<polygon fill="#ffffff" stroke="transparent" points="485.5,-37.7 485.5,-56.7 535.5,-56.7 535.5,-37.7 485.5,-37.7"/>
<polygon fill="none" stroke="#000000" points="485.5,-37.7 485.5,-56.7 535.5,-56.7 535.5,-37.7 485.5,-37.7"/>
<text text-anchor="start" x="526.3862" y="-43.8" font-family="Helvetica,sans-Serif" font-size="11.00" fill="#000000"> &#160;</text>
</a>
</g>
</g>
<!-- cor_uaa_user_password&#45;&gt;cor_uaa_user -->
<g id="edge3" class="edge">
<title>cor_uaa_user_password:w&#45;&gt;cor_uaa_user:e</title>
<path fill="none" stroke="#000000" d="M323.776,-86.7C311.7815,-86.7 304.3229,-86.7 287.5,-86.7"/>
<polygon fill="#000000" stroke="#000000" points="330.5,-86.7001 338.5,-90.3 334.5,-86.7 338.5,-86.7 338.5,-86.7 338.5,-86.7 334.5,-86.7 338.5,-83.1 330.5,-86.7001 330.5,-86.7001"/>
<ellipse fill="none" stroke="#000000" cx="327.3" cy="-86.7001" rx="3.2" ry="3.2"/>
</g>
</g>
</svg>
