<?xml version="1.0" encoding="UTF-8" standalone="no"?>
<!DOCTYPE svg PUBLIC "-//W3C//DTD SVG 1.1//EN"
 "http://www.w3.org/Graphics/SVG/1.1/DTD/svg11.dtd">
<!-- Generated by graphviz version 2.40.1 (20161225.0304)
 -->
<!-- Title: oneDegreeRelationshipsDiagram Pages: 1 -->
<svg width="379pt" height="190pt"
 viewBox="0.00 0.00 379.00 189.70" xmlns="http://www.w3.org/2000/svg" xmlns:xlink="http://www.w3.org/1999/xlink">
<g id="graph0" class="graph" transform="scale(1 1) rotate(0) translate(4 185.7)">
<title>oneDegreeRelationshipsDiagram</title>
<polygon fill="#ffffff" stroke="transparent" points="-4,4 -4,-185.7 375,-185.7 375,4 -4,4"/>
<text text-anchor="middle" x="72.4936" y="-7.3" font-family="Helvetica,sans-Serif" font-size="11.00" fill="#000000">Generated by SchemaSpy</text>
<!-- cor_uaa_role_role -->
<g id="node1" class="node">
<title>cor_uaa_role_role</title>
<g id="a_node1"><a xlink:href="../../tables/cor_uaa_role_role.html" xlink:title="cor_uaa_role_role" target="_top">
<polygon fill="#ffffff" stroke="transparent" points="180,-87.7 180,-177.7 363,-177.7 363,-87.7 180,-87.7"/>
<polygon fill="#f5f5f5" stroke="transparent" points="182.5,-152.7 182.5,-175.7 361.5,-175.7 361.5,-152.7 182.5,-152.7"/>
<polygon fill="none" stroke="#000000" points="182.5,-152.7 182.5,-175.7 361.5,-175.7 361.5,-152.7 182.5,-152.7"/>
<text text-anchor="start" x="187.5" y="-161.3" font-family="Helvetica,sans-Serif" font-weight="bold" font-size="11.00" fill="#000000">cor_uaa_role_role</text>
<text text-anchor="start" x="326.5437" y="-160.8" font-family="Helvetica,sans-Serif" font-size="11.00" fill="#000000">[table]</text>
<polygon fill="none" stroke="#000000" points="182.5,-130.7 182.5,-152.7 319.5,-152.7 319.5,-130.7 182.5,-130.7"/>
<image xlink:href="../../images/primaryKeys.png" width="11px" height="12px" preserveAspectRatio="xMinYMin meet" x="187.5" y="-147.7"/>
<text text-anchor="start" x="202.5" y="-137.8" font-family="Helvetica,sans-Serif" font-size="11.00" fill="#000000">c_role_id</text>
<polygon fill="none" stroke="#000000" points="319.5,-130.7 319.5,-152.7 361.5,-152.7 361.5,-130.7 319.5,-130.7"/>
<text text-anchor="start" x="322.4644" y="-138.4" font-family="Helvetica,sans-Serif" font-size="11.00" fill="#000000">int8[19]</text>
<polygon fill="none" stroke="#000000" points="182.5,-108.7 182.5,-130.7 319.5,-130.7 319.5,-108.7 182.5,-108.7"/>
<image xlink:href="../../images/primaryKeys.png" width="11px" height="12px" preserveAspectRatio="xMinYMin meet" x="187.5" y="-125.7"/>
<text text-anchor="start" x="202.5" y="-115.8" font-family="Helvetica,sans-Serif" font-size="11.00" fill="#000000">c_grant_id</text>
<polygon fill="none" stroke="#000000" points="319.5,-108.7 319.5,-130.7 361.5,-130.7 361.5,-108.7 319.5,-108.7"/>
<text text-anchor="start" x="322.4644" y="-116.4" font-family="Helvetica,sans-Serif" font-size="11.00" fill="#000000">int8[19]</text>
<polygon fill="#ffffff" stroke="transparent" points="182.5,-89.7 182.5,-108.7 255.5,-108.7 255.5,-89.7 182.5,-89.7"/>
<polygon fill="none" stroke="#000000" points="182.5,-89.7 182.5,-108.7 255.5,-108.7 255.5,-89.7 182.5,-89.7"/>
<text text-anchor="start" x="185.5" y="-95.8" font-family="Helvetica,sans-Serif" font-size="11.00" fill="#000000">&lt; 2</text>
<polygon fill="#ffffff" stroke="transparent" points="255.5,-89.7 255.5,-108.7 319.5,-108.7 319.5,-89.7 255.5,-89.7"/>
<polygon fill="none" stroke="#000000" points="255.5,-89.7 255.5,-108.7 319.5,-108.7 319.5,-89.7 255.5,-89.7"/>
<text text-anchor="start" x="310.3862" y="-95.8" font-family="Helvetica,sans-Serif" font-size="11.00" fill="#000000"> &#160;</text>
<polygon fill="#ffffff" stroke="transparent" points="319.5,-89.7 319.5,-108.7 361.5,-108.7 361.5,-89.7 319.5,-89.7"/>
<polygon fill="none" stroke="#000000" points="319.5,-89.7 319.5,-108.7 361.5,-108.7 361.5,-89.7 319.5,-89.7"/>
<text text-anchor="start" x="342.9053" y="-95.8" font-family="Helvetica,sans-Serif" font-size="11.00" fill="#000000">0 &gt;</text>
<polygon fill="none" stroke="#000000" stroke-width="2" points="181,-88.7 181,-176.7 362,-176.7 362,-88.7 181,-88.7"/>
</a>
</g>
</g>
<!-- cor_uaa_role -->
<g id="node2" class="node">
<title>cor_uaa_role</title>
<g id="a_node2"><a xlink:href="../../tables/cor_uaa_role.html" xlink:title="cor_uaa_role" target="_top">
<polygon fill="#ffffff" stroke="transparent" points="8,-38.2 8,-165.2 131,-165.2 131,-38.2 8,-38.2"/>
<polygon fill="#f5f5f5" stroke="transparent" points="8.5,-141.7 8.5,-164.7 131.5,-164.7 131.5,-141.7 8.5,-141.7"/>
<polygon fill="none" stroke="#000000" points="8.5,-141.7 8.5,-164.7 131.5,-164.7 131.5,-141.7 8.5,-141.7"/>
<text text-anchor="start" x="13.5" y="-150.3" font-family="Helvetica,sans-Serif" font-weight="bold" font-size="11.00" fill="#000000">cor_uaa_role</text>
<text text-anchor="start" x="97.0219" y="-149.8" font-family="Helvetica,sans-Serif" font-size="11.00" fill="#000000">[table]</text>
<polygon fill="none" stroke="#000000" points="8.5,-119.7 8.5,-141.7 131.5,-141.7 131.5,-119.7 8.5,-119.7"/>
<image xlink:href="../../images/primaryKeys.png" width="11px" height="12px" preserveAspectRatio="xMinYMin meet" x="13.5" y="-136.7"/>
<text text-anchor="start" x="34.5" y="-126.8" font-family="Helvetica,sans-Serif" font-size="11.00" fill="#000000">c_pk</text>
<polygon fill="#ffffff" stroke="transparent" points="8.5,-97.7 8.5,-119.7 131.5,-119.7 131.5,-97.7 8.5,-97.7"/>
<polygon fill="none" stroke="#000000" points="8.5,-97.7 8.5,-119.7 131.5,-119.7 131.5,-97.7 8.5,-97.7"/>
<text text-anchor="start" x="34.5" y="-104.8" font-family="Helvetica,sans-Serif" font-size="11.00" fill="#000000">c_pid</text>
<polygon fill="#ffffff" stroke="transparent" points="8.5,-75.7 8.5,-97.7 131.5,-97.7 131.5,-75.7 8.5,-75.7"/>
<polygon fill="none" stroke="#000000" points="8.5,-75.7 8.5,-97.7 131.5,-97.7 131.5,-75.7 8.5,-75.7"/>
<text text-anchor="start" x="34.5" y="-82.8" font-family="Helvetica,sans-Serif" font-size="11.00" fill="#000000">c_name</text>
<polygon fill="none" stroke="#000000" points="8.5,-56.7 8.5,-75.7 131.5,-75.7 131.5,-56.7 8.5,-56.7"/>
<text text-anchor="start" x="11.5" y="-62.8" font-family="Helvetica,sans-Serif" font-size="11.00" fill="#000000">...</text>
<polygon fill="#ffffff" stroke="transparent" points="8.5,-37.7 8.5,-56.7 59.5,-56.7 59.5,-37.7 8.5,-37.7"/>
<polygon fill="none" stroke="#000000" points="8.5,-37.7 8.5,-56.7 59.5,-56.7 59.5,-37.7 8.5,-37.7"/>
<text text-anchor="start" x="11.5" y="-43.8" font-family="Helvetica,sans-Serif" font-size="11.00" fill="#000000"> &#160;</text>
<polygon fill="#ffffff" stroke="transparent" points="59.5,-37.7 59.5,-56.7 90.5,-56.7 90.5,-37.7 59.5,-37.7"/>
<polygon fill="none" stroke="#000000" points="59.5,-37.7 59.5,-56.7 90.5,-56.7 90.5,-37.7 59.5,-37.7"/>
<text text-anchor="start" x="81.3862" y="-43.8" font-family="Helvetica,sans-Serif" font-size="11.00" fill="#000000"> &#160;</text>
<polygon fill="#ffffff" stroke="transparent" points="90.5,-37.7 90.5,-56.7 131.5,-56.7 131.5,-37.7 90.5,-37.7"/>
<polygon fill="none" stroke="#000000" points="90.5,-37.7 90.5,-56.7 131.5,-56.7 131.5,-37.7 90.5,-37.7"/>
<text text-anchor="start" x="112.9053" y="-43.8" font-family="Helvetica,sans-Serif" font-size="11.00" fill="#000000">3 &gt;</text>
</a>
</g>
</g>
<!-- cor_uaa_role_role&#45;&gt;cor_uaa_role -->
<g id="edge1" class="edge">
<title>cor_uaa_role_role:w&#45;&gt;cor_uaa_role:e</title>
<path fill="none" stroke="#000000" d="M168.0097,-121.4188C155.8398,-124.5125 148.8909,-130.7 131.5,-130.7"/>
<polygon fill="#000000" stroke="#000000" points="174.5557,-120.6424 182.9241,-123.2749 178.5278,-120.1712 182.5,-119.7 182.5,-119.7 182.5,-119.7 178.5278,-120.1712 182.0759,-116.1251 174.5557,-120.6424 174.5557,-120.6424"/>
<ellipse fill="none" stroke="#000000" cx="171.378" cy="-121.0193" rx="3.2" ry="3.2"/>
</g>
<!-- cor_uaa_role_role&#45;&gt;cor_uaa_role -->
<g id="edge2" class="edge">
<title>cor_uaa_role_role:w&#45;&gt;cor_uaa_role:e</title>
<path fill="none" stroke="#000000" d="M168.0097,-139.9813C155.8398,-136.8875 148.8909,-130.7 131.5,-130.7"/>
<polygon fill="#000000" stroke="#000000" points="174.5557,-140.7576 182.0759,-145.2749 178.5278,-141.2288 182.5,-141.7 182.5,-141.7 182.5,-141.7 178.5278,-141.2288 182.9241,-138.1251 174.5557,-140.7576 174.5557,-140.7576"/>
<ellipse fill="none" stroke="#000000" cx="171.378" cy="-140.3807" rx="3.2" ry="3.2"/>
</g>
</g>
</svg>
