<?xml version="1.0" encoding="UTF-8" standalone="no"?>
<!DOCTYPE svg PUBLIC "-//W3C//DTD SVG 1.1//EN"
 "http://www.w3.org/Graphics/SVG/1.1/DTD/svg11.dtd">
<!-- Generated by graphviz version 2.40.1 (20161225.0304)
 -->
<!-- Title: oneDegreeRelationshipsDiagram Pages: 1 -->
<svg width="432pt" height="338pt"
 viewBox="0.00 0.00 432.00 338.20" xmlns="http://www.w3.org/2000/svg" xmlns:xlink="http://www.w3.org/1999/xlink">
<g id="graph0" class="graph" transform="scale(1 1) rotate(0) translate(4 334.2)">
<title>oneDegreeRelationshipsDiagram</title>
<polygon fill="#ffffff" stroke="transparent" points="-4,4 -4,-334.2 428,-334.2 428,4 -4,4"/>
<text text-anchor="middle" x="72.4936" y="-7.3" font-family="Helvetica,sans-Serif" font-size="11.00" fill="#000000">Generated by SchemaSpy</text>
<!-- cor_uaa_role_role -->
<g id="node1" class="node">
<title>cor_uaa_role_role</title>
<g id="a_node1"><a xlink:href="../../tables/cor_uaa_role_role.html" xlink:title="cor_uaa_role_role" target="_top">
<polygon fill="#ffffff" stroke="transparent" points="259,-238.2 259,-324.2 414,-324.2 414,-238.2 259,-238.2"/>
<polygon fill="#f5f5f5" stroke="transparent" points="259.5,-301.2 259.5,-324.2 414.5,-324.2 414.5,-301.2 259.5,-301.2"/>
<polygon fill="none" stroke="#000000" points="259.5,-301.2 259.5,-324.2 414.5,-324.2 414.5,-301.2 259.5,-301.2"/>
<text text-anchor="start" x="264.5" y="-309.8" font-family="Helvetica,sans-Serif" font-weight="bold" font-size="11.00" fill="#000000">cor_uaa_role_role</text>
<text text-anchor="start" x="380.0219" y="-309.3" font-family="Helvetica,sans-Serif" font-size="11.00" fill="#000000">[table]</text>
<polygon fill="none" stroke="#000000" points="259.5,-279.2 259.5,-301.2 414.5,-301.2 414.5,-279.2 259.5,-279.2"/>
<image xlink:href="../../images/primaryKeys.png" width="11px" height="12px" preserveAspectRatio="xMinYMin meet" x="264.5" y="-296.2"/>
<text text-anchor="start" x="288.5" y="-286.3" font-family="Helvetica,sans-Serif" font-size="11.00" fill="#000000">c_role_id</text>
<polygon fill="none" stroke="#000000" points="259.5,-257.2 259.5,-279.2 414.5,-279.2 414.5,-257.2 259.5,-257.2"/>
<image xlink:href="../../images/primaryKeys.png" width="11px" height="12px" preserveAspectRatio="xMinYMin meet" x="264.5" y="-274.2"/>
<text text-anchor="start" x="288.5" y="-264.3" font-family="Helvetica,sans-Serif" font-size="11.00" fill="#000000">c_grant_id</text>
<polygon fill="#ffffff" stroke="transparent" points="259.5,-238.2 259.5,-257.2 335.5,-257.2 335.5,-238.2 259.5,-238.2"/>
<polygon fill="none" stroke="#000000" points="259.5,-238.2 259.5,-257.2 335.5,-257.2 335.5,-238.2 259.5,-238.2"/>
<text text-anchor="start" x="262.5" y="-244.3" font-family="Helvetica,sans-Serif" font-size="11.00" fill="#000000">&lt; 2</text>
<polygon fill="#ffffff" stroke="transparent" points="335.5,-238.2 335.5,-257.2 374.5,-257.2 374.5,-238.2 335.5,-238.2"/>
<polygon fill="none" stroke="#000000" points="335.5,-238.2 335.5,-257.2 374.5,-257.2 374.5,-238.2 335.5,-238.2"/>
<text text-anchor="start" x="365.3862" y="-244.3" font-family="Helvetica,sans-Serif" font-size="11.00" fill="#000000"> &#160;</text>
<polygon fill="#ffffff" stroke="transparent" points="374.5,-238.2 374.5,-257.2 414.5,-257.2 414.5,-238.2 374.5,-238.2"/>
<polygon fill="none" stroke="#000000" points="374.5,-238.2 374.5,-257.2 414.5,-257.2 414.5,-238.2 374.5,-238.2"/>
<text text-anchor="start" x="405.3862" y="-244.3" font-family="Helvetica,sans-Serif" font-size="11.00" fill="#000000"> &#160;</text>
</a>
</g>
</g>
<!-- cor_uaa_role -->
<g id="node2" class="node">
<title>cor_uaa_role</title>
<g id="a_node2"><a xlink:href="../../tables/cor_uaa_role.html" xlink:title="cor_uaa_role" target="_top">
<polygon fill="#ffffff" stroke="transparent" points="8,-38.2 8,-326.2 208,-326.2 208,-38.2 8,-38.2"/>
<polygon fill="#f5f5f5" stroke="transparent" points="10,-301.2 10,-324.2 206,-324.2 206,-301.2 10,-301.2"/>
<polygon fill="none" stroke="#000000" points="10,-301.2 10,-324.2 206,-324.2 206,-301.2 10,-301.2"/>
<text text-anchor="start" x="15" y="-309.8" font-family="Helvetica,sans-Serif" font-weight="bold" font-size="11.00" fill="#000000">cor_uaa_role</text>
<text text-anchor="start" x="171.0437" y="-309.3" font-family="Helvetica,sans-Serif" font-size="11.00" fill="#000000">[table]</text>
<polygon fill="none" stroke="#000000" points="10,-279.2 10,-301.2 122,-301.2 122,-279.2 10,-279.2"/>
<text text-anchor="start" x="30" y="-286.3" font-family="Helvetica,sans-Serif" font-size="11.00" fill="#000000">c_type</text>
<polygon fill="none" stroke="#000000" points="122,-279.2 122,-301.2 206,-301.2 206,-279.2 122,-279.2"/>
<text text-anchor="start" x="125" y="-286.9" font-family="Helvetica,sans-Serif" font-size="11.00" fill="#000000">varchar[20]</text>
<polygon fill="none" stroke="#000000" points="10,-257.2 10,-279.2 122,-279.2 122,-257.2 10,-257.2"/>
<image xlink:href="../../images/primaryKeys.png" width="11px" height="12px" preserveAspectRatio="xMinYMin meet" x="15" y="-274.2"/>
<text text-anchor="start" x="30" y="-264.3" font-family="Helvetica,sans-Serif" font-size="11.00" fill="#000000">c_pk</text>
<polygon fill="none" stroke="#000000" points="122,-257.2 122,-279.2 206,-279.2 206,-257.2 122,-257.2"/>
<text text-anchor="start" x="125" y="-264.9" font-family="Helvetica,sans-Serif" font-size="11.00" fill="#000000">int8[19]</text>
<polygon fill="none" stroke="#000000" points="10,-235.2 10,-257.2 122,-257.2 122,-235.2 10,-235.2"/>
<text text-anchor="start" x="30" y="-242.3" font-family="Helvetica,sans-Serif" font-size="11.00" fill="#000000">c_created</text>
<polygon fill="none" stroke="#000000" points="122,-235.2 122,-257.2 206,-257.2 206,-235.2 122,-235.2"/>
<text text-anchor="start" x="124.8807" y="-242.9" font-family="Helvetica,sans-Serif" font-size="11.00" fill="#000000">timestamp[29,6]</text>
<polygon fill="none" stroke="#000000" points="10,-213.2 10,-235.2 122,-235.2 122,-213.2 10,-213.2"/>
<text text-anchor="start" x="30" y="-220.3" font-family="Helvetica,sans-Serif" font-size="11.00" fill="#000000">c_created_by</text>
<polygon fill="none" stroke="#000000" points="122,-213.2 122,-235.2 206,-235.2 206,-213.2 122,-213.2"/>
<text text-anchor="start" x="125" y="-220.9" font-family="Helvetica,sans-Serif" font-size="11.00" fill="#000000">varchar[255]</text>
<polygon fill="none" stroke="#000000" points="10,-191.2 10,-213.2 122,-213.2 122,-191.2 10,-191.2"/>
<text text-anchor="start" x="30" y="-198.3" font-family="Helvetica,sans-Serif" font-size="11.00" fill="#000000">c_updated_by</text>
<polygon fill="none" stroke="#000000" points="122,-191.2 122,-213.2 206,-213.2 206,-191.2 122,-191.2"/>
<text text-anchor="start" x="125" y="-198.9" font-family="Helvetica,sans-Serif" font-size="11.00" fill="#000000">varchar[255]</text>
<polygon fill="none" stroke="#000000" points="10,-169.2 10,-191.2 122,-191.2 122,-169.2 10,-169.2"/>
<text text-anchor="start" x="30" y="-176.3" font-family="Helvetica,sans-Serif" font-size="11.00" fill="#000000">c_updated</text>
<polygon fill="none" stroke="#000000" points="122,-169.2 122,-191.2 206,-191.2 206,-169.2 122,-169.2"/>
<text text-anchor="start" x="124.8807" y="-176.9" font-family="Helvetica,sans-Serif" font-size="11.00" fill="#000000">timestamp[29,6]</text>
<polygon fill="none" stroke="#000000" points="10,-147.2 10,-169.2 122,-169.2 122,-147.2 10,-147.2"/>
<text text-anchor="start" x="30" y="-154.3" font-family="Helvetica,sans-Serif" font-size="11.00" fill="#000000">c_ol</text>
<polygon fill="none" stroke="#000000" points="122,-147.2 122,-169.2 206,-169.2 206,-147.2 122,-147.2"/>
<text text-anchor="start" x="125" y="-154.9" font-family="Helvetica,sans-Serif" font-size="11.00" fill="#000000">int8[19]</text>
<polygon fill="#ffffff" stroke="transparent" points="10,-125.2 10,-147.2 122,-147.2 122,-125.2 10,-125.2"/>
<polygon fill="none" stroke="#000000" points="10,-125.2 10,-147.2 122,-147.2 122,-125.2 10,-125.2"/>
<text text-anchor="start" x="30" y="-132.3" font-family="Helvetica,sans-Serif" font-size="11.00" fill="#000000">c_pid</text>
<polygon fill="none" stroke="#000000" points="122,-125.2 122,-147.2 206,-147.2 206,-125.2 122,-125.2"/>
<text text-anchor="start" x="125" y="-132.9" font-family="Helvetica,sans-Serif" font-size="11.00" fill="#000000">varchar[255]</text>
<polygon fill="none" stroke="#000000" points="10,-103.2 10,-125.2 122,-125.2 122,-103.2 10,-103.2"/>
<text text-anchor="start" x="30" y="-110.3" font-family="Helvetica,sans-Serif" font-size="11.00" fill="#000000">c_description</text>
<polygon fill="none" stroke="#000000" points="122,-103.2 122,-125.2 206,-125.2 206,-103.2 122,-103.2"/>
<text text-anchor="start" x="125" y="-110.9" font-family="Helvetica,sans-Serif" font-size="11.00" fill="#000000">varchar[1024]</text>
<polygon fill="#ffffff" stroke="transparent" points="10,-81.2 10,-103.2 122,-103.2 122,-81.2 10,-81.2"/>
<polygon fill="none" stroke="#000000" points="10,-81.2 10,-103.2 122,-103.2 122,-81.2 10,-81.2"/>
<text text-anchor="start" x="30" y="-88.3" font-family="Helvetica,sans-Serif" font-size="11.00" fill="#000000">c_name</text>
<polygon fill="none" stroke="#000000" points="122,-81.2 122,-103.2 206,-103.2 206,-81.2 122,-81.2"/>
<text text-anchor="start" x="125" y="-88.9" font-family="Helvetica,sans-Serif" font-size="11.00" fill="#000000">varchar[255]</text>
<polygon fill="none" stroke="#000000" points="10,-59.2 10,-81.2 122,-81.2 122,-59.2 10,-59.2"/>
<text text-anchor="start" x="30" y="-66.3" font-family="Helvetica,sans-Serif" font-size="11.00" fill="#000000">c_immutable</text>
<polygon fill="none" stroke="#000000" points="122,-59.2 122,-81.2 206,-81.2 206,-59.2 122,-59.2"/>
<text text-anchor="start" x="125" y="-66.9" font-family="Helvetica,sans-Serif" font-size="11.00" fill="#000000">bool[1]</text>
<polygon fill="#ffffff" stroke="transparent" points="10,-40.2 10,-59.2 70,-59.2 70,-40.2 10,-40.2"/>
<polygon fill="none" stroke="#000000" points="10,-40.2 10,-59.2 70,-59.2 70,-40.2 10,-40.2"/>
<text text-anchor="start" x="13" y="-46.3" font-family="Helvetica,sans-Serif" font-size="11.00" fill="#000000">&lt; 0</text>
<polygon fill="#ffffff" stroke="transparent" points="70,-40.2 70,-59.2 122,-59.2 122,-40.2 70,-40.2"/>
<polygon fill="none" stroke="#000000" points="70,-40.2 70,-59.2 122,-59.2 122,-40.2 70,-40.2"/>
<text text-anchor="start" x="112.8862" y="-46.3" font-family="Helvetica,sans-Serif" font-size="11.00" fill="#000000"> &#160;</text>
<polygon fill="#ffffff" stroke="transparent" points="122,-40.2 122,-59.2 206,-59.2 206,-40.2 122,-40.2"/>
<polygon fill="none" stroke="#000000" points="122,-40.2 122,-59.2 206,-59.2 206,-40.2 122,-40.2"/>
<text text-anchor="start" x="187.4053" y="-46.3" font-family="Helvetica,sans-Serif" font-size="11.00" fill="#000000">3 &gt;</text>
<polygon fill="none" stroke="#000000" stroke-width="2" points="9,-39.2 9,-325.2 207,-325.2 207,-39.2 9,-39.2"/>
</a>
</g>
</g>
<!-- cor_uaa_role_role&#45;&gt;cor_uaa_role -->
<g id="edge1" class="edge">
<title>cor_uaa_role_role:w&#45;&gt;cor_uaa_role:e</title>
<path fill="none" stroke="#000000" d="M244.8553,-268.2C231.7969,-268.2 224.0191,-268.2 206,-268.2"/>
<polygon fill="#000000" stroke="#000000" points="251.5,-268.2001 259.5,-271.8 255.5,-268.2 259.5,-268.2 259.5,-268.2 259.5,-268.2 255.5,-268.2 259.5,-264.6 251.5,-268.2001 251.5,-268.2001"/>
<ellipse fill="none" stroke="#000000" cx="248.3" cy="-268.2001" rx="3.2" ry="3.2"/>
</g>
<!-- cor_uaa_role_role&#45;&gt;cor_uaa_role -->
<g id="edge2" class="edge">
<title>cor_uaa_role_role:w&#45;&gt;cor_uaa_role:e</title>
<path fill="none" stroke="#000000" d="M245.1145,-287.3239C231.6346,-281.3605 225.8848,-268.2 206,-268.2"/>
<polygon fill="#000000" stroke="#000000" points="251.6553,-288.6315 258.7942,-293.7301 255.5776,-289.4158 259.5,-290.2 259.5,-290.2 259.5,-290.2 255.5776,-289.4158 260.2058,-286.6699 251.6553,-288.6315 251.6553,-288.6315"/>
<ellipse fill="none" stroke="#000000" cx="248.5174" cy="-288.0042" rx="3.2" ry="3.2"/>
</g>
<!-- cor_uaa_role_user -->
<g id="node3" class="node">
<title>cor_uaa_role_user</title>
<g id="a_node3"><a xlink:href="../../tables/cor_uaa_role_user.html" xlink:title="cor_uaa_role_user" target="_top">
<polygon fill="#ffffff" stroke="transparent" points="257,-131.2 257,-217.2 416,-217.2 416,-131.2 257,-131.2"/>
<polygon fill="#f5f5f5" stroke="transparent" points="257.5,-194.2 257.5,-217.2 416.5,-217.2 416.5,-194.2 257.5,-194.2"/>
<polygon fill="none" stroke="#000000" points="257.5,-194.2 257.5,-217.2 416.5,-217.2 416.5,-194.2 257.5,-194.2"/>
<text text-anchor="start" x="262.5" y="-202.8" font-family="Helvetica,sans-Serif" font-weight="bold" font-size="11.00" fill="#000000">cor_uaa_role_user</text>
<text text-anchor="start" x="382.0219" y="-202.3" font-family="Helvetica,sans-Serif" font-size="11.00" fill="#000000">[table]</text>
<polygon fill="none" stroke="#000000" points="257.5,-172.2 257.5,-194.2 416.5,-194.2 416.5,-172.2 257.5,-172.2"/>
<image xlink:href="../../images/primaryKeys.png" width="11px" height="12px" preserveAspectRatio="xMinYMin meet" x="262.5" y="-189.2"/>
<text text-anchor="start" x="286.5" y="-179.3" font-family="Helvetica,sans-Serif" font-size="11.00" fill="#000000">c_role_id</text>
<polygon fill="none" stroke="#000000" points="257.5,-150.2 257.5,-172.2 416.5,-172.2 416.5,-150.2 257.5,-150.2"/>
<image xlink:href="../../images/primaryKeys.png" width="11px" height="12px" preserveAspectRatio="xMinYMin meet" x="262.5" y="-167.2"/>
<text text-anchor="start" x="286.5" y="-157.3" font-family="Helvetica,sans-Serif" font-size="11.00" fill="#000000">c_user_id</text>
<polygon fill="#ffffff" stroke="transparent" points="257.5,-131.2 257.5,-150.2 335.5,-150.2 335.5,-131.2 257.5,-131.2"/>
<polygon fill="none" stroke="#000000" points="257.5,-131.2 257.5,-150.2 335.5,-150.2 335.5,-131.2 257.5,-131.2"/>
<text text-anchor="start" x="260.5" y="-137.3" font-family="Helvetica,sans-Serif" font-size="11.00" fill="#000000">&lt; 2</text>
<polygon fill="#ffffff" stroke="transparent" points="335.5,-131.2 335.5,-150.2 375.5,-150.2 375.5,-131.2 335.5,-131.2"/>
<polygon fill="none" stroke="#000000" points="335.5,-131.2 335.5,-150.2 375.5,-150.2 375.5,-131.2 335.5,-131.2"/>
<text text-anchor="start" x="366.3862" y="-137.3" font-family="Helvetica,sans-Serif" font-size="11.00" fill="#000000"> &#160;</text>
<polygon fill="#ffffff" stroke="transparent" points="375.5,-131.2 375.5,-150.2 416.5,-150.2 416.5,-131.2 375.5,-131.2"/>
<polygon fill="none" stroke="#000000" points="375.5,-131.2 375.5,-150.2 416.5,-150.2 416.5,-131.2 375.5,-131.2"/>
<text text-anchor="start" x="407.3862" y="-137.3" font-family="Helvetica,sans-Serif" font-size="11.00" fill="#000000"> &#160;</text>
</a>
</g>
</g>
<!-- cor_uaa_role_user&#45;&gt;cor_uaa_role -->
<g id="edge3" class="edge">
<title>cor_uaa_role_user:w&#45;&gt;cor_uaa_role:e</title>
<path fill="none" stroke="#000000" d="M243.5119,-187.532C221.8888,-204.8534 244.1318,-268.2 206,-268.2"/>
<polygon fill="#000000" stroke="#000000" points="249.8581,-185.5667 258.565,-186.6389 253.679,-184.3833 257.5,-183.2 257.5,-183.2 257.5,-183.2 253.679,-184.3833 256.435,-179.7611 249.8581,-185.5667 249.8581,-185.5667"/>
<ellipse fill="none" stroke="#000000" cx="246.8013" cy="-186.5134" rx="3.2" ry="3.2"/>
</g>
</g>
</svg>
