<?xml version="1.0" encoding="UTF-8" standalone="no"?>
<!DOCTYPE svg PUBLIC "-//W3C//DTD SVG 1.1//EN"
 "http://www.w3.org/Graphics/SVG/1.1/DTD/svg11.dtd">
<!-- Generated by graphviz version 2.40.1 (20161225.0304)
 -->
<!-- Title: twoDegreesRelationshipsDiagram Pages: 1 -->
<svg width="432pt" height="421pt"
 viewBox="0.00 0.00 432.00 420.70" xmlns="http://www.w3.org/2000/svg" xmlns:xlink="http://www.w3.org/1999/xlink">
<g id="graph0" class="graph" transform="scale(1 1) rotate(0) translate(4 416.7)">
<title>twoDegreesRelationshipsDiagram</title>
<polygon fill="#ffffff" stroke="transparent" points="-4,4 -4,-416.7 428,-416.7 428,4 -4,4"/>
<text text-anchor="middle" x="72.4936" y="-7.3" font-family="Helvetica,sans-Serif" font-size="11.00" fill="#000000">Generated by SchemaSpy</text>
<!-- cor_uaa_role_role -->
<g id="node1" class="node">
<title>cor_uaa_role_role</title>
<g id="a_node1"><a xlink:href="../../tables/cor_uaa_role_role.html" xlink:title="cor_uaa_role_role" target="_top">
<polygon fill="#ffffff" stroke="transparent" points="259,-309.7 259,-395.7 414,-395.7 414,-309.7 259,-309.7"/>
<polygon fill="#f5f5f5" stroke="transparent" points="259.5,-372.7 259.5,-395.7 414.5,-395.7 414.5,-372.7 259.5,-372.7"/>
<polygon fill="none" stroke="#000000" points="259.5,-372.7 259.5,-395.7 414.5,-395.7 414.5,-372.7 259.5,-372.7"/>
<text text-anchor="start" x="264.5" y="-381.3" font-family="Helvetica,sans-Serif" font-weight="bold" font-size="11.00" fill="#000000">cor_uaa_role_role</text>
<text text-anchor="start" x="380.0219" y="-380.8" font-family="Helvetica,sans-Serif" font-size="11.00" fill="#000000">[table]</text>
<polygon fill="none" stroke="#000000" points="259.5,-350.7 259.5,-372.7 414.5,-372.7 414.5,-350.7 259.5,-350.7"/>
<image xlink:href="../../images/primaryKeys.png" width="11px" height="12px" preserveAspectRatio="xMinYMin meet" x="264.5" y="-367.7"/>
<text text-anchor="start" x="288.5" y="-357.8" font-family="Helvetica,sans-Serif" font-size="11.00" fill="#000000">c_role_id</text>
<polygon fill="none" stroke="#000000" points="259.5,-328.7 259.5,-350.7 414.5,-350.7 414.5,-328.7 259.5,-328.7"/>
<image xlink:href="../../images/primaryKeys.png" width="11px" height="12px" preserveAspectRatio="xMinYMin meet" x="264.5" y="-345.7"/>
<text text-anchor="start" x="288.5" y="-335.8" font-family="Helvetica,sans-Serif" font-size="11.00" fill="#000000">c_grant_id</text>
<polygon fill="#ffffff" stroke="transparent" points="259.5,-309.7 259.5,-328.7 335.5,-328.7 335.5,-309.7 259.5,-309.7"/>
<polygon fill="none" stroke="#000000" points="259.5,-309.7 259.5,-328.7 335.5,-328.7 335.5,-309.7 259.5,-309.7"/>
<text text-anchor="start" x="262.5" y="-315.8" font-family="Helvetica,sans-Serif" font-size="11.00" fill="#000000">&lt; 2</text>
<polygon fill="#ffffff" stroke="transparent" points="335.5,-309.7 335.5,-328.7 374.5,-328.7 374.5,-309.7 335.5,-309.7"/>
<polygon fill="none" stroke="#000000" points="335.5,-309.7 335.5,-328.7 374.5,-328.7 374.5,-309.7 335.5,-309.7"/>
<text text-anchor="start" x="365.3862" y="-315.8" font-family="Helvetica,sans-Serif" font-size="11.00" fill="#000000"> &#160;</text>
<polygon fill="#ffffff" stroke="transparent" points="374.5,-309.7 374.5,-328.7 414.5,-328.7 414.5,-309.7 374.5,-309.7"/>
<polygon fill="none" stroke="#000000" points="374.5,-309.7 374.5,-328.7 414.5,-328.7 414.5,-309.7 374.5,-309.7"/>
<text text-anchor="start" x="405.3862" y="-315.8" font-family="Helvetica,sans-Serif" font-size="11.00" fill="#000000"> &#160;</text>
</a>
</g>
</g>
<!-- cor_uaa_role -->
<g id="node2" class="node">
<title>cor_uaa_role</title>
<g id="a_node2"><a xlink:href="../../tables/cor_uaa_role.html" xlink:title="cor_uaa_role" target="_top">
<polygon fill="#ffffff" stroke="transparent" points="8,-120.7 8,-408.7 208,-408.7 208,-120.7 8,-120.7"/>
<polygon fill="#f5f5f5" stroke="transparent" points="10,-383.7 10,-406.7 206,-406.7 206,-383.7 10,-383.7"/>
<polygon fill="none" stroke="#000000" points="10,-383.7 10,-406.7 206,-406.7 206,-383.7 10,-383.7"/>
<text text-anchor="start" x="15" y="-392.3" font-family="Helvetica,sans-Serif" font-weight="bold" font-size="11.00" fill="#000000">cor_uaa_role</text>
<text text-anchor="start" x="171.0437" y="-391.8" font-family="Helvetica,sans-Serif" font-size="11.00" fill="#000000">[table]</text>
<polygon fill="none" stroke="#000000" points="10,-361.7 10,-383.7 122,-383.7 122,-361.7 10,-361.7"/>
<text text-anchor="start" x="30" y="-368.8" font-family="Helvetica,sans-Serif" font-size="11.00" fill="#000000">c_type</text>
<polygon fill="none" stroke="#000000" points="122,-361.7 122,-383.7 206,-383.7 206,-361.7 122,-361.7"/>
<text text-anchor="start" x="125" y="-369.4" font-family="Helvetica,sans-Serif" font-size="11.00" fill="#000000">varchar[20]</text>
<polygon fill="none" stroke="#000000" points="10,-339.7 10,-361.7 122,-361.7 122,-339.7 10,-339.7"/>
<image xlink:href="../../images/primaryKeys.png" width="11px" height="12px" preserveAspectRatio="xMinYMin meet" x="15" y="-356.7"/>
<text text-anchor="start" x="30" y="-346.8" font-family="Helvetica,sans-Serif" font-size="11.00" fill="#000000">c_pk</text>
<polygon fill="none" stroke="#000000" points="122,-339.7 122,-361.7 206,-361.7 206,-339.7 122,-339.7"/>
<text text-anchor="start" x="125" y="-347.4" font-family="Helvetica,sans-Serif" font-size="11.00" fill="#000000">int8[19]</text>
<polygon fill="none" stroke="#000000" points="10,-317.7 10,-339.7 122,-339.7 122,-317.7 10,-317.7"/>
<text text-anchor="start" x="30" y="-324.8" font-family="Helvetica,sans-Serif" font-size="11.00" fill="#000000">c_created</text>
<polygon fill="none" stroke="#000000" points="122,-317.7 122,-339.7 206,-339.7 206,-317.7 122,-317.7"/>
<text text-anchor="start" x="124.8807" y="-325.4" font-family="Helvetica,sans-Serif" font-size="11.00" fill="#000000">timestamp[29,6]</text>
<polygon fill="none" stroke="#000000" points="10,-295.7 10,-317.7 122,-317.7 122,-295.7 10,-295.7"/>
<text text-anchor="start" x="30" y="-302.8" font-family="Helvetica,sans-Serif" font-size="11.00" fill="#000000">c_created_by</text>
<polygon fill="none" stroke="#000000" points="122,-295.7 122,-317.7 206,-317.7 206,-295.7 122,-295.7"/>
<text text-anchor="start" x="125" y="-303.4" font-family="Helvetica,sans-Serif" font-size="11.00" fill="#000000">varchar[255]</text>
<polygon fill="none" stroke="#000000" points="10,-273.7 10,-295.7 122,-295.7 122,-273.7 10,-273.7"/>
<text text-anchor="start" x="30" y="-280.8" font-family="Helvetica,sans-Serif" font-size="11.00" fill="#000000">c_updated_by</text>
<polygon fill="none" stroke="#000000" points="122,-273.7 122,-295.7 206,-295.7 206,-273.7 122,-273.7"/>
<text text-anchor="start" x="125" y="-281.4" font-family="Helvetica,sans-Serif" font-size="11.00" fill="#000000">varchar[255]</text>
<polygon fill="none" stroke="#000000" points="10,-251.7 10,-273.7 122,-273.7 122,-251.7 10,-251.7"/>
<text text-anchor="start" x="30" y="-258.8" font-family="Helvetica,sans-Serif" font-size="11.00" fill="#000000">c_updated</text>
<polygon fill="none" stroke="#000000" points="122,-251.7 122,-273.7 206,-273.7 206,-251.7 122,-251.7"/>
<text text-anchor="start" x="124.8807" y="-259.4" font-family="Helvetica,sans-Serif" font-size="11.00" fill="#000000">timestamp[29,6]</text>
<polygon fill="none" stroke="#000000" points="10,-229.7 10,-251.7 122,-251.7 122,-229.7 10,-229.7"/>
<text text-anchor="start" x="30" y="-236.8" font-family="Helvetica,sans-Serif" font-size="11.00" fill="#000000">c_ol</text>
<polygon fill="none" stroke="#000000" points="122,-229.7 122,-251.7 206,-251.7 206,-229.7 122,-229.7"/>
<text text-anchor="start" x="125" y="-237.4" font-family="Helvetica,sans-Serif" font-size="11.00" fill="#000000">int8[19]</text>
<polygon fill="#ffffff" stroke="transparent" points="10,-207.7 10,-229.7 122,-229.7 122,-207.7 10,-207.7"/>
<polygon fill="none" stroke="#000000" points="10,-207.7 10,-229.7 122,-229.7 122,-207.7 10,-207.7"/>
<text text-anchor="start" x="30" y="-214.8" font-family="Helvetica,sans-Serif" font-size="11.00" fill="#000000">c_pid</text>
<polygon fill="none" stroke="#000000" points="122,-207.7 122,-229.7 206,-229.7 206,-207.7 122,-207.7"/>
<text text-anchor="start" x="125" y="-215.4" font-family="Helvetica,sans-Serif" font-size="11.00" fill="#000000">varchar[255]</text>
<polygon fill="none" stroke="#000000" points="10,-185.7 10,-207.7 122,-207.7 122,-185.7 10,-185.7"/>
<text text-anchor="start" x="30" y="-192.8" font-family="Helvetica,sans-Serif" font-size="11.00" fill="#000000">c_description</text>
<polygon fill="none" stroke="#000000" points="122,-185.7 122,-207.7 206,-207.7 206,-185.7 122,-185.7"/>
<text text-anchor="start" x="125" y="-193.4" font-family="Helvetica,sans-Serif" font-size="11.00" fill="#000000">varchar[1024]</text>
<polygon fill="#ffffff" stroke="transparent" points="10,-163.7 10,-185.7 122,-185.7 122,-163.7 10,-163.7"/>
<polygon fill="none" stroke="#000000" points="10,-163.7 10,-185.7 122,-185.7 122,-163.7 10,-163.7"/>
<text text-anchor="start" x="30" y="-170.8" font-family="Helvetica,sans-Serif" font-size="11.00" fill="#000000">c_name</text>
<polygon fill="none" stroke="#000000" points="122,-163.7 122,-185.7 206,-185.7 206,-163.7 122,-163.7"/>
<text text-anchor="start" x="125" y="-171.4" font-family="Helvetica,sans-Serif" font-size="11.00" fill="#000000">varchar[255]</text>
<polygon fill="none" stroke="#000000" points="10,-141.7 10,-163.7 122,-163.7 122,-141.7 10,-141.7"/>
<text text-anchor="start" x="30" y="-148.8" font-family="Helvetica,sans-Serif" font-size="11.00" fill="#000000">c_immutable</text>
<polygon fill="none" stroke="#000000" points="122,-141.7 122,-163.7 206,-163.7 206,-141.7 122,-141.7"/>
<text text-anchor="start" x="125" y="-149.4" font-family="Helvetica,sans-Serif" font-size="11.00" fill="#000000">bool[1]</text>
<polygon fill="#ffffff" stroke="transparent" points="10,-122.7 10,-141.7 70,-141.7 70,-122.7 10,-122.7"/>
<polygon fill="none" stroke="#000000" points="10,-122.7 10,-141.7 70,-141.7 70,-122.7 10,-122.7"/>
<text text-anchor="start" x="13" y="-128.8" font-family="Helvetica,sans-Serif" font-size="11.00" fill="#000000">&lt; 0</text>
<polygon fill="#ffffff" stroke="transparent" points="70,-122.7 70,-141.7 122,-141.7 122,-122.7 70,-122.7"/>
<polygon fill="none" stroke="#000000" points="70,-122.7 70,-141.7 122,-141.7 122,-122.7 70,-122.7"/>
<text text-anchor="start" x="112.8862" y="-128.8" font-family="Helvetica,sans-Serif" font-size="11.00" fill="#000000"> &#160;</text>
<polygon fill="#ffffff" stroke="transparent" points="122,-122.7 122,-141.7 206,-141.7 206,-122.7 122,-122.7"/>
<polygon fill="none" stroke="#000000" points="122,-122.7 122,-141.7 206,-141.7 206,-122.7 122,-122.7"/>
<text text-anchor="start" x="187.4053" y="-128.8" font-family="Helvetica,sans-Serif" font-size="11.00" fill="#000000">3 &gt;</text>
<polygon fill="none" stroke="#000000" stroke-width="2" points="9,-121.7 9,-407.7 207,-407.7 207,-121.7 9,-121.7"/>
</a>
</g>
</g>
<!-- cor_uaa_role_role&#45;&gt;cor_uaa_role -->
<g id="edge1" class="edge">
<title>cor_uaa_role_role:w&#45;&gt;cor_uaa_role:e</title>
<path fill="none" stroke="#000000" d="M245.1187,-341.2295C231.8431,-344.252 224.5857,-350.7 206,-350.7"/>
<polygon fill="#000000" stroke="#000000" points="251.5449,-340.5461 259.8807,-343.2798 255.5224,-340.1231 259.5,-339.7 259.5,-339.7 259.5,-339.7 255.5224,-340.1231 259.1193,-336.1202 251.5449,-340.5461 251.5449,-340.5461"/>
<ellipse fill="none" stroke="#000000" cx="248.3628" cy="-340.8845" rx="3.2" ry="3.2"/>
</g>
<!-- cor_uaa_role_role&#45;&gt;cor_uaa_role -->
<g id="edge2" class="edge">
<title>cor_uaa_role_role:w&#45;&gt;cor_uaa_role:e</title>
<path fill="none" stroke="#000000" d="M245.1187,-360.1705C231.8431,-357.148 224.5857,-350.7 206,-350.7"/>
<polygon fill="#000000" stroke="#000000" points="251.5449,-360.8539 259.1193,-365.2798 255.5224,-361.2769 259.5,-361.7 259.5,-361.7 259.5,-361.7 255.5224,-361.2769 259.8807,-358.1202 251.5449,-360.8539 251.5449,-360.8539"/>
<ellipse fill="none" stroke="#000000" cx="248.3628" cy="-360.5155" rx="3.2" ry="3.2"/>
</g>
<!-- cor_uaa_role_user -->
<g id="node3" class="node">
<title>cor_uaa_role_user</title>
<g id="a_node3"><a xlink:href="../../tables/cor_uaa_role_user.html" xlink:title="cor_uaa_role_user" target="_top">
<polygon fill="#ffffff" stroke="transparent" points="257,-118.7 257,-204.7 416,-204.7 416,-118.7 257,-118.7"/>
<polygon fill="#f5f5f5" stroke="transparent" points="257.5,-181.7 257.5,-204.7 416.5,-204.7 416.5,-181.7 257.5,-181.7"/>
<polygon fill="none" stroke="#000000" points="257.5,-181.7 257.5,-204.7 416.5,-204.7 416.5,-181.7 257.5,-181.7"/>
<text text-anchor="start" x="262.5" y="-190.3" font-family="Helvetica,sans-Serif" font-weight="bold" font-size="11.00" fill="#000000">cor_uaa_role_user</text>
<text text-anchor="start" x="382.0219" y="-189.8" font-family="Helvetica,sans-Serif" font-size="11.00" fill="#000000">[table]</text>
<polygon fill="none" stroke="#000000" points="257.5,-159.7 257.5,-181.7 416.5,-181.7 416.5,-159.7 257.5,-159.7"/>
<image xlink:href="../../images/primaryKeys.png" width="11px" height="12px" preserveAspectRatio="xMinYMin meet" x="262.5" y="-176.7"/>
<text text-anchor="start" x="286.5" y="-166.8" font-family="Helvetica,sans-Serif" font-size="11.00" fill="#000000">c_role_id</text>
<polygon fill="none" stroke="#000000" points="257.5,-137.7 257.5,-159.7 416.5,-159.7 416.5,-137.7 257.5,-137.7"/>
<image xlink:href="../../images/primaryKeys.png" width="11px" height="12px" preserveAspectRatio="xMinYMin meet" x="262.5" y="-154.7"/>
<text text-anchor="start" x="286.5" y="-144.8" font-family="Helvetica,sans-Serif" font-size="11.00" fill="#000000">c_user_id</text>
<polygon fill="#ffffff" stroke="transparent" points="257.5,-118.7 257.5,-137.7 335.5,-137.7 335.5,-118.7 257.5,-118.7"/>
<polygon fill="none" stroke="#000000" points="257.5,-118.7 257.5,-137.7 335.5,-137.7 335.5,-118.7 257.5,-118.7"/>
<text text-anchor="start" x="260.5" y="-124.8" font-family="Helvetica,sans-Serif" font-size="11.00" fill="#000000">&lt; 2</text>
<polygon fill="#ffffff" stroke="transparent" points="335.5,-118.7 335.5,-137.7 375.5,-137.7 375.5,-118.7 335.5,-118.7"/>
<polygon fill="none" stroke="#000000" points="335.5,-118.7 335.5,-137.7 375.5,-137.7 375.5,-118.7 335.5,-118.7"/>
<text text-anchor="start" x="366.3862" y="-124.8" font-family="Helvetica,sans-Serif" font-size="11.00" fill="#000000"> &#160;</text>
<polygon fill="#ffffff" stroke="transparent" points="375.5,-118.7 375.5,-137.7 416.5,-137.7 416.5,-118.7 375.5,-118.7"/>
<polygon fill="none" stroke="#000000" points="375.5,-118.7 375.5,-137.7 416.5,-137.7 416.5,-118.7 375.5,-118.7"/>
<text text-anchor="start" x="407.3862" y="-124.8" font-family="Helvetica,sans-Serif" font-size="11.00" fill="#000000"> &#160;</text>
</a>
</g>
</g>
<!-- cor_uaa_role_user&#45;&gt;cor_uaa_role -->
<g id="edge3" class="edge">
<title>cor_uaa_role_user:w&#45;&gt;cor_uaa_role:e</title>
<path fill="none" stroke="#000000" d="M243.0865,-173.1084C189.0759,-194.4682 283.5218,-350.7 206,-350.7"/>
<polygon fill="#000000" stroke="#000000" points="249.6094,-172.0185 258.0933,-174.2508 253.5547,-171.3593 257.5,-170.7 257.5,-170.7 257.5,-170.7 253.5547,-171.3593 256.9067,-167.1492 249.6094,-172.0185 249.6094,-172.0185"/>
<ellipse fill="none" stroke="#000000" cx="246.4532" cy="-172.5459" rx="3.2" ry="3.2"/>
</g>
<!-- cor_uaa_user -->
<g id="node4" class="node">
<title>cor_uaa_user</title>
<g id="a_node4"><a xlink:href="../../tables/cor_uaa_user.html" xlink:title="cor_uaa_user" target="_top">
<polygon fill="#ffffff" stroke="transparent" points="45,-38.2 45,-99.2 171,-99.2 171,-38.2 45,-38.2"/>
<polygon fill="#f5f5f5" stroke="transparent" points="45,-75.7 45,-98.7 171,-98.7 171,-75.7 45,-75.7"/>
<polygon fill="none" stroke="#000000" points="45,-75.7 45,-98.7 171,-98.7 171,-75.7 45,-75.7"/>
<text text-anchor="start" x="50" y="-84.3" font-family="Helvetica,sans-Serif" font-weight="bold" font-size="11.00" fill="#000000">cor_uaa_user</text>
<text text-anchor="start" x="136.5219" y="-83.8" font-family="Helvetica,sans-Serif" font-size="11.00" fill="#000000">[table]</text>
<polygon fill="none" stroke="#000000" points="45,-56.7 45,-75.7 171,-75.7 171,-56.7 45,-56.7"/>
<text text-anchor="start" x="48" y="-62.8" font-family="Helvetica,sans-Serif" font-size="11.00" fill="#000000">...</text>
<polygon fill="#ffffff" stroke="transparent" points="45,-37.7 45,-56.7 97,-56.7 97,-37.7 45,-37.7"/>
<polygon fill="none" stroke="#000000" points="45,-37.7 45,-56.7 97,-56.7 97,-37.7 45,-37.7"/>
<text text-anchor="start" x="48" y="-43.8" font-family="Helvetica,sans-Serif" font-size="11.00" fill="#000000"> &#160;</text>
<polygon fill="#ffffff" stroke="transparent" points="97,-37.7 97,-56.7 129,-56.7 129,-37.7 97,-37.7"/>
<polygon fill="none" stroke="#000000" points="97,-37.7 97,-56.7 129,-56.7 129,-37.7 97,-37.7"/>
<text text-anchor="start" x="119.8862" y="-43.8" font-family="Helvetica,sans-Serif" font-size="11.00" fill="#000000"> &#160;</text>
<polygon fill="#ffffff" stroke="transparent" points="129,-37.7 129,-56.7 171,-56.7 171,-37.7 129,-37.7"/>
<polygon fill="none" stroke="#000000" points="129,-37.7 129,-56.7 171,-56.7 171,-37.7 129,-37.7"/>
<text text-anchor="start" x="152.4053" y="-43.8" font-family="Helvetica,sans-Serif" font-size="11.00" fill="#000000">3 &gt;</text>
</a>
</g>
</g>
<!-- cor_uaa_role_user&#45;&gt;cor_uaa_user -->
<g id="edge4" class="edge">
<title>cor_uaa_role_user:w&#45;&gt;cor_uaa_user:e</title>
<path fill="none" stroke="#000000" d="M244.248,-142.9951C220.388,-124.243 193.3735,-65.7 171,-65.7"/>
<polygon fill="#000000" stroke="#000000" points="250.152,-145.5367 256.0765,-152.0066 253.826,-147.1183 257.5,-148.7 257.5,-148.7 257.5,-148.7 253.826,-147.1183 258.9235,-145.3934 250.152,-145.5367 250.152,-145.5367"/>
<ellipse fill="none" stroke="#000000" cx="247.2128" cy="-144.2713" rx="3.2" ry="3.2"/>
</g>
</g>
</svg>
