<?xml version="1.0" encoding="UTF-8" standalone="no"?>
<!DOCTYPE svg PUBLIC "-//W3C//DTD SVG 1.1//EN"
 "http://www.w3.org/Graphics/SVG/1.1/DTD/svg11.dtd">
<!-- Generated by graphviz version 2.40.1 (20161225.0304)
 -->
<!-- Title: oneDegreeRelationshipsDiagram Pages: 1 -->
<svg width="445pt" height="325pt"
 viewBox="0.00 0.00 445.00 325.20" xmlns="http://www.w3.org/2000/svg" xmlns:xlink="http://www.w3.org/1999/xlink">
<g id="graph0" class="graph" transform="scale(1 1) rotate(0) translate(4 321.2)">
<title>oneDegreeRelationshipsDiagram</title>
<polygon fill="#ffffff" stroke="transparent" points="-4,4 -4,-321.2 441,-321.2 441,4 -4,4"/>
<text text-anchor="middle" x="72.4936" y="-7.3" font-family="Helvetica,sans-Serif" font-size="11.00" fill="#000000">Generated by SchemaSpy</text>
<!-- cor_uaa_role_user -->
<g id="node1" class="node">
<title>cor_uaa_role_user</title>
<g id="a_node1"><a xlink:href="../../tables/cor_uaa_role_user.html" xlink:title="cor_uaa_role_user" target="_top">
<polygon fill="#ffffff" stroke="transparent" points="242,-161.7 242,-251.7 429,-251.7 429,-161.7 242,-161.7"/>
<polygon fill="#f5f5f5" stroke="transparent" points="244.5,-226.7 244.5,-249.7 427.5,-249.7 427.5,-226.7 244.5,-226.7"/>
<polygon fill="none" stroke="#000000" points="244.5,-226.7 244.5,-249.7 427.5,-249.7 427.5,-226.7 244.5,-226.7"/>
<text text-anchor="start" x="249.5" y="-235.3" font-family="Helvetica,sans-Serif" font-weight="bold" font-size="11.00" fill="#000000">cor_uaa_role_user</text>
<text text-anchor="start" x="392.5437" y="-234.8" font-family="Helvetica,sans-Serif" font-size="11.00" fill="#000000">[table]</text>
<polygon fill="none" stroke="#000000" points="244.5,-204.7 244.5,-226.7 385.5,-226.7 385.5,-204.7 244.5,-204.7"/>
<image xlink:href="../../images/primaryKeys.png" width="11px" height="12px" preserveAspectRatio="xMinYMin meet" x="249.5" y="-221.7"/>
<text text-anchor="start" x="264.5" y="-211.8" font-family="Helvetica,sans-Serif" font-size="11.00" fill="#000000">c_role_id</text>
<polygon fill="none" stroke="#000000" points="385.5,-204.7 385.5,-226.7 427.5,-226.7 427.5,-204.7 385.5,-204.7"/>
<text text-anchor="start" x="388.4644" y="-212.4" font-family="Helvetica,sans-Serif" font-size="11.00" fill="#000000">int8[19]</text>
<polygon fill="none" stroke="#000000" points="244.5,-182.7 244.5,-204.7 385.5,-204.7 385.5,-182.7 244.5,-182.7"/>
<image xlink:href="../../images/primaryKeys.png" width="11px" height="12px" preserveAspectRatio="xMinYMin meet" x="249.5" y="-199.7"/>
<text text-anchor="start" x="264.5" y="-189.8" font-family="Helvetica,sans-Serif" font-size="11.00" fill="#000000">c_user_id</text>
<polygon fill="none" stroke="#000000" points="385.5,-182.7 385.5,-204.7 427.5,-204.7 427.5,-182.7 385.5,-182.7"/>
<text text-anchor="start" x="388.4644" y="-190.4" font-family="Helvetica,sans-Serif" font-size="11.00" fill="#000000">int8[19]</text>
<polygon fill="#ffffff" stroke="transparent" points="244.5,-163.7 244.5,-182.7 319.5,-182.7 319.5,-163.7 244.5,-163.7"/>
<polygon fill="none" stroke="#000000" points="244.5,-163.7 244.5,-182.7 319.5,-182.7 319.5,-163.7 244.5,-163.7"/>
<text text-anchor="start" x="247.5" y="-169.8" font-family="Helvetica,sans-Serif" font-size="11.00" fill="#000000">&lt; 2</text>
<polygon fill="#ffffff" stroke="transparent" points="319.5,-163.7 319.5,-182.7 385.5,-182.7 385.5,-163.7 319.5,-163.7"/>
<polygon fill="none" stroke="#000000" points="319.5,-163.7 319.5,-182.7 385.5,-182.7 385.5,-163.7 319.5,-163.7"/>
<text text-anchor="start" x="376.3862" y="-169.8" font-family="Helvetica,sans-Serif" font-size="11.00" fill="#000000"> &#160;</text>
<polygon fill="#ffffff" stroke="transparent" points="385.5,-163.7 385.5,-182.7 427.5,-182.7 427.5,-163.7 385.5,-163.7"/>
<polygon fill="none" stroke="#000000" points="385.5,-163.7 385.5,-182.7 427.5,-182.7 427.5,-163.7 385.5,-163.7"/>
<text text-anchor="start" x="408.9053" y="-169.8" font-family="Helvetica,sans-Serif" font-size="11.00" fill="#000000">0 &gt;</text>
<polygon fill="none" stroke="#000000" stroke-width="2" points="243,-162.7 243,-250.7 428,-250.7 428,-162.7 243,-162.7"/>
</a>
</g>
</g>
<!-- cor_uaa_role -->
<g id="node2" class="node">
<title>cor_uaa_role</title>
<g id="a_node2"><a xlink:href="../../tables/cor_uaa_role.html" xlink:title="cor_uaa_role" target="_top">
<polygon fill="#ffffff" stroke="transparent" points="39,-186.2 39,-313.2 162,-313.2 162,-186.2 39,-186.2"/>
<polygon fill="#f5f5f5" stroke="transparent" points="39.5,-289.7 39.5,-312.7 162.5,-312.7 162.5,-289.7 39.5,-289.7"/>
<polygon fill="none" stroke="#000000" points="39.5,-289.7 39.5,-312.7 162.5,-312.7 162.5,-289.7 39.5,-289.7"/>
<text text-anchor="start" x="44.5" y="-298.3" font-family="Helvetica,sans-Serif" font-weight="bold" font-size="11.00" fill="#000000">cor_uaa_role</text>
<text text-anchor="start" x="128.0219" y="-297.8" font-family="Helvetica,sans-Serif" font-size="11.00" fill="#000000">[table]</text>
<polygon fill="none" stroke="#000000" points="39.5,-267.7 39.5,-289.7 162.5,-289.7 162.5,-267.7 39.5,-267.7"/>
<image xlink:href="../../images/primaryKeys.png" width="11px" height="12px" preserveAspectRatio="xMinYMin meet" x="44.5" y="-284.7"/>
<text text-anchor="start" x="65.5" y="-274.8" font-family="Helvetica,sans-Serif" font-size="11.00" fill="#000000">c_pk</text>
<polygon fill="#ffffff" stroke="transparent" points="39.5,-245.7 39.5,-267.7 162.5,-267.7 162.5,-245.7 39.5,-245.7"/>
<polygon fill="none" stroke="#000000" points="39.5,-245.7 39.5,-267.7 162.5,-267.7 162.5,-245.7 39.5,-245.7"/>
<text text-anchor="start" x="65.5" y="-252.8" font-family="Helvetica,sans-Serif" font-size="11.00" fill="#000000">c_pid</text>
<polygon fill="#ffffff" stroke="transparent" points="39.5,-223.7 39.5,-245.7 162.5,-245.7 162.5,-223.7 39.5,-223.7"/>
<polygon fill="none" stroke="#000000" points="39.5,-223.7 39.5,-245.7 162.5,-245.7 162.5,-223.7 39.5,-223.7"/>
<text text-anchor="start" x="65.5" y="-230.8" font-family="Helvetica,sans-Serif" font-size="11.00" fill="#000000">c_name</text>
<polygon fill="none" stroke="#000000" points="39.5,-204.7 39.5,-223.7 162.5,-223.7 162.5,-204.7 39.5,-204.7"/>
<text text-anchor="start" x="42.5" y="-210.8" font-family="Helvetica,sans-Serif" font-size="11.00" fill="#000000">...</text>
<polygon fill="#ffffff" stroke="transparent" points="39.5,-185.7 39.5,-204.7 90.5,-204.7 90.5,-185.7 39.5,-185.7"/>
<polygon fill="none" stroke="#000000" points="39.5,-185.7 39.5,-204.7 90.5,-204.7 90.5,-185.7 39.5,-185.7"/>
<text text-anchor="start" x="42.5" y="-191.8" font-family="Helvetica,sans-Serif" font-size="11.00" fill="#000000"> &#160;</text>
<polygon fill="#ffffff" stroke="transparent" points="90.5,-185.7 90.5,-204.7 121.5,-204.7 121.5,-185.7 90.5,-185.7"/>
<polygon fill="none" stroke="#000000" points="90.5,-185.7 90.5,-204.7 121.5,-204.7 121.5,-185.7 90.5,-185.7"/>
<text text-anchor="start" x="112.3862" y="-191.8" font-family="Helvetica,sans-Serif" font-size="11.00" fill="#000000"> &#160;</text>
<polygon fill="#ffffff" stroke="transparent" points="121.5,-185.7 121.5,-204.7 162.5,-204.7 162.5,-185.7 121.5,-185.7"/>
<polygon fill="none" stroke="#000000" points="121.5,-185.7 121.5,-204.7 162.5,-204.7 162.5,-185.7 121.5,-185.7"/>
<text text-anchor="start" x="143.9053" y="-191.8" font-family="Helvetica,sans-Serif" font-size="11.00" fill="#000000">3 &gt;</text>
</a>
</g>
</g>
<!-- cor_uaa_role_user&#45;&gt;cor_uaa_role -->
<g id="edge1" class="edge">
<title>cor_uaa_role_user:w&#45;&gt;cor_uaa_role:e</title>
<path fill="none" stroke="#000000" d="M230.0637,-218.2477C200.1238,-230.034 202.8933,-278.7 162.5,-278.7"/>
<polygon fill="#000000" stroke="#000000" points="236.6217,-217.0904 245.1257,-219.2452 240.5609,-216.3952 244.5,-215.7 244.5,-215.7 244.5,-215.7 240.5609,-216.3952 243.8743,-212.1548 236.6217,-217.0904 236.6217,-217.0904"/>
<ellipse fill="none" stroke="#000000" cx="233.4704" cy="-217.6465" rx="3.2" ry="3.2"/>
</g>
<!-- cor_uaa_user -->
<g id="node3" class="node">
<title>cor_uaa_user</title>
<g id="a_node3"><a xlink:href="../../tables/cor_uaa_user.html" xlink:title="cor_uaa_user" target="_top">
<polygon fill="#ffffff" stroke="transparent" points="8,-38.2 8,-165.2 193,-165.2 193,-38.2 8,-38.2"/>
<polygon fill="#f5f5f5" stroke="transparent" points="8.5,-141.7 8.5,-164.7 193.5,-164.7 193.5,-141.7 8.5,-141.7"/>
<polygon fill="none" stroke="#000000" points="8.5,-141.7 8.5,-164.7 193.5,-164.7 193.5,-141.7 8.5,-141.7"/>
<text text-anchor="start" x="13.5" y="-150.3" font-family="Helvetica,sans-Serif" font-weight="bold" font-size="11.00" fill="#000000">cor_uaa_user</text>
<text text-anchor="start" x="158.5437" y="-149.8" font-family="Helvetica,sans-Serif" font-size="11.00" fill="#000000">[table]</text>
<polygon fill="none" stroke="#000000" points="8.5,-119.7 8.5,-141.7 193.5,-141.7 193.5,-119.7 8.5,-119.7"/>
<image xlink:href="../../images/primaryKeys.png" width="11px" height="12px" preserveAspectRatio="xMinYMin meet" x="13.5" y="-136.7"/>
<text text-anchor="start" x="28.5" y="-126.8" font-family="Helvetica,sans-Serif" font-size="11.00" fill="#000000">c_pk</text>
<polygon fill="#ffffff" stroke="transparent" points="8.5,-97.7 8.5,-119.7 193.5,-119.7 193.5,-97.7 8.5,-97.7"/>
<polygon fill="none" stroke="#000000" points="8.5,-97.7 8.5,-119.7 193.5,-119.7 193.5,-97.7 8.5,-97.7"/>
<text text-anchor="start" x="28.5" y="-104.8" font-family="Helvetica,sans-Serif" font-size="11.00" fill="#000000">c_pid</text>
<polygon fill="#ffffff" stroke="transparent" points="8.5,-75.7 8.5,-97.7 193.5,-97.7 193.5,-75.7 8.5,-75.7"/>
<polygon fill="none" stroke="#000000" points="8.5,-75.7 8.5,-97.7 193.5,-97.7 193.5,-75.7 8.5,-75.7"/>
<text text-anchor="start" x="28.5" y="-82.8" font-family="Helvetica,sans-Serif" font-size="11.00" fill="#000000">c_username</text>
<polygon fill="none" stroke="#000000" points="8.5,-56.7 8.5,-75.7 193.5,-75.7 193.5,-56.7 8.5,-56.7"/>
<text text-anchor="start" x="11.5" y="-62.8" font-family="Helvetica,sans-Serif" font-size="11.00" fill="#000000">...</text>
<polygon fill="#ffffff" stroke="transparent" points="8.5,-37.7 8.5,-56.7 90.5,-56.7 90.5,-37.7 8.5,-37.7"/>
<polygon fill="none" stroke="#000000" points="8.5,-37.7 8.5,-56.7 90.5,-56.7 90.5,-37.7 8.5,-37.7"/>
<text text-anchor="start" x="11.5" y="-43.8" font-family="Helvetica,sans-Serif" font-size="11.00" fill="#000000"> &#160;</text>
<polygon fill="#ffffff" stroke="transparent" points="90.5,-37.7 90.5,-56.7 137.5,-56.7 137.5,-37.7 90.5,-37.7"/>
<polygon fill="none" stroke="#000000" points="90.5,-37.7 90.5,-56.7 137.5,-56.7 137.5,-37.7 90.5,-37.7"/>
<text text-anchor="start" x="128.3862" y="-43.8" font-family="Helvetica,sans-Serif" font-size="11.00" fill="#000000"> &#160;</text>
<polygon fill="#ffffff" stroke="transparent" points="137.5,-37.7 137.5,-56.7 193.5,-56.7 193.5,-37.7 137.5,-37.7"/>
<polygon fill="none" stroke="#000000" points="137.5,-37.7 137.5,-56.7 193.5,-56.7 193.5,-37.7 137.5,-37.7"/>
<text text-anchor="start" x="174.9053" y="-43.8" font-family="Helvetica,sans-Serif" font-size="11.00" fill="#000000">3 &gt;</text>
</a>
</g>
</g>
<!-- cor_uaa_role_user&#45;&gt;cor_uaa_user -->
<g id="edge2" class="edge">
<title>cor_uaa_role_user:w&#45;&gt;cor_uaa_user:e</title>
<path fill="none" stroke="#000000" d="M230.4033,-188.7565C214.025,-173.9048 223.3329,-130.7 193.5,-130.7"/>
<polygon fill="#000000" stroke="#000000" points="236.9507,-191.0526 243.3087,-197.0972 240.7254,-192.3763 244.5,-193.7 244.5,-193.7 244.5,-193.7 240.7254,-192.3763 245.6913,-190.3028 236.9507,-191.0526 236.9507,-191.0526"/>
<ellipse fill="none" stroke="#000000" cx="233.931" cy="-189.9936" rx="3.2" ry="3.2"/>
</g>
</g>
</svg>
