<?xml version="1.0" encoding="UTF-8" standalone="no"?>
<!DOCTYPE svg PUBLIC "-//W3C//DTD SVG 1.1//EN"
 "http://www.w3.org/Graphics/SVG/1.1/DTD/svg11.dtd">
<!-- Generated by graphviz version 2.40.1 (20161225.0304)
 -->
<!-- Title: twoDegreesRelationshipsDiagram Pages: 1 -->
<svg width="461pt" height="481pt"
 viewBox="0.00 0.00 461.00 480.70" xmlns="http://www.w3.org/2000/svg" xmlns:xlink="http://www.w3.org/1999/xlink">
<g id="graph0" class="graph" transform="scale(1 1) rotate(0) translate(4 476.7)">
<title>twoDegreesRelationshipsDiagram</title>
<polygon fill="#ffffff" stroke="transparent" points="-4,4 -4,-476.7 457,-476.7 457,4 -4,4"/>
<text text-anchor="middle" x="72.4936" y="-7.3" font-family="Helvetica,sans-Serif" font-size="11.00" fill="#000000">Generated by SchemaSpy</text>
<!-- cor_uaa_email -->
<g id="node1" class="node">
<title>cor_uaa_email</title>
<g id="a_node1"><a xlink:href="../../tables/cor_uaa_email.html" xlink:title="cor_uaa_email" target="_top">
<polygon fill="#ffffff" stroke="transparent" points="242,-202.7 242,-468.7 445,-468.7 445,-202.7 242,-202.7"/>
<polygon fill="#f5f5f5" stroke="transparent" points="244.5,-443.7 244.5,-466.7 443.5,-466.7 443.5,-443.7 244.5,-443.7"/>
<polygon fill="none" stroke="#000000" points="244.5,-443.7 244.5,-466.7 443.5,-466.7 443.5,-443.7 244.5,-443.7"/>
<text text-anchor="start" x="249.5" y="-452.3" font-family="Helvetica,sans-Serif" font-weight="bold" font-size="11.00" fill="#000000">cor_uaa_email</text>
<text text-anchor="start" x="408.5437" y="-451.8" font-family="Helvetica,sans-Serif" font-size="11.00" fill="#000000">[table]</text>
<polygon fill="none" stroke="#000000" points="244.5,-421.7 244.5,-443.7 359.5,-443.7 359.5,-421.7 244.5,-421.7"/>
<image xlink:href="../../images/primaryKeys.png" width="11px" height="12px" preserveAspectRatio="xMinYMin meet" x="249.5" y="-438.7"/>
<text text-anchor="start" x="264.5" y="-428.8" font-family="Helvetica,sans-Serif" font-size="11.00" fill="#000000">c_pk</text>
<polygon fill="none" stroke="#000000" points="359.5,-421.7 359.5,-443.7 443.5,-443.7 443.5,-421.7 359.5,-421.7"/>
<text text-anchor="start" x="362.5" y="-429.4" font-family="Helvetica,sans-Serif" font-size="11.00" fill="#000000">int8[19]</text>
<polygon fill="none" stroke="#000000" points="244.5,-399.7 244.5,-421.7 359.5,-421.7 359.5,-399.7 244.5,-399.7"/>
<text text-anchor="start" x="264.5" y="-406.8" font-family="Helvetica,sans-Serif" font-size="11.00" fill="#000000">c_created</text>
<polygon fill="none" stroke="#000000" points="359.5,-399.7 359.5,-421.7 443.5,-421.7 443.5,-399.7 359.5,-399.7"/>
<text text-anchor="start" x="362.3807" y="-407.4" font-family="Helvetica,sans-Serif" font-size="11.00" fill="#000000">timestamp[29,6]</text>
<polygon fill="none" stroke="#000000" points="244.5,-377.7 244.5,-399.7 359.5,-399.7 359.5,-377.7 244.5,-377.7"/>
<text text-anchor="start" x="264.5" y="-384.8" font-family="Helvetica,sans-Serif" font-size="11.00" fill="#000000">c_created_by</text>
<polygon fill="none" stroke="#000000" points="359.5,-377.7 359.5,-399.7 443.5,-399.7 443.5,-377.7 359.5,-377.7"/>
<text text-anchor="start" x="362.5" y="-385.4" font-family="Helvetica,sans-Serif" font-size="11.00" fill="#000000">varchar[255]</text>
<polygon fill="none" stroke="#000000" points="244.5,-355.7 244.5,-377.7 359.5,-377.7 359.5,-355.7 244.5,-355.7"/>
<text text-anchor="start" x="264.5" y="-362.8" font-family="Helvetica,sans-Serif" font-size="11.00" fill="#000000">c_updated_by</text>
<polygon fill="none" stroke="#000000" points="359.5,-355.7 359.5,-377.7 443.5,-377.7 443.5,-355.7 359.5,-355.7"/>
<text text-anchor="start" x="362.5" y="-363.4" font-family="Helvetica,sans-Serif" font-size="11.00" fill="#000000">varchar[255]</text>
<polygon fill="none" stroke="#000000" points="244.5,-333.7 244.5,-355.7 359.5,-355.7 359.5,-333.7 244.5,-333.7"/>
<text text-anchor="start" x="264.5" y="-340.8" font-family="Helvetica,sans-Serif" font-size="11.00" fill="#000000">c_updated</text>
<polygon fill="none" stroke="#000000" points="359.5,-333.7 359.5,-355.7 443.5,-355.7 443.5,-333.7 359.5,-333.7"/>
<text text-anchor="start" x="362.3807" y="-341.4" font-family="Helvetica,sans-Serif" font-size="11.00" fill="#000000">timestamp[29,6]</text>
<polygon fill="none" stroke="#000000" points="244.5,-311.7 244.5,-333.7 359.5,-333.7 359.5,-311.7 244.5,-311.7"/>
<text text-anchor="start" x="264.5" y="-318.8" font-family="Helvetica,sans-Serif" font-size="11.00" fill="#000000">c_ol</text>
<polygon fill="none" stroke="#000000" points="359.5,-311.7 359.5,-333.7 443.5,-333.7 443.5,-311.7 359.5,-311.7"/>
<text text-anchor="start" x="362.5" y="-319.4" font-family="Helvetica,sans-Serif" font-size="11.00" fill="#000000">int8[19]</text>
<polygon fill="#ffffff" stroke="transparent" points="244.5,-289.7 244.5,-311.7 359.5,-311.7 359.5,-289.7 244.5,-289.7"/>
<polygon fill="none" stroke="#000000" points="244.5,-289.7 244.5,-311.7 359.5,-311.7 359.5,-289.7 244.5,-289.7"/>
<text text-anchor="start" x="264.5" y="-296.8" font-family="Helvetica,sans-Serif" font-size="11.00" fill="#000000">c_address</text>
<polygon fill="none" stroke="#000000" points="359.5,-289.7 359.5,-311.7 443.5,-311.7 443.5,-289.7 359.5,-289.7"/>
<text text-anchor="start" x="362.5" y="-297.4" font-family="Helvetica,sans-Serif" font-size="11.00" fill="#000000">varchar[255]</text>
<polygon fill="none" stroke="#000000" points="244.5,-267.7 244.5,-289.7 359.5,-289.7 359.5,-267.7 244.5,-267.7"/>
<text text-anchor="start" x="264.5" y="-274.8" font-family="Helvetica,sans-Serif" font-size="11.00" fill="#000000">c_full_name</text>
<polygon fill="none" stroke="#000000" points="359.5,-267.7 359.5,-289.7 443.5,-289.7 443.5,-267.7 359.5,-267.7"/>
<text text-anchor="start" x="362.5" y="-275.4" font-family="Helvetica,sans-Serif" font-size="11.00" fill="#000000">varchar[255]</text>
<polygon fill="none" stroke="#000000" points="244.5,-245.7 244.5,-267.7 359.5,-267.7 359.5,-245.7 244.5,-245.7"/>
<text text-anchor="start" x="264.5" y="-252.8" font-family="Helvetica,sans-Serif" font-size="11.00" fill="#000000">c_primary</text>
<polygon fill="none" stroke="#000000" points="359.5,-245.7 359.5,-267.7 443.5,-267.7 443.5,-245.7 359.5,-245.7"/>
<text text-anchor="start" x="362.5" y="-253.4" font-family="Helvetica,sans-Serif" font-size="11.00" fill="#000000">bool[1]</text>
<polygon fill="#ffffff" stroke="transparent" points="244.5,-223.7 244.5,-245.7 359.5,-245.7 359.5,-223.7 244.5,-223.7"/>
<polygon fill="none" stroke="#000000" points="244.5,-223.7 244.5,-245.7 359.5,-245.7 359.5,-223.7 244.5,-223.7"/>
<image xlink:href="../../images/foreignKeys.png" width="11px" height="12px" preserveAspectRatio="xMinYMin meet" x="249.5" y="-240.7"/>
<text text-anchor="start" x="264.5" y="-230.8" font-family="Helvetica,sans-Serif" font-size="11.00" fill="#000000">c_user_pk</text>
<polygon fill="none" stroke="#000000" points="359.5,-223.7 359.5,-245.7 443.5,-245.7 443.5,-223.7 359.5,-223.7"/>
<text text-anchor="start" x="362.5" y="-231.4" font-family="Helvetica,sans-Serif" font-size="11.00" fill="#000000">int8[19]</text>
<polygon fill="#ffffff" stroke="transparent" points="244.5,-204.7 244.5,-223.7 306.5,-223.7 306.5,-204.7 244.5,-204.7"/>
<polygon fill="none" stroke="#000000" points="244.5,-204.7 244.5,-223.7 306.5,-223.7 306.5,-204.7 244.5,-204.7"/>
<text text-anchor="start" x="247.5" y="-210.8" font-family="Helvetica,sans-Serif" font-size="11.00" fill="#000000">&lt; 1</text>
<polygon fill="#ffffff" stroke="transparent" points="306.5,-204.7 306.5,-223.7 359.5,-223.7 359.5,-204.7 306.5,-204.7"/>
<polygon fill="none" stroke="#000000" points="306.5,-204.7 306.5,-223.7 359.5,-223.7 359.5,-204.7 306.5,-204.7"/>
<text text-anchor="start" x="350.3862" y="-210.8" font-family="Helvetica,sans-Serif" font-size="11.00" fill="#000000"> &#160;</text>
<polygon fill="#ffffff" stroke="transparent" points="359.5,-204.7 359.5,-223.7 443.5,-223.7 443.5,-204.7 359.5,-204.7"/>
<polygon fill="none" stroke="#000000" points="359.5,-204.7 359.5,-223.7 443.5,-223.7 443.5,-204.7 359.5,-204.7"/>
<text text-anchor="start" x="424.9053" y="-210.8" font-family="Helvetica,sans-Serif" font-size="11.00" fill="#000000">0 &gt;</text>
<polygon fill="none" stroke="#000000" stroke-width="2" points="243,-203.7 243,-467.7 444,-467.7 444,-203.7 243,-203.7"/>
</a>
</g>
</g>
<!-- cor_uaa_user -->
<g id="node2" class="node">
<title>cor_uaa_user</title>
<g id="a_node2"><a xlink:href="../../tables/cor_uaa_user.html" xlink:title="cor_uaa_user" target="_top">
<polygon fill="#ffffff" stroke="transparent" points="8,-55.2 8,-182.2 193,-182.2 193,-55.2 8,-55.2"/>
<polygon fill="#f5f5f5" stroke="transparent" points="8.5,-158.7 8.5,-181.7 193.5,-181.7 193.5,-158.7 8.5,-158.7"/>
<polygon fill="none" stroke="#000000" points="8.5,-158.7 8.5,-181.7 193.5,-181.7 193.5,-158.7 8.5,-158.7"/>
<text text-anchor="start" x="13.5" y="-167.3" font-family="Helvetica,sans-Serif" font-weight="bold" font-size="11.00" fill="#000000">cor_uaa_user</text>
<text text-anchor="start" x="158.5437" y="-166.8" font-family="Helvetica,sans-Serif" font-size="11.00" fill="#000000">[table]</text>
<polygon fill="none" stroke="#000000" points="8.5,-136.7 8.5,-158.7 193.5,-158.7 193.5,-136.7 8.5,-136.7"/>
<image xlink:href="../../images/primaryKeys.png" width="11px" height="12px" preserveAspectRatio="xMinYMin meet" x="13.5" y="-153.7"/>
<text text-anchor="start" x="28.5" y="-143.8" font-family="Helvetica,sans-Serif" font-size="11.00" fill="#000000">c_pk</text>
<polygon fill="#ffffff" stroke="transparent" points="8.5,-114.7 8.5,-136.7 193.5,-136.7 193.5,-114.7 8.5,-114.7"/>
<polygon fill="none" stroke="#000000" points="8.5,-114.7 8.5,-136.7 193.5,-136.7 193.5,-114.7 8.5,-114.7"/>
<text text-anchor="start" x="28.5" y="-121.8" font-family="Helvetica,sans-Serif" font-size="11.00" fill="#000000">c_pid</text>
<polygon fill="#ffffff" stroke="transparent" points="8.5,-92.7 8.5,-114.7 193.5,-114.7 193.5,-92.7 8.5,-92.7"/>
<polygon fill="none" stroke="#000000" points="8.5,-92.7 8.5,-114.7 193.5,-114.7 193.5,-92.7 8.5,-92.7"/>
<text text-anchor="start" x="28.5" y="-99.8" font-family="Helvetica,sans-Serif" font-size="11.00" fill="#000000">c_username</text>
<polygon fill="none" stroke="#000000" points="8.5,-73.7 8.5,-92.7 193.5,-92.7 193.5,-73.7 8.5,-73.7"/>
<text text-anchor="start" x="11.5" y="-79.8" font-family="Helvetica,sans-Serif" font-size="11.00" fill="#000000">...</text>
<polygon fill="#ffffff" stroke="transparent" points="8.5,-54.7 8.5,-73.7 90.5,-73.7 90.5,-54.7 8.5,-54.7"/>
<polygon fill="none" stroke="#000000" points="8.5,-54.7 8.5,-73.7 90.5,-73.7 90.5,-54.7 8.5,-54.7"/>
<text text-anchor="start" x="11.5" y="-60.8" font-family="Helvetica,sans-Serif" font-size="11.00" fill="#000000"> &#160;</text>
<polygon fill="#ffffff" stroke="transparent" points="90.5,-54.7 90.5,-73.7 137.5,-73.7 137.5,-54.7 90.5,-54.7"/>
<polygon fill="none" stroke="#000000" points="90.5,-54.7 90.5,-73.7 137.5,-73.7 137.5,-54.7 90.5,-54.7"/>
<text text-anchor="start" x="128.3862" y="-60.8" font-family="Helvetica,sans-Serif" font-size="11.00" fill="#000000"> &#160;</text>
<polygon fill="#ffffff" stroke="transparent" points="137.5,-54.7 137.5,-73.7 193.5,-73.7 193.5,-54.7 137.5,-54.7"/>
<polygon fill="none" stroke="#000000" points="137.5,-54.7 137.5,-73.7 193.5,-73.7 193.5,-54.7 137.5,-54.7"/>
<text text-anchor="start" x="174.9053" y="-60.8" font-family="Helvetica,sans-Serif" font-size="11.00" fill="#000000">3 &gt;</text>
</a>
</g>
</g>
<!-- cor_uaa_email&#45;&gt;cor_uaa_user -->
<g id="edge1" class="edge">
<title>cor_uaa_email:w&#45;&gt;cor_uaa_user:e</title>
<path fill="none" stroke="#000000" d="M230.6673,-230.5038C208.4713,-213.1252 232.3679,-147.7 193.5,-147.7"/>
<polygon fill="#000000" stroke="#000000" points="236.8445,-232.3776 243.4549,-238.145 240.6722,-233.5388 244.5,-234.7 244.5,-234.7 244.5,-234.7 240.6722,-233.5388 245.5451,-231.255 236.8445,-232.3776 236.8445,-232.3776"/>
<ellipse fill="none" stroke="#000000" cx="233.7823" cy="-231.4487" rx="3.2" ry="3.2"/>
</g>
<!-- cor_uaa_role_user -->
<g id="node3" class="node">
<title>cor_uaa_role_user</title>
<g id="a_node3"><a xlink:href="../../tables/cor_uaa_role_user.html" xlink:title="cor_uaa_role_user" target="_top">
<polygon fill="#ffffff" stroke="transparent" points="264,-120.2 264,-181.2 423,-181.2 423,-120.2 264,-120.2"/>
<polygon fill="#f5f5f5" stroke="transparent" points="264.5,-157.7 264.5,-180.7 423.5,-180.7 423.5,-157.7 264.5,-157.7"/>
<polygon fill="none" stroke="#000000" points="264.5,-157.7 264.5,-180.7 423.5,-180.7 423.5,-157.7 264.5,-157.7"/>
<text text-anchor="start" x="269.5" y="-166.3" font-family="Helvetica,sans-Serif" font-weight="bold" font-size="11.00" fill="#000000">cor_uaa_role_user</text>
<text text-anchor="start" x="389.0219" y="-165.8" font-family="Helvetica,sans-Serif" font-size="11.00" fill="#000000">[table]</text>
<polygon fill="none" stroke="#000000" points="264.5,-138.7 264.5,-157.7 423.5,-157.7 423.5,-138.7 264.5,-138.7"/>
<text text-anchor="start" x="267.5" y="-144.8" font-family="Helvetica,sans-Serif" font-size="11.00" fill="#000000">...</text>
<polygon fill="#ffffff" stroke="transparent" points="264.5,-119.7 264.5,-138.7 342.5,-138.7 342.5,-119.7 264.5,-119.7"/>
<polygon fill="none" stroke="#000000" points="264.5,-119.7 264.5,-138.7 342.5,-138.7 342.5,-119.7 264.5,-119.7"/>
<text text-anchor="start" x="267.5" y="-125.8" font-family="Helvetica,sans-Serif" font-size="11.00" fill="#000000">&lt; 2</text>
<polygon fill="#ffffff" stroke="transparent" points="342.5,-119.7 342.5,-138.7 382.5,-138.7 382.5,-119.7 342.5,-119.7"/>
<polygon fill="none" stroke="#000000" points="342.5,-119.7 342.5,-138.7 382.5,-138.7 382.5,-119.7 342.5,-119.7"/>
<text text-anchor="start" x="373.3862" y="-125.8" font-family="Helvetica,sans-Serif" font-size="11.00" fill="#000000"> &#160;</text>
<polygon fill="#ffffff" stroke="transparent" points="382.5,-119.7 382.5,-138.7 423.5,-138.7 423.5,-119.7 382.5,-119.7"/>
<polygon fill="none" stroke="#000000" points="382.5,-119.7 382.5,-138.7 423.5,-138.7 423.5,-119.7 382.5,-119.7"/>
<text text-anchor="start" x="414.3862" y="-125.8" font-family="Helvetica,sans-Serif" font-size="11.00" fill="#000000"> &#160;</text>
</a>
</g>
</g>
<!-- cor_uaa_role_user&#45;&gt;cor_uaa_user -->
<g id="edge2" class="edge">
<title>cor_uaa_role_user:w&#45;&gt;cor_uaa_user:e</title>
<path fill="none" stroke="#000000" d="M250.0863,-147.7C229.5335,-147.7 219.6319,-147.7 193.5,-147.7"/>
<polygon fill="#000000" stroke="#000000" points="256.5,-147.7001 264.5,-151.3 260.5,-147.7 264.5,-147.7 264.5,-147.7 264.5,-147.7 260.5,-147.7 264.5,-144.1 256.5,-147.7001 256.5,-147.7001"/>
<ellipse fill="none" stroke="#000000" cx="253.3" cy="-147.7001" rx="3.2" ry="3.2"/>
</g>
<!-- cor_uaa_user_password -->
<g id="node4" class="node">
<title>cor_uaa_user_password</title>
<g id="a_node4"><a xlink:href="../../tables/cor_uaa_user_password.html" xlink:title="cor_uaa_user_password" target="_top">
<polygon fill="#ffffff" stroke="transparent" points="245,-38.2 245,-99.2 442,-99.2 442,-38.2 245,-38.2"/>
<polygon fill="#f5f5f5" stroke="transparent" points="245.5,-75.7 245.5,-98.7 442.5,-98.7 442.5,-75.7 245.5,-75.7"/>
<polygon fill="none" stroke="#000000" points="245.5,-75.7 245.5,-98.7 442.5,-98.7 442.5,-75.7 245.5,-75.7"/>
<text text-anchor="start" x="250.5" y="-84.3" font-family="Helvetica,sans-Serif" font-weight="bold" font-size="11.00" fill="#000000">cor_uaa_user_password</text>
<text text-anchor="start" x="408.0219" y="-83.8" font-family="Helvetica,sans-Serif" font-size="11.00" fill="#000000">[table]</text>
<polygon fill="none" stroke="#000000" points="245.5,-56.7 245.5,-75.7 442.5,-75.7 442.5,-56.7 245.5,-56.7"/>
<text text-anchor="start" x="248.5" y="-62.8" font-family="Helvetica,sans-Serif" font-size="11.00" fill="#000000">...</text>
<polygon fill="#ffffff" stroke="transparent" points="245.5,-37.7 245.5,-56.7 342.5,-56.7 342.5,-37.7 245.5,-37.7"/>
<polygon fill="none" stroke="#000000" points="245.5,-37.7 245.5,-56.7 342.5,-56.7 342.5,-37.7 245.5,-37.7"/>
<text text-anchor="start" x="248.5" y="-43.8" font-family="Helvetica,sans-Serif" font-size="11.00" fill="#000000">&lt; 1</text>
<polygon fill="#ffffff" stroke="transparent" points="342.5,-37.7 342.5,-56.7 392.5,-56.7 392.5,-37.7 342.5,-37.7"/>
<polygon fill="none" stroke="#000000" points="342.5,-37.7 342.5,-56.7 392.5,-56.7 392.5,-37.7 342.5,-37.7"/>
<text text-anchor="start" x="383.3862" y="-43.8" font-family="Helvetica,sans-Serif" font-size="11.00" fill="#000000"> &#160;</text>
<polygon fill="#ffffff" stroke="transparent" points="392.5,-37.7 392.5,-56.7 442.5,-56.7 442.5,-37.7 392.5,-37.7"/>
<polygon fill="none" stroke="#000000" points="392.5,-37.7 392.5,-56.7 442.5,-56.7 442.5,-37.7 392.5,-37.7"/>
<text text-anchor="start" x="433.3862" y="-43.8" font-family="Helvetica,sans-Serif" font-size="11.00" fill="#000000"> &#160;</text>
</a>
</g>
</g>
<!-- cor_uaa_user_password&#45;&gt;cor_uaa_user -->
<g id="edge3" class="edge">
<title>cor_uaa_user_password:w&#45;&gt;cor_uaa_user:e</title>
<path fill="none" stroke="#000000" d="M231.682,-69.7667C217.6103,-79.5696 216.3101,-103.7 193.5,-103.7"/>
<polygon fill="#000000" stroke="#000000" points="237.8255,-67.9587 246.5164,-69.1535 241.6627,-66.8293 245.5,-65.7 245.5,-65.7 245.5,-65.7 241.6627,-66.8293 244.4836,-62.2465 237.8255,-67.9587 237.8255,-67.9587"/>
<ellipse fill="none" stroke="#000000" cx="234.7556" cy="-68.8621" rx="3.2" ry="3.2"/>
</g>
</g>
</svg>
