<?xml version="1.0" encoding="UTF-8" standalone="no"?>
<!DOCTYPE svg PUBLIC "-//W3C//DTD SVG 1.1//EN"
 "http://www.w3.org/Graphics/SVG/1.1/DTD/svg11.dtd">
<!-- Generated by graphviz version 2.40.1 (20161225.0304)
 -->
<!-- Title: twoDegreesRelationshipsDiagram Pages: 1 -->
<svg width="455pt" height="452pt"
 viewBox="0.00 0.00 455.00 452.20" xmlns="http://www.w3.org/2000/svg" xmlns:xlink="http://www.w3.org/1999/xlink">
<g id="graph0" class="graph" transform="scale(1 1) rotate(0) translate(4 448.2)">
<title>twoDegreesRelationshipsDiagram</title>
<polygon fill="#ffffff" stroke="transparent" points="-4,4 -4,-448.2 451,-448.2 451,4 -4,4"/>
<text text-anchor="middle" x="72.4936" y="-7.3" font-family="Helvetica,sans-Serif" font-size="11.00" fill="#000000">Generated by SchemaSpy</text>
<!-- cor_uaa_email -->
<g id="node1" class="node">
<title>cor_uaa_email</title>
<g id="a_node1"><a xlink:href="../../tables/cor_uaa_email.html" xlink:title="cor_uaa_email" target="_top">
<polygon fill="#ffffff" stroke="transparent" points="274,-379.2 274,-440.2 407,-440.2 407,-379.2 274,-379.2"/>
<polygon fill="#f5f5f5" stroke="transparent" points="274.5,-416.7 274.5,-439.7 407.5,-439.7 407.5,-416.7 274.5,-416.7"/>
<polygon fill="none" stroke="#000000" points="274.5,-416.7 274.5,-439.7 407.5,-439.7 407.5,-416.7 274.5,-416.7"/>
<text text-anchor="start" x="279.5" y="-425.3" font-family="Helvetica,sans-Serif" font-weight="bold" font-size="11.00" fill="#000000">cor_uaa_email</text>
<text text-anchor="start" x="373.0219" y="-424.8" font-family="Helvetica,sans-Serif" font-size="11.00" fill="#000000">[table]</text>
<polygon fill="none" stroke="#000000" points="274.5,-397.7 274.5,-416.7 407.5,-416.7 407.5,-397.7 274.5,-397.7"/>
<text text-anchor="start" x="277.5" y="-403.8" font-family="Helvetica,sans-Serif" font-size="11.00" fill="#000000">...</text>
<polygon fill="#ffffff" stroke="transparent" points="274.5,-378.7 274.5,-397.7 339.5,-397.7 339.5,-378.7 274.5,-378.7"/>
<polygon fill="none" stroke="#000000" points="274.5,-378.7 274.5,-397.7 339.5,-397.7 339.5,-378.7 274.5,-378.7"/>
<text text-anchor="start" x="277.5" y="-384.8" font-family="Helvetica,sans-Serif" font-size="11.00" fill="#000000">&lt; 1</text>
<polygon fill="#ffffff" stroke="transparent" points="339.5,-378.7 339.5,-397.7 373.5,-397.7 373.5,-378.7 339.5,-378.7"/>
<polygon fill="none" stroke="#000000" points="339.5,-378.7 339.5,-397.7 373.5,-397.7 373.5,-378.7 339.5,-378.7"/>
<text text-anchor="start" x="364.3862" y="-384.8" font-family="Helvetica,sans-Serif" font-size="11.00" fill="#000000"> &#160;</text>
<polygon fill="#ffffff" stroke="transparent" points="373.5,-378.7 373.5,-397.7 407.5,-397.7 407.5,-378.7 373.5,-378.7"/>
<polygon fill="none" stroke="#000000" points="373.5,-378.7 373.5,-397.7 407.5,-397.7 407.5,-378.7 373.5,-378.7"/>
<text text-anchor="start" x="398.3862" y="-384.8" font-family="Helvetica,sans-Serif" font-size="11.00" fill="#000000"> &#160;</text>
</a>
</g>
</g>
<!-- cor_uaa_user -->
<g id="node2" class="node">
<title>cor_uaa_user</title>
<g id="a_node2"><a xlink:href="../../tables/cor_uaa_user.html" xlink:title="cor_uaa_user" target="_top">
<polygon fill="#ffffff" stroke="transparent" points="8,-276.2 8,-403.2 193,-403.2 193,-276.2 8,-276.2"/>
<polygon fill="#f5f5f5" stroke="transparent" points="8.5,-379.7 8.5,-402.7 193.5,-402.7 193.5,-379.7 8.5,-379.7"/>
<polygon fill="none" stroke="#000000" points="8.5,-379.7 8.5,-402.7 193.5,-402.7 193.5,-379.7 8.5,-379.7"/>
<text text-anchor="start" x="13.5" y="-388.3" font-family="Helvetica,sans-Serif" font-weight="bold" font-size="11.00" fill="#000000">cor_uaa_user</text>
<text text-anchor="start" x="158.5437" y="-387.8" font-family="Helvetica,sans-Serif" font-size="11.00" fill="#000000">[table]</text>
<polygon fill="none" stroke="#000000" points="8.5,-357.7 8.5,-379.7 193.5,-379.7 193.5,-357.7 8.5,-357.7"/>
<image xlink:href="../../images/primaryKeys.png" width="11px" height="12px" preserveAspectRatio="xMinYMin meet" x="13.5" y="-374.7"/>
<text text-anchor="start" x="28.5" y="-364.8" font-family="Helvetica,sans-Serif" font-size="11.00" fill="#000000">c_pk</text>
<polygon fill="#ffffff" stroke="transparent" points="8.5,-335.7 8.5,-357.7 193.5,-357.7 193.5,-335.7 8.5,-335.7"/>
<polygon fill="none" stroke="#000000" points="8.5,-335.7 8.5,-357.7 193.5,-357.7 193.5,-335.7 8.5,-335.7"/>
<text text-anchor="start" x="28.5" y="-342.8" font-family="Helvetica,sans-Serif" font-size="11.00" fill="#000000">c_pid</text>
<polygon fill="#ffffff" stroke="transparent" points="8.5,-313.7 8.5,-335.7 193.5,-335.7 193.5,-313.7 8.5,-313.7"/>
<polygon fill="none" stroke="#000000" points="8.5,-313.7 8.5,-335.7 193.5,-335.7 193.5,-313.7 8.5,-313.7"/>
<text text-anchor="start" x="28.5" y="-320.8" font-family="Helvetica,sans-Serif" font-size="11.00" fill="#000000">c_username</text>
<polygon fill="none" stroke="#000000" points="8.5,-294.7 8.5,-313.7 193.5,-313.7 193.5,-294.7 8.5,-294.7"/>
<text text-anchor="start" x="11.5" y="-300.8" font-family="Helvetica,sans-Serif" font-size="11.00" fill="#000000">...</text>
<polygon fill="#ffffff" stroke="transparent" points="8.5,-275.7 8.5,-294.7 90.5,-294.7 90.5,-275.7 8.5,-275.7"/>
<polygon fill="none" stroke="#000000" points="8.5,-275.7 8.5,-294.7 90.5,-294.7 90.5,-275.7 8.5,-275.7"/>
<text text-anchor="start" x="11.5" y="-281.8" font-family="Helvetica,sans-Serif" font-size="11.00" fill="#000000"> &#160;</text>
<polygon fill="#ffffff" stroke="transparent" points="90.5,-275.7 90.5,-294.7 137.5,-294.7 137.5,-275.7 90.5,-275.7"/>
<polygon fill="none" stroke="#000000" points="90.5,-275.7 90.5,-294.7 137.5,-294.7 137.5,-275.7 90.5,-275.7"/>
<text text-anchor="start" x="128.3862" y="-281.8" font-family="Helvetica,sans-Serif" font-size="11.00" fill="#000000"> &#160;</text>
<polygon fill="#ffffff" stroke="transparent" points="137.5,-275.7 137.5,-294.7 193.5,-294.7 193.5,-275.7 137.5,-275.7"/>
<polygon fill="none" stroke="#000000" points="137.5,-275.7 137.5,-294.7 193.5,-294.7 193.5,-275.7 137.5,-275.7"/>
<text text-anchor="start" x="174.9053" y="-281.8" font-family="Helvetica,sans-Serif" font-size="11.00" fill="#000000">3 &gt;</text>
</a>
</g>
</g>
<!-- cor_uaa_email&#45;&gt;cor_uaa_user -->
<g id="edge1" class="edge">
<title>cor_uaa_email:w&#45;&gt;cor_uaa_user:e</title>
<path fill="none" stroke="#000000" d="M260.1419,-404.7633C233.6174,-397.0197 227.8282,-368.7 193.5,-368.7"/>
<polygon fill="#000000" stroke="#000000" points="266.5718,-405.6306 274.0188,-410.2677 270.5359,-406.1653 274.5,-406.7 274.5,-406.7 274.5,-406.7 270.5359,-406.1653 274.9812,-403.1323 266.5718,-405.6306 266.5718,-405.6306"/>
<ellipse fill="none" stroke="#000000" cx="263.4005" cy="-405.2028" rx="3.2" ry="3.2"/>
</g>
<!-- cor_uaa_role_role -->
<g id="node3" class="node">
<title>cor_uaa_role_role</title>
<g id="a_node3"><a xlink:href="../../tables/cor_uaa_role_role.html" xlink:title="cor_uaa_role_role" target="_top">
<polygon fill="#ffffff" stroke="transparent" points="263,-103.2 263,-164.2 418,-164.2 418,-103.2 263,-103.2"/>
<polygon fill="#f5f5f5" stroke="transparent" points="263.5,-140.7 263.5,-163.7 418.5,-163.7 418.5,-140.7 263.5,-140.7"/>
<polygon fill="none" stroke="#000000" points="263.5,-140.7 263.5,-163.7 418.5,-163.7 418.5,-140.7 263.5,-140.7"/>
<text text-anchor="start" x="268.5" y="-149.3" font-family="Helvetica,sans-Serif" font-weight="bold" font-size="11.00" fill="#000000">cor_uaa_role_role</text>
<text text-anchor="start" x="384.0219" y="-148.8" font-family="Helvetica,sans-Serif" font-size="11.00" fill="#000000">[table]</text>
<polygon fill="none" stroke="#000000" points="263.5,-121.7 263.5,-140.7 418.5,-140.7 418.5,-121.7 263.5,-121.7"/>
<text text-anchor="start" x="266.5" y="-127.8" font-family="Helvetica,sans-Serif" font-size="11.00" fill="#000000">...</text>
<polygon fill="#ffffff" stroke="transparent" points="263.5,-102.7 263.5,-121.7 339.5,-121.7 339.5,-102.7 263.5,-102.7"/>
<polygon fill="none" stroke="#000000" points="263.5,-102.7 263.5,-121.7 339.5,-121.7 339.5,-102.7 263.5,-102.7"/>
<text text-anchor="start" x="266.5" y="-108.8" font-family="Helvetica,sans-Serif" font-size="11.00" fill="#000000">&lt; 2</text>
<polygon fill="#ffffff" stroke="transparent" points="339.5,-102.7 339.5,-121.7 378.5,-121.7 378.5,-102.7 339.5,-102.7"/>
<polygon fill="none" stroke="#000000" points="339.5,-102.7 339.5,-121.7 378.5,-121.7 378.5,-102.7 339.5,-102.7"/>
<text text-anchor="start" x="369.3862" y="-108.8" font-family="Helvetica,sans-Serif" font-size="11.00" fill="#000000"> &#160;</text>
<polygon fill="#ffffff" stroke="transparent" points="378.5,-102.7 378.5,-121.7 418.5,-121.7 418.5,-102.7 378.5,-102.7"/>
<polygon fill="none" stroke="#000000" points="378.5,-102.7 378.5,-121.7 418.5,-121.7 418.5,-102.7 378.5,-102.7"/>
<text text-anchor="start" x="409.3862" y="-108.8" font-family="Helvetica,sans-Serif" font-size="11.00" fill="#000000"> &#160;</text>
</a>
</g>
</g>
<!-- cor_uaa_role -->
<g id="node4" class="node">
<title>cor_uaa_role</title>
<g id="a_node4"><a xlink:href="../../tables/cor_uaa_role.html" xlink:title="cor_uaa_role" target="_top">
<polygon fill="#ffffff" stroke="transparent" points="39,-38.2 39,-165.2 162,-165.2 162,-38.2 39,-38.2"/>
<polygon fill="#f5f5f5" stroke="transparent" points="39.5,-141.7 39.5,-164.7 162.5,-164.7 162.5,-141.7 39.5,-141.7"/>
<polygon fill="none" stroke="#000000" points="39.5,-141.7 39.5,-164.7 162.5,-164.7 162.5,-141.7 39.5,-141.7"/>
<text text-anchor="start" x="44.5" y="-150.3" font-family="Helvetica,sans-Serif" font-weight="bold" font-size="11.00" fill="#000000">cor_uaa_role</text>
<text text-anchor="start" x="128.0219" y="-149.8" font-family="Helvetica,sans-Serif" font-size="11.00" fill="#000000">[table]</text>
<polygon fill="none" stroke="#000000" points="39.5,-119.7 39.5,-141.7 162.5,-141.7 162.5,-119.7 39.5,-119.7"/>
<image xlink:href="../../images/primaryKeys.png" width="11px" height="12px" preserveAspectRatio="xMinYMin meet" x="44.5" y="-136.7"/>
<text text-anchor="start" x="65.5" y="-126.8" font-family="Helvetica,sans-Serif" font-size="11.00" fill="#000000">c_pk</text>
<polygon fill="#ffffff" stroke="transparent" points="39.5,-97.7 39.5,-119.7 162.5,-119.7 162.5,-97.7 39.5,-97.7"/>
<polygon fill="none" stroke="#000000" points="39.5,-97.7 39.5,-119.7 162.5,-119.7 162.5,-97.7 39.5,-97.7"/>
<text text-anchor="start" x="65.5" y="-104.8" font-family="Helvetica,sans-Serif" font-size="11.00" fill="#000000">c_pid</text>
<polygon fill="#ffffff" stroke="transparent" points="39.5,-75.7 39.5,-97.7 162.5,-97.7 162.5,-75.7 39.5,-75.7"/>
<polygon fill="none" stroke="#000000" points="39.5,-75.7 39.5,-97.7 162.5,-97.7 162.5,-75.7 39.5,-75.7"/>
<text text-anchor="start" x="65.5" y="-82.8" font-family="Helvetica,sans-Serif" font-size="11.00" fill="#000000">c_name</text>
<polygon fill="none" stroke="#000000" points="39.5,-56.7 39.5,-75.7 162.5,-75.7 162.5,-56.7 39.5,-56.7"/>
<text text-anchor="start" x="42.5" y="-62.8" font-family="Helvetica,sans-Serif" font-size="11.00" fill="#000000">...</text>
<polygon fill="#ffffff" stroke="transparent" points="39.5,-37.7 39.5,-56.7 90.5,-56.7 90.5,-37.7 39.5,-37.7"/>
<polygon fill="none" stroke="#000000" points="39.5,-37.7 39.5,-56.7 90.5,-56.7 90.5,-37.7 39.5,-37.7"/>
<text text-anchor="start" x="42.5" y="-43.8" font-family="Helvetica,sans-Serif" font-size="11.00" fill="#000000"> &#160;</text>
<polygon fill="#ffffff" stroke="transparent" points="90.5,-37.7 90.5,-56.7 121.5,-56.7 121.5,-37.7 90.5,-37.7"/>
<polygon fill="none" stroke="#000000" points="90.5,-37.7 90.5,-56.7 121.5,-56.7 121.5,-37.7 90.5,-37.7"/>
<text text-anchor="start" x="112.3862" y="-43.8" font-family="Helvetica,sans-Serif" font-size="11.00" fill="#000000"> &#160;</text>
<polygon fill="#ffffff" stroke="transparent" points="121.5,-37.7 121.5,-56.7 162.5,-56.7 162.5,-37.7 121.5,-37.7"/>
<polygon fill="none" stroke="#000000" points="121.5,-37.7 121.5,-56.7 162.5,-56.7 162.5,-37.7 121.5,-37.7"/>
<text text-anchor="start" x="143.9053" y="-43.8" font-family="Helvetica,sans-Serif" font-size="11.00" fill="#000000">3 &gt;</text>
</a>
</g>
</g>
<!-- cor_uaa_role_role&#45;&gt;cor_uaa_role -->
<g id="edge2" class="edge">
<title>cor_uaa_role_role:w&#45;&gt;cor_uaa_role:e</title>
<path fill="none" stroke="#000000" d="M248.9974,-128.8378C215.5186,-124.7824 202.1285,-125.4031 162.5,-130.7"/>
<polygon fill="#000000" stroke="#000000" points="255.5651,-129.6811 263.0415,-134.2707 259.5326,-130.1905 263.5,-130.7 263.5,-130.7 263.5,-130.7 259.5326,-130.1905 263.9585,-127.1293 255.5651,-129.6811 255.5651,-129.6811"/>
<ellipse fill="none" stroke="#000000" cx="252.3912" cy="-129.2735" rx="3.2" ry="3.2"/>
</g>
<!-- cor_uaa_role_role&#45;&gt;cor_uaa_role -->
<g id="edge3" class="edge">
<title>cor_uaa_role_role:w&#45;&gt;cor_uaa_role:e</title>
<path fill="none" stroke="#000000" d="M248.9974,-132.8725C215.5186,-137.6039 202.1285,-136.8797 162.5,-130.7"/>
<polygon fill="#000000" stroke="#000000" points="255.5883,-131.8853 264.0334,-134.2603 259.5441,-131.2926 263.5,-130.7 263.5,-130.7 263.5,-130.7 259.5441,-131.2926 262.9666,-127.1397 255.5883,-131.8853 255.5883,-131.8853"/>
<ellipse fill="none" stroke="#000000" cx="252.4236" cy="-132.3594" rx="3.2" ry="3.2"/>
</g>
<!-- cor_uaa_role_user -->
<g id="node5" class="node">
<title>cor_uaa_role_user</title>
<g id="a_node5"><a xlink:href="../../tables/cor_uaa_role_user.html" xlink:title="cor_uaa_role_user" target="_top">
<polygon fill="#ffffff" stroke="transparent" points="247,-185.7 247,-275.7 434,-275.7 434,-185.7 247,-185.7"/>
<polygon fill="#f5f5f5" stroke="transparent" points="249.5,-250.7 249.5,-273.7 432.5,-273.7 432.5,-250.7 249.5,-250.7"/>
<polygon fill="none" stroke="#000000" points="249.5,-250.7 249.5,-273.7 432.5,-273.7 432.5,-250.7 249.5,-250.7"/>
<text text-anchor="start" x="254.5" y="-259.3" font-family="Helvetica,sans-Serif" font-weight="bold" font-size="11.00" fill="#000000">cor_uaa_role_user</text>
<text text-anchor="start" x="397.5437" y="-258.8" font-family="Helvetica,sans-Serif" font-size="11.00" fill="#000000">[table]</text>
<polygon fill="none" stroke="#000000" points="249.5,-228.7 249.5,-250.7 390.5,-250.7 390.5,-228.7 249.5,-228.7"/>
<image xlink:href="../../images/primaryKeys.png" width="11px" height="12px" preserveAspectRatio="xMinYMin meet" x="254.5" y="-245.7"/>
<text text-anchor="start" x="269.5" y="-235.8" font-family="Helvetica,sans-Serif" font-size="11.00" fill="#000000">c_role_id</text>
<polygon fill="none" stroke="#000000" points="390.5,-228.7 390.5,-250.7 432.5,-250.7 432.5,-228.7 390.5,-228.7"/>
<text text-anchor="start" x="393.4644" y="-236.4" font-family="Helvetica,sans-Serif" font-size="11.00" fill="#000000">int8[19]</text>
<polygon fill="none" stroke="#000000" points="249.5,-206.7 249.5,-228.7 390.5,-228.7 390.5,-206.7 249.5,-206.7"/>
<image xlink:href="../../images/primaryKeys.png" width="11px" height="12px" preserveAspectRatio="xMinYMin meet" x="254.5" y="-223.7"/>
<text text-anchor="start" x="269.5" y="-213.8" font-family="Helvetica,sans-Serif" font-size="11.00" fill="#000000">c_user_id</text>
<polygon fill="none" stroke="#000000" points="390.5,-206.7 390.5,-228.7 432.5,-228.7 432.5,-206.7 390.5,-206.7"/>
<text text-anchor="start" x="393.4644" y="-214.4" font-family="Helvetica,sans-Serif" font-size="11.00" fill="#000000">int8[19]</text>
<polygon fill="#ffffff" stroke="transparent" points="249.5,-187.7 249.5,-206.7 324.5,-206.7 324.5,-187.7 249.5,-187.7"/>
<polygon fill="none" stroke="#000000" points="249.5,-187.7 249.5,-206.7 324.5,-206.7 324.5,-187.7 249.5,-187.7"/>
<text text-anchor="start" x="252.5" y="-193.8" font-family="Helvetica,sans-Serif" font-size="11.00" fill="#000000">&lt; 2</text>
<polygon fill="#ffffff" stroke="transparent" points="324.5,-187.7 324.5,-206.7 390.5,-206.7 390.5,-187.7 324.5,-187.7"/>
<polygon fill="none" stroke="#000000" points="324.5,-187.7 324.5,-206.7 390.5,-206.7 390.5,-187.7 324.5,-187.7"/>
<text text-anchor="start" x="381.3862" y="-193.8" font-family="Helvetica,sans-Serif" font-size="11.00" fill="#000000"> &#160;</text>
<polygon fill="#ffffff" stroke="transparent" points="390.5,-187.7 390.5,-206.7 432.5,-206.7 432.5,-187.7 390.5,-187.7"/>
<polygon fill="none" stroke="#000000" points="390.5,-187.7 390.5,-206.7 432.5,-206.7 432.5,-187.7 390.5,-187.7"/>
<text text-anchor="start" x="413.9053" y="-193.8" font-family="Helvetica,sans-Serif" font-size="11.00" fill="#000000">0 &gt;</text>
<polygon fill="none" stroke="#000000" stroke-width="2" points="248,-186.7 248,-274.7 433,-274.7 433,-186.7 248,-186.7"/>
</a>
</g>
</g>
<!-- cor_uaa_role_user&#45;&gt;cor_uaa_user -->
<g id="edge5" class="edge">
<title>cor_uaa_role_user:w&#45;&gt;cor_uaa_user:e</title>
<path fill="none" stroke="#000000" d="M235.1952,-220.4498C190.8629,-240.9153 259.3458,-368.7 193.5,-368.7"/>
<polygon fill="#000000" stroke="#000000" points="241.6438,-219.2102 250.1796,-221.2353 245.5719,-218.4551 249.5,-217.7 249.5,-217.7 249.5,-217.7 245.5719,-218.4551 248.8204,-214.1647 241.6438,-219.2102 241.6438,-219.2102"/>
<ellipse fill="none" stroke="#000000" cx="238.5014" cy="-219.8143" rx="3.2" ry="3.2"/>
</g>
<!-- cor_uaa_role_user&#45;&gt;cor_uaa_role -->
<g id="edge4" class="edge">
<title>cor_uaa_role_user:w&#45;&gt;cor_uaa_role:e</title>
<path fill="none" stroke="#000000" d="M235.0461,-237.2186C193.3602,-220.9939 218.9148,-130.7 162.5,-130.7"/>
<polygon fill="#000000" stroke="#000000" points="241.6153,-238.3463 248.8908,-243.2481 245.5577,-239.0232 249.5,-239.7 249.5,-239.7 249.5,-239.7 245.5577,-239.0232 250.1092,-236.1519 241.6153,-238.3463 241.6153,-238.3463"/>
<ellipse fill="none" stroke="#000000" cx="238.4615" cy="-237.8049" rx="3.2" ry="3.2"/>
</g>
<!-- cor_uaa_user_password -->
<g id="node6" class="node">
<title>cor_uaa_user_password</title>
<g id="a_node6"><a xlink:href="../../tables/cor_uaa_user_password.html" xlink:title="cor_uaa_user_password" target="_top">
<polygon fill="#ffffff" stroke="transparent" points="242,-297.2 242,-358.2 439,-358.2 439,-297.2 242,-297.2"/>
<polygon fill="#f5f5f5" stroke="transparent" points="242.5,-334.7 242.5,-357.7 439.5,-357.7 439.5,-334.7 242.5,-334.7"/>
<polygon fill="none" stroke="#000000" points="242.5,-334.7 242.5,-357.7 439.5,-357.7 439.5,-334.7 242.5,-334.7"/>
<text text-anchor="start" x="247.5" y="-343.3" font-family="Helvetica,sans-Serif" font-weight="bold" font-size="11.00" fill="#000000">cor_uaa_user_password</text>
<text text-anchor="start" x="405.0219" y="-342.8" font-family="Helvetica,sans-Serif" font-size="11.00" fill="#000000">[table]</text>
<polygon fill="none" stroke="#000000" points="242.5,-315.7 242.5,-334.7 439.5,-334.7 439.5,-315.7 242.5,-315.7"/>
<text text-anchor="start" x="245.5" y="-321.8" font-family="Helvetica,sans-Serif" font-size="11.00" fill="#000000">...</text>
<polygon fill="#ffffff" stroke="transparent" points="242.5,-296.7 242.5,-315.7 339.5,-315.7 339.5,-296.7 242.5,-296.7"/>
<polygon fill="none" stroke="#000000" points="242.5,-296.7 242.5,-315.7 339.5,-315.7 339.5,-296.7 242.5,-296.7"/>
<text text-anchor="start" x="245.5" y="-302.8" font-family="Helvetica,sans-Serif" font-size="11.00" fill="#000000">&lt; 1</text>
<polygon fill="#ffffff" stroke="transparent" points="339.5,-296.7 339.5,-315.7 389.5,-315.7 389.5,-296.7 339.5,-296.7"/>
<polygon fill="none" stroke="#000000" points="339.5,-296.7 339.5,-315.7 389.5,-315.7 389.5,-296.7 339.5,-296.7"/>
<text text-anchor="start" x="380.3862" y="-302.8" font-family="Helvetica,sans-Serif" font-size="11.00" fill="#000000"> &#160;</text>
<polygon fill="#ffffff" stroke="transparent" points="389.5,-296.7 389.5,-315.7 439.5,-315.7 439.5,-296.7 389.5,-296.7"/>
<polygon fill="none" stroke="#000000" points="389.5,-296.7 389.5,-315.7 439.5,-315.7 439.5,-296.7 389.5,-296.7"/>
<text text-anchor="start" x="430.3862" y="-302.8" font-family="Helvetica,sans-Serif" font-size="11.00" fill="#000000"> &#160;</text>
</a>
</g>
</g>
<!-- cor_uaa_user_password&#45;&gt;cor_uaa_user -->
<g id="edge6" class="edge">
<title>cor_uaa_user_password:w&#45;&gt;cor_uaa_user:e</title>
<path fill="none" stroke="#000000" d="M227.9909,-324.7C216.6774,-324.7 209.4931,-324.7 193.5,-324.7"/>
<polygon fill="#000000" stroke="#000000" points="234.5,-324.7001 242.5,-328.3 238.5,-324.7 242.5,-324.7 242.5,-324.7 242.5,-324.7 238.5,-324.7 242.5,-321.1 234.5,-324.7001 234.5,-324.7001"/>
<ellipse fill="none" stroke="#000000" cx="231.3" cy="-324.7001" rx="3.2" ry="3.2"/>
</g>
</g>
</svg>
