<?xml version="1.0" encoding="UTF-8" standalone="no"?>
<!DOCTYPE svg PUBLIC "-//W3C//DTD SVG 1.1//EN"
 "http://www.w3.org/Graphics/SVG/1.1/DTD/svg11.dtd">
<!-- Generated by graphviz version 2.40.1 (20161225.0304)
 -->
<!-- Title: twoDegreesRelationshipsDiagram Pages: 1 -->
<svg width="379pt" height="223pt"
 viewBox="0.00 0.00 379.00 222.70" xmlns="http://www.w3.org/2000/svg" xmlns:xlink="http://www.w3.org/1999/xlink">
<g id="graph0" class="graph" transform="scale(1 1) rotate(0) translate(4 218.7)">
<title>twoDegreesRelationshipsDiagram</title>
<polygon fill="#ffffff" stroke="transparent" points="-4,4 -4,-218.7 375,-218.7 375,4 -4,4"/>
<text text-anchor="middle" x="72.4936" y="-7.3" font-family="Helvetica,sans-Serif" font-size="11.00" fill="#000000">Generated by SchemaSpy</text>
<!-- cor_uaa_role_role -->
<g id="node1" class="node">
<title>cor_uaa_role_role</title>
<g id="a_node1"><a xlink:href="../../tables/cor_uaa_role_role.html" xlink:title="cor_uaa_role_role" target="_top">
<polygon fill="#ffffff" stroke="transparent" points="180,-120.7 180,-210.7 363,-210.7 363,-120.7 180,-120.7"/>
<polygon fill="#f5f5f5" stroke="transparent" points="182.5,-185.7 182.5,-208.7 361.5,-208.7 361.5,-185.7 182.5,-185.7"/>
<polygon fill="none" stroke="#000000" points="182.5,-185.7 182.5,-208.7 361.5,-208.7 361.5,-185.7 182.5,-185.7"/>
<text text-anchor="start" x="187.5" y="-194.3" font-family="Helvetica,sans-Serif" font-weight="bold" font-size="11.00" fill="#000000">cor_uaa_role_role</text>
<text text-anchor="start" x="326.5437" y="-193.8" font-family="Helvetica,sans-Serif" font-size="11.00" fill="#000000">[table]</text>
<polygon fill="none" stroke="#000000" points="182.5,-163.7 182.5,-185.7 319.5,-185.7 319.5,-163.7 182.5,-163.7"/>
<image xlink:href="../../images/primaryKeys.png" width="11px" height="12px" preserveAspectRatio="xMinYMin meet" x="187.5" y="-180.7"/>
<text text-anchor="start" x="202.5" y="-170.8" font-family="Helvetica,sans-Serif" font-size="11.00" fill="#000000">c_role_id</text>
<polygon fill="none" stroke="#000000" points="319.5,-163.7 319.5,-185.7 361.5,-185.7 361.5,-163.7 319.5,-163.7"/>
<text text-anchor="start" x="322.4644" y="-171.4" font-family="Helvetica,sans-Serif" font-size="11.00" fill="#000000">int8[19]</text>
<polygon fill="none" stroke="#000000" points="182.5,-141.7 182.5,-163.7 319.5,-163.7 319.5,-141.7 182.5,-141.7"/>
<image xlink:href="../../images/primaryKeys.png" width="11px" height="12px" preserveAspectRatio="xMinYMin meet" x="187.5" y="-158.7"/>
<text text-anchor="start" x="202.5" y="-148.8" font-family="Helvetica,sans-Serif" font-size="11.00" fill="#000000">c_grant_id</text>
<polygon fill="none" stroke="#000000" points="319.5,-141.7 319.5,-163.7 361.5,-163.7 361.5,-141.7 319.5,-141.7"/>
<text text-anchor="start" x="322.4644" y="-149.4" font-family="Helvetica,sans-Serif" font-size="11.00" fill="#000000">int8[19]</text>
<polygon fill="#ffffff" stroke="transparent" points="182.5,-122.7 182.5,-141.7 255.5,-141.7 255.5,-122.7 182.5,-122.7"/>
<polygon fill="none" stroke="#000000" points="182.5,-122.7 182.5,-141.7 255.5,-141.7 255.5,-122.7 182.5,-122.7"/>
<text text-anchor="start" x="185.5" y="-128.8" font-family="Helvetica,sans-Serif" font-size="11.00" fill="#000000">&lt; 2</text>
<polygon fill="#ffffff" stroke="transparent" points="255.5,-122.7 255.5,-141.7 319.5,-141.7 319.5,-122.7 255.5,-122.7"/>
<polygon fill="none" stroke="#000000" points="255.5,-122.7 255.5,-141.7 319.5,-141.7 319.5,-122.7 255.5,-122.7"/>
<text text-anchor="start" x="310.3862" y="-128.8" font-family="Helvetica,sans-Serif" font-size="11.00" fill="#000000"> &#160;</text>
<polygon fill="#ffffff" stroke="transparent" points="319.5,-122.7 319.5,-141.7 361.5,-141.7 361.5,-122.7 319.5,-122.7"/>
<polygon fill="none" stroke="#000000" points="319.5,-122.7 319.5,-141.7 361.5,-141.7 361.5,-122.7 319.5,-122.7"/>
<text text-anchor="start" x="342.9053" y="-128.8" font-family="Helvetica,sans-Serif" font-size="11.00" fill="#000000">0 &gt;</text>
<polygon fill="none" stroke="#000000" stroke-width="2" points="181,-121.7 181,-209.7 362,-209.7 362,-121.7 181,-121.7"/>
</a>
</g>
</g>
<!-- cor_uaa_role -->
<g id="node2" class="node">
<title>cor_uaa_role</title>
<g id="a_node2"><a xlink:href="../../tables/cor_uaa_role.html" xlink:title="cor_uaa_role" target="_top">
<polygon fill="#ffffff" stroke="transparent" points="8,-60.2 8,-187.2 131,-187.2 131,-60.2 8,-60.2"/>
<polygon fill="#f5f5f5" stroke="transparent" points="8.5,-163.7 8.5,-186.7 131.5,-186.7 131.5,-163.7 8.5,-163.7"/>
<polygon fill="none" stroke="#000000" points="8.5,-163.7 8.5,-186.7 131.5,-186.7 131.5,-163.7 8.5,-163.7"/>
<text text-anchor="start" x="13.5" y="-172.3" font-family="Helvetica,sans-Serif" font-weight="bold" font-size="11.00" fill="#000000">cor_uaa_role</text>
<text text-anchor="start" x="97.0219" y="-171.8" font-family="Helvetica,sans-Serif" font-size="11.00" fill="#000000">[table]</text>
<polygon fill="none" stroke="#000000" points="8.5,-141.7 8.5,-163.7 131.5,-163.7 131.5,-141.7 8.5,-141.7"/>
<image xlink:href="../../images/primaryKeys.png" width="11px" height="12px" preserveAspectRatio="xMinYMin meet" x="13.5" y="-158.7"/>
<text text-anchor="start" x="34.5" y="-148.8" font-family="Helvetica,sans-Serif" font-size="11.00" fill="#000000">c_pk</text>
<polygon fill="#ffffff" stroke="transparent" points="8.5,-119.7 8.5,-141.7 131.5,-141.7 131.5,-119.7 8.5,-119.7"/>
<polygon fill="none" stroke="#000000" points="8.5,-119.7 8.5,-141.7 131.5,-141.7 131.5,-119.7 8.5,-119.7"/>
<text text-anchor="start" x="34.5" y="-126.8" font-family="Helvetica,sans-Serif" font-size="11.00" fill="#000000">c_pid</text>
<polygon fill="#ffffff" stroke="transparent" points="8.5,-97.7 8.5,-119.7 131.5,-119.7 131.5,-97.7 8.5,-97.7"/>
<polygon fill="none" stroke="#000000" points="8.5,-97.7 8.5,-119.7 131.5,-119.7 131.5,-97.7 8.5,-97.7"/>
<text text-anchor="start" x="34.5" y="-104.8" font-family="Helvetica,sans-Serif" font-size="11.00" fill="#000000">c_name</text>
<polygon fill="none" stroke="#000000" points="8.5,-78.7 8.5,-97.7 131.5,-97.7 131.5,-78.7 8.5,-78.7"/>
<text text-anchor="start" x="11.5" y="-84.8" font-family="Helvetica,sans-Serif" font-size="11.00" fill="#000000">...</text>
<polygon fill="#ffffff" stroke="transparent" points="8.5,-59.7 8.5,-78.7 59.5,-78.7 59.5,-59.7 8.5,-59.7"/>
<polygon fill="none" stroke="#000000" points="8.5,-59.7 8.5,-78.7 59.5,-78.7 59.5,-59.7 8.5,-59.7"/>
<text text-anchor="start" x="11.5" y="-65.8" font-family="Helvetica,sans-Serif" font-size="11.00" fill="#000000"> &#160;</text>
<polygon fill="#ffffff" stroke="transparent" points="59.5,-59.7 59.5,-78.7 90.5,-78.7 90.5,-59.7 59.5,-59.7"/>
<polygon fill="none" stroke="#000000" points="59.5,-59.7 59.5,-78.7 90.5,-78.7 90.5,-59.7 59.5,-59.7"/>
<text text-anchor="start" x="81.3862" y="-65.8" font-family="Helvetica,sans-Serif" font-size="11.00" fill="#000000"> &#160;</text>
<polygon fill="#ffffff" stroke="transparent" points="90.5,-59.7 90.5,-78.7 131.5,-78.7 131.5,-59.7 90.5,-59.7"/>
<polygon fill="none" stroke="#000000" points="90.5,-59.7 90.5,-78.7 131.5,-78.7 131.5,-59.7 90.5,-59.7"/>
<text text-anchor="start" x="112.9053" y="-65.8" font-family="Helvetica,sans-Serif" font-size="11.00" fill="#000000">3 &gt;</text>
</a>
</g>
</g>
<!-- cor_uaa_role_role&#45;&gt;cor_uaa_role -->
<g id="edge1" class="edge">
<title>cor_uaa_role_role:w&#45;&gt;cor_uaa_role:e</title>
<path fill="none" stroke="#000000" d="M167.776,-152.7C155.7815,-152.7 148.3229,-152.7 131.5,-152.7"/>
<polygon fill="#000000" stroke="#000000" points="174.5,-152.7001 182.5,-156.3 178.5,-152.7 182.5,-152.7 182.5,-152.7 182.5,-152.7 178.5,-152.7 182.5,-149.1 174.5,-152.7001 174.5,-152.7001"/>
<ellipse fill="none" stroke="#000000" cx="171.3" cy="-152.7001" rx="3.2" ry="3.2"/>
</g>
<!-- cor_uaa_role_role&#45;&gt;cor_uaa_role -->
<g id="edge2" class="edge">
<title>cor_uaa_role_role:w&#45;&gt;cor_uaa_role:e</title>
<path fill="none" stroke="#000000" d="M168.3489,-171.641C155.7843,-165.596 150.4,-152.7 131.5,-152.7"/>
<polygon fill="#000000" stroke="#000000" points="174.6806,-173.0097 181.7393,-178.2187 178.5903,-173.8548 182.5,-174.7 182.5,-174.7 182.5,-174.7 178.5903,-173.8548 183.2607,-171.1813 174.6806,-173.0097 174.6806,-173.0097"/>
<ellipse fill="none" stroke="#000000" cx="171.5528" cy="-172.3335" rx="3.2" ry="3.2"/>
</g>
<!-- cor_uaa_role_user -->
<g id="node3" class="node">
<title>cor_uaa_role_user</title>
<g id="a_node3"><a xlink:href="../../tables/cor_uaa_role_user.html" xlink:title="cor_uaa_role_user" target="_top">
<polygon fill="#ffffff" stroke="transparent" points="192,-38.2 192,-99.2 351,-99.2 351,-38.2 192,-38.2"/>
<polygon fill="#f5f5f5" stroke="transparent" points="192.5,-75.7 192.5,-98.7 351.5,-98.7 351.5,-75.7 192.5,-75.7"/>
<polygon fill="none" stroke="#000000" points="192.5,-75.7 192.5,-98.7 351.5,-98.7 351.5,-75.7 192.5,-75.7"/>
<text text-anchor="start" x="197.5" y="-84.3" font-family="Helvetica,sans-Serif" font-weight="bold" font-size="11.00" fill="#000000">cor_uaa_role_user</text>
<text text-anchor="start" x="317.0219" y="-83.8" font-family="Helvetica,sans-Serif" font-size="11.00" fill="#000000">[table]</text>
<polygon fill="none" stroke="#000000" points="192.5,-56.7 192.5,-75.7 351.5,-75.7 351.5,-56.7 192.5,-56.7"/>
<text text-anchor="start" x="195.5" y="-62.8" font-family="Helvetica,sans-Serif" font-size="11.00" fill="#000000">...</text>
<polygon fill="#ffffff" stroke="transparent" points="192.5,-37.7 192.5,-56.7 270.5,-56.7 270.5,-37.7 192.5,-37.7"/>
<polygon fill="none" stroke="#000000" points="192.5,-37.7 192.5,-56.7 270.5,-56.7 270.5,-37.7 192.5,-37.7"/>
<text text-anchor="start" x="195.5" y="-43.8" font-family="Helvetica,sans-Serif" font-size="11.00" fill="#000000">&lt; 2</text>
<polygon fill="#ffffff" stroke="transparent" points="270.5,-37.7 270.5,-56.7 310.5,-56.7 310.5,-37.7 270.5,-37.7"/>
<polygon fill="none" stroke="#000000" points="270.5,-37.7 270.5,-56.7 310.5,-56.7 310.5,-37.7 270.5,-37.7"/>
<text text-anchor="start" x="301.3862" y="-43.8" font-family="Helvetica,sans-Serif" font-size="11.00" fill="#000000"> &#160;</text>
<polygon fill="#ffffff" stroke="transparent" points="310.5,-37.7 310.5,-56.7 351.5,-56.7 351.5,-37.7 310.5,-37.7"/>
<polygon fill="none" stroke="#000000" points="310.5,-37.7 310.5,-56.7 351.5,-56.7 351.5,-37.7 310.5,-37.7"/>
<text text-anchor="start" x="342.3862" y="-43.8" font-family="Helvetica,sans-Serif" font-size="11.00" fill="#000000"> &#160;</text>
</a>
</g>
</g>
<!-- cor_uaa_role_user&#45;&gt;cor_uaa_role -->
<g id="edge3" class="edge">
<title>cor_uaa_role_user:w&#45;&gt;cor_uaa_role:e</title>
<path fill="none" stroke="#000000" d="M178.2573,-69.4383C152.3774,-86.0906 172.8212,-152.7 131.5,-152.7"/>
<polygon fill="#000000" stroke="#000000" points="184.7621,-67.731 193.414,-69.1821 188.631,-66.7155 192.5,-65.7 192.5,-65.7 192.5,-65.7 188.631,-66.7155 191.586,-62.2179 184.7621,-67.731 184.7621,-67.731"/>
<ellipse fill="none" stroke="#000000" cx="181.6669" cy="-68.5434" rx="3.2" ry="3.2"/>
</g>
</g>
</svg>
